<svg id="Layer_1" data-name="Layer 1" xmlns="http://www.w3.org/2000/svg" viewBox="0 0 472 534.47804">
  <defs>
    <style>
      .cls-1 {
        fill: #004393;
      }

      .cls-2 {
        fill: #fff;
      }

      .cls-3 {
        fill: #efefef;
      }
    </style>
  </defs>
  <title>as9100d-logo-01</title>
  <g>
    <path class="cls-1" d="M45.07129,502.11914H19.95508l-5.50879,12.59961H1.28125l26.79687-60.02734h9.52393l26.04981,60.02734H50.58008Zm-3.54785-9.53906-8.87012-21.59961L23.7832,492.58008Z"/>
    <path class="cls-1" d="M115.84131,468.37109a12.33231,12.33231,0,0,0-10.17676-5.12988c-6.53613,0-8.59033,3.96-8.59033,7.01953a4.981,4.981,0,0,0,1.96094,4.04981c1.49414,1.34961,3.54785,2.06933,7.46972,3.41992,4.855,1.62012,9.43018,3.23926,12.6045,6.0293,2.80126,2.42968,5.32226,6.48046,5.32226,12.59961,0,11.69921-8.77685,19.709-21.66162,19.709a25.828,25.828,0,0,1-21.4751-11.33887l7.93653-7.29a14.67254,14.67254,0,0,0,13.07177,8.00977c5.50879,0,9.6167-3.24024,9.6167-8.2793a6.8589,6.8589,0,0,0-2.42773-5.40039c-2.334-2.06933-6.06885-3.23926-9.6167-4.41015-3.26807-1.07911-7.18945-2.51954-10.36377-5.21973A13.767,13.767,0,0,1,84.563,470.98047c0-8.81934,6.1626-17.63965,19.981-17.63965a24.45318,24.45318,0,0,1,17.64648,7.02051Z"/>
    <path class="cls-1" d="M158.50781,511.749l14.84571-18.71972a22.69414,22.69414,0,0,1-6.62891,1.16992,21.05018,21.05018,0,0,1-13.63184-5.12988,19.48881,19.48881,0,0,1-5.88232-14.39942,20.2511,20.2511,0,0,1,5.69531-14.48926c5.32227-5.5791,11.39112-6.83984,17.74024-6.83984,6.6289,0,12.60449,1.16992,17.73974,6.12012a19.36228,19.36228,0,0,1,6.06934,14.5791c0,7.29-3.45459,13.13965-7.84326,18.71973l-18.3003,23.5791Zm4.20166-45.98828a11.32727,11.32727,0,0,0,.09375,16.19922,11.04059,11.04059,0,0,0,8.0293,2.87988,11.11934,11.11934,0,0,0,8.02978-19.16894,11.85856,11.85856,0,0,0-8.02978-2.96973A11.35332,11.35332,0,0,0,162.70947,465.76074Z"/>
    <path class="cls-1" d="M228.34619,464.77051h-8.96338v-10.0791h21.10157v60.02734H228.34619Z"/>
    <path class="cls-1" d="M272.22754,484.66016c0-20.60938,11.6709-31.31934,24.08887-31.31934s24.08886,10.71,24.08886,31.40918c0,20.60938-11.67089,31.31836-24.08886,31.31836S272.22754,505.35938,272.22754,484.66016Zm12.13769,0c0,15.65918,6.62891,21.3291,11.95118,21.3291s11.95117-5.66992,11.95117-21.3291c0-15.56934-6.72266-21.23926-11.95117-21.23926S284.36523,469.09082,284.36523,484.66016Z"/>
    <path class="cls-1" d="M341.50293,484.66016c0-20.60938,11.6709-31.31934,24.08887-31.31934s24.08984,10.71,24.08984,31.40918c0,20.60938-11.67187,31.31836-24.08984,31.31836S341.50293,505.35938,341.50293,484.66016Zm12.13769,0c0,15.65918,6.62989,21.3291,11.95118,21.3291,5.32226,0,11.95117-5.66992,11.95117-21.3291,0-15.56934-6.72266-21.23926-11.95117-21.23926S353.64062,469.09082,353.64062,484.66016Z"/>
    <path class="cls-1" d="M431.69336,454.69141c8.68359,0,16.24609.89941,23.15527,5.84961A29.32782,29.32782,0,0,1,466.7998,484.75c0,9.98926-4.29492,18.62891-12.51074,24.209-7.2832,4.9502-14.09863,5.75977-22.78222,5.75977h-16.0586V454.69141Zm-4.10742,49.94726h3.73437c3.08106,0,9.80371-.17969,15.21875-3.959,4.94922-3.41992,7.75-9.54,7.75-15.92969,0-6.2998-2.708-12.41992-7.65625-16.01953-5.042-3.59961-11.2041-3.96-15.3125-3.96h-3.73437Z"/>
  </g>
  <g>
    <path class="cls-1" d="M193.70355,347.27374a135.68146,135.68146,0,0,0,35.986,6.57971v-63.3283a344.60432,344.60432,0,0,0-56.923,5.838A307.21272,307.21272,0,0,0,193.70355,347.27374Z"/>
    <path class="cls-1" d="M169.2818,284.12628a358.22786,358.22786,0,0,1,60.40778-6.26941V223.81036h-68.9477A265.959,265.959,0,0,0,169.2818,284.12628Z"/>
    <path class="cls-1" d="M172.71661,138.605a344.70591,344.70591,0,0,0,56.973,5.87506V81.14655a135.68039,135.68039,0,0,0-36.02186,6.59185A307.0886,307.0886,0,0,0,172.71661,138.605Z"/>
    <path class="cls-1" d="M160.77045,211.18958h68.91913V157.14514a358.15361,358.15361,0,0,1-60.421-6.26587A265.8167,265.8167,0,0,0,160.77045,211.18958Z"/>
    <path class="cls-1" d="M176.23138,94.79541a137.2935,137.2935,0,0,0-43.79821,33.9176q14.01407,4.267,27.994,7.37274A314.71811,314.71811,0,0,1,176.23138,94.79541Z"/>
    <path class="cls-1" d="M339.55823,128.70288a137.29216,137.29216,0,0,0-43.88458-33.95611,315.12788,315.12788,0,0,1,15.88067,41.35784Q325.54038,132.98725,339.55823,128.70288Z"/>
    <path class="cls-1" d="M132.42676,306.27905a137.29021,137.29021,0,0,0,43.84234,33.94483,314.94593,314.94593,0,0,1-15.84057-41.31354Q146.44321,302.028,132.42676,306.27905Z"/>
    <path class="cls-1" d="M156.9812,148.35736q-16.43408-3.6882-32.87146-8.92468a135.66116,135.66116,0,0,0-24.46216,71.7569h48.57465A278.14249,278.14249,0,0,1,156.9812,148.35736Z"/>
    <path class="cls-1" d="M148.23322,223.81036H99.64758a135.66514,135.66514,0,0,0,24.47766,71.77814q16.427-5.2197,32.84876-8.90716A278.11452,278.11452,0,0,1,148.23322,223.81036Z"/>
    <path class="cls-1" d="M314.95782,148.33545a278.18453,278.18453,0,0,1,8.77955,62.85413H372.3526a135.659,135.659,0,0,0-24.48309-71.786Q331.41117,144.63435,314.95782,148.33545Z"/>
    <path class="cls-1" d="M314.96674,286.67767q16.44909,3.69141,32.90142,8.92023a135.66252,135.66252,0,0,0,24.48444-71.78754H323.736A278.1329,278.1329,0,0,1,314.96674,286.67767Z"/>
    <path class="cls-1" d="M295.70245,340.23853a137.292,137.292,0,0,0,43.865-33.95258q-14.02111-4.27058-28.00732-7.377A314.9443,314.9443,0,0,1,295.70245,340.23853Z"/>
    <path class="cls-1" d="M0,0V435H472V0ZM236.00006,383.24426c-91.39313,0-165.74347-74.35406-165.74347-165.74518,0-91.39135,74.35034-165.7434,165.74347-165.7434s165.74335,74.35205,165.74335,165.7434C401.74341,308.8902,327.39325,383.24426,236.00006,383.24426Z"/>
    <path class="cls-1" d="M242.31042,290.5213v63.33215a135.67881,135.67881,0,0,0,36.01362-6.589,307.12107,307.12107,0,0,0,20.93273-50.8949A344.58415,344.58415,0,0,0,242.31042,290.5213Z"/>
    <path class="cls-1" d="M302.72766,150.86072a358.34981,358.34981,0,0,1-60.41724,6.2923v54.03656h68.93647A265.87536,265.87536,0,0,0,302.72766,150.86072Z"/>
    <path class="cls-1" d="M278.31714,87.73315a135.67107,135.67107,0,0,0-36.00672-6.5866V144.464a344.62325,344.62325,0,0,0,56.9477-5.85828A307.1614,307.1614,0,0,0,278.31714,87.73315Z"/>
    <path class="cls-1" d="M311.23877,223.81036H242.31042v54.05695a358.19077,358.19077,0,0,1,60.4275,6.25494A265.87,265.87,0,0,0,311.23877,223.81036Z"/>
  </g>
  <path class="cls-1" d="M236,375c-86.57031,0-157-70.42969-157-157S149.42969,61,236,61s157,70.42969,157,157S322.57031,375,236,375Zm0-304C154.94385,71,89,136.94385,89,218c0,81.05566,65.94385,147,147,147,81.05566,0,147-65.94434,147-147C383,136.94385,317.05566,71,236,71Z"/>
  <g>
    <g>
      <path class="cls-1" d="M288.13965,315.99316c-2.79883,0-31.668-16.05273-41.124-21.35351a77.58383,77.58383,0,0,1-22.72363,3.92187c-12.85937,0-21.3208-4.92968-24.52441-14.2705H197.062c-2.18213,1.41015-16.86328,10.5205-31.71387,10.52246-8.30908.001-15.11132-2.87793-20.229-8.55762-5.16748,1.10059-43.50732,9.26758-46.94726,10.126a8.873,8.873,0,0,1-2.1504.25195c-3.97119,0-9.51806-2.42481-12.08154-9.26074l-.353-.94239,53.436-19.6875v-4.89453l-110.60645-7.499.69385-1.35156c.33789-.65723,8.44043-16.16846,22.95069-21.00489,2.70507-.90185,82.626-10.25195,97.55664-11.99316l-24.77149-44.95557L136.041,157.78955l59.207,56.3877,22.15429-2.65821,9.27686-38.03613,16.49463-7.21631,5.43652,25.374c7.35938-8.249,42.44043-47.05322,57.72949-54.69775,8.918-4.459,14.667-6.1958,20.50586-6.1958,3.9336,0,7.8086.79395,12.71387,1.79932.82715.16943,1.68652.3457,2.585.52636,3.51758-1.24023,40.83887-14.06543,78.39258-14.06543a144.57477,144.57477,0,0,1,17.84277,1.05469c1.80078.2251,4.23828.895,5.61719,2.8086a6.05809,6.05809,0,0,1,.833,4.90625l-.02735.13671c-2.542,12.8335-18.33789,47.94288-109.78125,97.13038,1.23731,4.04492,2.76465,8.46728,3.25879,9.07373.51465.51269,58.65821,56.78955,61.36914,58.59814a5.37757,5.37757,0,0,1,1.72266,5.84961c-.63965,2.11426-3.04395,5.66113-11.95605,5.66113a43.56129,43.56129,0,0,1-5.36329-.3623c-7.29492-.91211-87.57031-21.59864-94.00585-23.25879L270.542,287.39062c5.15723,4.36817,23.19336,19.66309,24.83106,21.30079a3.56056,3.56056,0,0,1,.86718,3.92089C295.71777,313.875,293.96973,315.99316,288.13965,315.99316Z"/>
      <path class="cls-2" d="M420.53781,120.007a143.138,143.138,0,0,1,17.71774,1.047c2.92572.36572,6.5268,1.86478,5.5944,6.52678s-7.45923,41.95794-110.023,96.9695c0,0,2.79715,9.324,3.72956,10.25638s58.74112,56.87634,61.53833,58.74112c2.50305,1.66873,3.47,9.67893-9.67868,9.67893a42.41744,42.41744,0,0,1-5.23972-.35492c-7.45917-.93241-94.17227-23.31-94.17227-23.31L268.559,287.021s24.24234,20.51278,26.10715,22.37756.99045,5.59439-6.52683,5.59439c-2.79715,0-41.02556-21.44516-41.02556-21.44516a77.539,77.539,0,0,1-22.8215,4.01382c-10.03859,0-20.33516-3.01461-23.79843-14.2702h-3.72955s-15.78411,10.522-31.41582,10.522c-7.166,0-14.29758-2.20942-19.86614-8.6572,0,0-43.82277,9.32394-47.55239,10.25641a7.90484,7.90484,0,0,1-1.90752.22153c-3.7522,0-8.78148-2.30765-11.146-8.61316l53.14672-19.58039v-6.52676L28,253.45468s8.08722-15.74934,22.37755-20.51283c2.79723-.93239,98.83428-12.12117,98.83428-12.12117l-25.17472-45.68756,12.12116-15.85077,58.74112,55.94394,23.31-2.79723,9.324-38.22833,14.91838-6.52678,5.59439,26.10718s41.958-47.5524,58.74112-55.944c9.11682-4.55842,14.65726-6.09044,20.05814-6.09044,4.54156,0,8.9844,1.08312,15.373,2.36083,0,0,38.77927-14.10052,78.31937-14.10052m0-2c-36.92337,0-73.6181,12.34163-78.4656,14.03119q-1.19967-.24183-2.31141-.47108c-4.96148-1.01711-8.88037-1.82044-12.91543-1.82044-6.00846,0-11.883,1.76677-20.95255,6.30161-14.67251,7.33621-47.17032,42.83244-56.71667,53.46089l-4.76879-22.25433-.51321-2.395-2.244.98172-14.9184,6.52678-.90689.39679-.23454.96166-8.99553,36.8816-20.99832,2.51983-58.05889-55.29421-1.614-1.53722-1.354,1.77062-12.12117,15.85077-.79288,1.03689.62994,1.14322,23.73823,43.08057c-21.13849,2.46716-93.57561,10.96461-96.27856,11.86554C34.852,236.0089,26.56629,251.86839,26.22084,252.54106l-1.38817,2.70345,3.03206.20561,108.15833,7.33275v3.26321L84.185,285.14435l-1.88761.69537.70634,1.88352c2.74321,7.31533,8.72755,9.911,13.01866,9.911a9.88167,9.88167,0,0,0,2.39267-.28128c3.31972-.83,39.458-8.5315,46.354-10,5.26634,5.61557,12.18318,8.46054,20.57947,8.46054,14.63684,0,29.07-8.65863,32.00621-10.522h1.70958c3.51952,9.34381,12.20639,14.2702,25.228,14.2702a78.52451,78.52451,0,0,0,22.62034-3.8345c2.4807,1.38672,10.52071,5.86868,18.71309,10.30225C285.88455,316.993,287.296,316.993,288.13928,316.993c6.41184,0,8.40668-2.50476,9.02518-3.99783a4.545,4.545,0,0,0-1.08411-5.01078c-1.54141-1.54132-17.16183-14.80578-23.55554-20.22522l17.56528-6.10964c8.25455,2.1285,86.57962,22.29953,93.83825,23.20687a44.66467,44.66467,0,0,0,5.48777.3704c9.55783,0,12.19345-3.99131,12.91379-6.37046a6.3474,6.3474,0,0,0-2.12574-6.97262c-2.77557-1.97644-56.99435-54.281-61.14886-58.40692a65.59913,65.59913,0,0,1-2.83609-7.9423c42.16116-22.74379,73.05084-45.13346,91.82251-66.55871,6.85312-7.82184,15.49423-19.52623,17.74228-30.86646l.02713-.13627a7.01429,7.01429,0,0,0-1.003-5.68711c-1.58982-2.20578-4.30594-2.96661-6.30454-3.21644a145.625,145.625,0,0,0-17.96579-1.0624Z"/>
    </g>
    <polygon class="cls-3" points="309.584 247.86 304.922 253.455 298.396 253.455 307.72 236.671 322.638 229.212 315.179 228.28 304.922 234.807 293.734 255.319 304.922 256.252 309.584 247.86"/>
    <polygon class="cls-3" points="246.181 228.28 264.829 220.821 248.979 218.023 230.331 248.793 245.249 250.657 252.708 241.333 245.249 247.86 235.925 245.995 246.181 228.28"/>
    <path class="cls-3" d="M298.3957,260.91384h3.7296s-24.24238,19.58037-67.13273,26.10717C234.99257,287.021,278.81532,275.83222,298.3957,260.91384Z"/>
    <path class="cls-3" d="M236.85737,256.25184h4.662s-13.986,12.12119-55.94393,23.31C185.57543,279.56181,218.20939,267.44063,236.85737,256.25184Z"/>
    <path class="cls-3" d="M209.8178,278.62942h8.39159s-.9324,8.39159,10.25639,11.18878C228.46578,289.8182,213.54739,294.4802,209.8178,278.62942Z"/>
    <path class="cls-3" d="M152.00906,278.62942l8.39159-1.8648s4.662,7.45919,20.51278,5.59439C180.91343,282.359,162.26545,292.6154,152.00906,278.62942Z"/>
    <path class="cls-3" d="M307.59369,152.63127c17.12788-10.13779,28.098-11.0645,28.098-11.0645-2.70887-2.70888-14.16189-3.66876-20.81036-.33941A31.57863,31.57863,0,0,0,307.59369,152.63127Z"/>
    <g>
      <path class="cls-3" d="M294.85032,155.41628a26.74872,26.74872,0,0,0-4.3107,9.14553,148.18743,148.18743,0,0,1,14.686-10.49262,28.89951,28.89951,0,0,1,4.863-10.0217A102.24455,102.24455,0,0,0,294.85032,155.41628Z"/>
      <path class="cls-3" d="M289.969,160.32219c-5.94359,6.61278-7.42408,11.08134-7.42408,11.08134,1.95187-1.77442,3.86646-3.43486,5.74651-5.00418A25.00474,25.00474,0,0,1,289.969,160.32219Z"/>
    </g>
    <g>
      <path class="cls-3" d="M372.21917,187.80861c40.82837-26.34448,52.05039-44.377,52.05039-44.377-12.72653,12.03861-35.6053,27.6292-59.41249,42.51395A51.37789,51.37789,0,0,0,372.21917,187.80861Z"/>
      <path class="cls-3" d="M430.79635,129.44558a240.6902,240.6902,0,0,0-82.30862,14.10777c-3.88945,9.35654-4.94648,17.43866-3.19266,24.14717,25.95733-14.10891,54.59741-27.63871,78.04209-33.59294,6.57909-1.67091,8.39159-1.8648,7.45919,1.86479C430.79635,135.97237,435.45835,129.44558,430.79635,129.44558Z"/>
      <path class="cls-3" d="M274.80733,210.42384c-1.0366.697-1.5864,1.07285-1.5864,1.07285A14.266,14.266,0,0,0,274.80733,210.42384Z"/>
    </g>
    <g>
      <path class="cls-3" d="M363.53342,187.487c-.24374-.08565-.47969-.178-.71973-.26673l-.00091.00057c-5.81771-2.08071-12.92827-5.83911-16.73834-12.33881a46.97685,46.97685,0,0,1-2.4678-6.26245l.00022-.00011c-1.91823-6.81373-1.068-14.92083,2.54009-24.21375a220.47913,220.47913,0,0,0-44.2852,22.14851c-3.0237,9.70443-2.66517,17.86116,1.113,24.3076.21341.364.44457.71056.67545,1.05725,10.9677-6.76382,24.13948-14.59536,38.22671-22.34815a25.75235,25.75235,0,0,0,2.594,6.26262c3.17075,5.40415,8.90747,9.85968,16.191,12.72186-39.46038,24.43052-79.98189,46.25129-79.98189,46.25129,39.04591-16.42408,67.98847-32.0215,89.24385-45.53116A52.0045,52.0045,0,0,1,363.53342,187.487Z"/>
      <path class="cls-3" d="M274.80733,210.42384c3.70336-2.49012,13.6649-9.10671,27.24694-17.51805q-.35724-.53872-.683-1.09248c-3.77194-6.42931-4.402-14.36153-1.9171-23.65951a205.482,205.482,0,0,0-25.30088,20.03292v-4.662s-14.91839,17.71558-23.31,22.37758l36.36356-11.18879S280.89785,205.74915,274.80733,210.42384Z"/>
    </g>
    <g>
      <polygon class="cls-3" points="343.265 257.796 388.838 294.48 345.961 255.953 343.265 257.796"/>
      <polygon class="cls-3" points="344.945 255.039 324.503 236.671 321.706 240.401 342.203 256.913 344.945 255.039"/>
    </g>
    <g>
      <polygon class="cls-3" points="234.06 199.034 234.06 188.187 232.195 189.119 230.058 199.806 234.06 199.034"/>
      <polygon class="cls-3" points="229.86 201.16 227.533 212.429 231.263 212.429 234.06 210.564 234.06 200.349 229.86 201.16"/>
    </g>
    <g>
      <polygon class="cls-3" points="151.669 196.266 138.955 180.728 138.023 184.457 147.563 200.483 151.669 196.266"/>
      <polygon class="cls-3" points="152.753 197.591 148.463 201.996 161.333 223.618 172.522 221.753 152.753 197.591"/>
    </g>
    <g>
      <path class="cls-3" d="M165.73042,230.6111c-46.17042,4.447-105.964,10.24534-108.826,10.72236-5.5944.9324-5.5944,2.79719-5.5944,2.79719l109.6147-8.58428Z"/>
      <path class="cls-3" d="M168.34989,230.35882l-4.85549,4.98632,42.5938-3.33567,13.05359-6.5268S196.61727,227.63708,168.34989,230.35882Z"/>
    </g>
  </g>
</svg>
