<svg id="Layer_1" data-name="Layer 1" xmlns="http://www.w3.org/2000/svg" viewBox="0 0 472 535.326">
  <defs>
    <style>
      .cls-1 {
        fill: #004393;
      }
    </style>
  </defs>
  <title>iso9001-logo</title>
  <g id="g2537">
    <path id="path45" class="cls-1" d="M383.01163,187.08849c3.178,4.87258,2.9671,11.22889,3.60226,16.95-.21322,12.07638.84622,26.48362-1.27267,38.77412-1.05927,5.08382-4.44848,10.38087-9.74535,12.28852-8.475,3.8135-19.9175,2.75388-27.7552-1.69461-6.56935-4.6617-7.41557-12.50156-8.26414-19.9175-.63516-14.62027-1.69443-30.08677,2.32995-43.43456,3.17816-8.26306,11.8664-10.38177,19.70626-11.018C369.87472,179.03649,377.92564,180.30789,383.01163,187.08849Z"/>
    <path id="path47" class="cls-1" d="M-.48581,434.77234V.42458H472V434.77234ZM248.68069,52.33453a93.14951,93.14951,0,0,0-18.8558-.21215,49.67247,49.67247,0,0,0-7.83987.21215,165.57672,165.57672,0,0,0-126.91428,75.6404c2.1188-.212,4.66081.63516,6.77952-.212a195.75712,195.75712,0,0,1,17.16236-20.97569c5.50892-5.29686,10.59374-10.38285,16.52685-14.19617,5.508,3.60226,11.65327,6.56827,16.95013,9.95857-6.56827,8.26306-13.34877,16.52594-18.22145,25.42525,1.48229.63516,4.23751.4232,6.35631,0a164.08628,164.08628,0,0,1,17.79744-22.6712c9.11037,3.39012,18.00958,6.99148,27.33191,9.53447l.84731.84731-5.29687,12.28942a19.97133,19.97133,0,0,0,6.14525,0c1.90657-3.60244,3.38913-7.62772,5.50793-11.23a206.32944,206.32944,0,0,0,38.35,4.66153c1.69551,1.48246.42419,4.6608,1.05936,6.56845h5.72106c.63516-2.11871-.21214-4.44956.63516-6.35631,12.28942-.63607,25.21329-1.90783,37.07969-4.87367l1.05944.212,5.71881,11.018c1.90783,0,4.45064.4232,5.93419-.42428l-5.29686-12.28835.42212-.4241c9.74769-2.543,18.85787-6.35631,28.18128-10.16963a196.32911,196.32911,0,0,1,18.22037,23.30636c2.32995,0,4.66189.21088,6.35649-.42428a82.5184,82.5184,0,0,0-9.11018-13.34761,91.87224,91.87224,0,0,0-9.32359-11.44248v-1.05908l14.83133-8.68609,2.1189-.84838a156.00409,156.00409,0,0,1,33.47616,35.38364c2.543,0,4.66171.84748,6.7806-.21178C346.78123,84.11609,299.95529,56.36,249.31783,52.33453l-.21286.4241ZM270.50575,61.869v.42393c-18.43386,13.55992-48.30858,14.83151-67.80171,2.33-1.05945-.84731-3.17834-1.27051-3.39039-2.75388C221.773,56.57213,248.25857,56.14784,270.50575,61.869Zm58.266,25.84936-.42411.8473-14.62045,8.26288h-1.05927a183.87756,183.87756,0,0,0-37.71359-29.23839c.4242-1.48354,2.543-2.543,4.02645-3.60244A149.72737,149.72737,0,0,1,328.77174,87.71835ZM195.28828,67.59014a215.49719,215.49719,0,0,0-37.92573,29.87355,70.57985,70.57985,0,0,1-16.10292-8.898v-.42428a150.94133,150.94133,0,0,1,43.85893-22.45906c.63525-.63516,1.05935-1.27032,1.90684-1.27032v.423c1.69452.4241,2.96583-1.48265,4.44938-.21214C192.74637,65.68231,194.22883,66.5307,195.28828,67.59014ZM306.52482,99.58258l-.42428.63607c-8.264,3.60136-16.73916,6.99183-25.84935,8.8984a358.49361,358.49361,0,0,0-21.82308-33.26421c2.9652-1.6955,6.56755-2.96583,9.74571-4.66152A150.12851,150.12851,0,0,1,306.52482,99.58258ZM211.17906,75.42874l-.63534,1.69569c-8.05182,10.16963-14.40814,21.18783-20.76436,31.99262l-.84748.21214A168.46656,168.46656,0,0,1,163.719,100.642l.42392-1.27033a166.79716,166.79716,0,0,1,37.50172-27.75628C204.82284,72.887,208.001,73.94646,211.17906,75.42874Zm20.55257,4.02546c.63517,11.0182.21188,23.73064.21188,35.384-5.933.84731-11.23-.21214-17.162-.63516-5.72106-.84857-12.92477-1.48373-18.64592-3.3903a188.62458,188.62458,0,0,1,22.036-33.26529Zm19.91606-1.69443c8.264,10.59374,16.31489,21.39961,21.823,33.053a148.945,148.945,0,0,1-34.9598,4.2376c-.423-11.23033-.211-23.73082,0-35.384C242.74839,79.03118,247.41018,78.39494,251.64769,77.75977Zm-17.16209,72.038c-23.30654-9.95857-55.93531-11.018-77.12305,4.44974-13.77216,10.16963-18.00967,28.39127-14.40741,44.494,2.75405,15.25471,17.16146,26.48379,30.93335,31.78066,18.85788,6.78041,38.56207,11.65336,57.631,18.22271,1.90666.84622,4.44966,2.75387,4.02537,5.08382,0,1.90765-1.90675,2.96692-3.3902,3.81531-19.91615,5.5081-41.52709,1.27068-55.93532-13.98512-1.69461-2.11871-2.754-4.6617-4.44956-6.78023l-28.60331.21286c-.42321,17.16147-.63535,36.86539,0,53.81561l31.78138-.21106.42419-10.16963c3.60244,1.69461,7.20353,3.81332,10.80587,5.72115,22.03505,9.32125,50.4264,11.44,72.2502,0,15.891-8.89931,24.36607-26.06257,22.03414-44.49436-2.32968-18.00932-19.27991-34.32438-36.44128-38.77412l-51.2746-15.0433-3.81449-1.90675a6.005,6.005,0,0,1-2.33076-5.72115c4.02645-6.99147,13.34877-4.87276,20.34052-4.66062,14.83133,2.11889,30.08686,7.20362,38.77394,20.97569,9.32142,0,20.1282.21214,30.2981-.21215.42419-17.37432-.211-32.629-.42419-50.21515-9.53447-.21124-21.18765-.21124-30.7223.212-.42392,2.543.42419,6.14435-.63516,8.687Zm179.67225,6.78059c-27.544-17.79861-69.49515-19.06893-97.88768-2.96709-15.4665,8.052-25.63613,23.94278-28.81428,40.25658-5.72115,26.9088-4.2376,58.9016,16.10184,79.0298,23.73064,21.18765,58.26607,25.84935,88.98837,17.16327a39.7689,39.7689,0,0,0,9.26951-3.20519l.89994-.39707a62.748,62.748,0,0,0,25.42525-19.49322c15.67972-23.30654,16.73916-58.26625,7.20469-84.53881C431.53218,172.257,423.69232,163.14571,414.15785,156.57833ZM54.1781,143.86553l-13.13583.21124c-.21223,11.23-.21223,24.3658,0,35.8081,7.20344.21106,13.98394,0,20.9756.63516v72.038l-.21215,2.96727L40.83,255.94739c-.42392,11.86623-.42392,23.30654,0,34.95972h93.43811V255.94739c-6.99274-.42212-14.83124.213-21.61193-.63516l.21214-74.36791.42411-.63643,20.97568-.212c.212-12.07638.423-25.00132-.21214-36.01916ZM188.509,306.58683c-2.1188,0-4.44984-.42428-5.93338.21106l5.29686,12.50157-.63507.63516a258.35547,258.35547,0,0,0-27.96815,9.95875l-.84731-.42428a169.2427,169.2427,0,0,1-16.31506-20.97443c-1.05936-3.60244-5.297-1.48354-7.62673-1.90783,5.085,9.32125,11.86451,17.58521,18.64475,26.06041-5.72079,3.38922-11.441,7.2047-17.37442,9.95857a153.707,153.707,0,0,1-33.476-35.80792,24.32212,24.32212,0,0,0-6.78051,0c15.25562,24.15475,38.98617,45.34239,63.77527,57.842a.207.207,0,0,1,.21214-.21106c.21205,0,.63525.42429.21205.63715a172.48018,172.48018,0,0,0,53.39232,16.73736c65.04685,8.68789,127.12615-19.49322,163.14549-75.00542a36.365,36.365,0,0,0-6.78059,0,164.92492,164.92492,0,0,1-32.4169,35.17276c-.42411.63516-1.69461.4223-2.11871-.21106-5.29687-3.3912-11.0182-6.14525-16.10184-9.53447,6.78059-8.264,13.34778-16.5281,18.43359-25.63829H330.6774c-5.29686,7.83986-10.80479,16.10383-17.79644,23.0935-9.32323-3.81134-17.79844-7.20272-27.33272-9.74571l-1.05945-.84839c1.48355-4.2376,4.23742-8.2618,5.08581-12.4994h-5.721l-5.72106,11.44a269.18182,269.18182,0,0,0-38.98527-5.08365c-.63642-1.90783.21205-4.6617-.63642-6.35631H233.003c-.42419,2.543.63516,4.44848-.63615,6.56954a246.82129,246.82129,0,0,0-38.138,4.65954Zm44.494,48.73161c-4.44947,1.05926-9.32341,1.05926-13.561,2.11871a188.59753,188.59753,0,0,1-22.035-33.26511l1.05945-.84839c11.018-2.11853,22.45923-3.811,34.32464-3.811Zm41.7404-31.56834.211.633a217.955,217.955,0,0,1-21.39888,32.84119c-3.60235.42608-6.99355-1.05945-10.59383-1.27051l-3.60226-.42212c-.42419-12.50156-.63633-23.51976,0-36.019A161.58565,161.58565,0,0,1,274.74335,323.7501Zm-83.69267,1.90567C197.195,337.309,204.82284,348.327,212.45056,359.343c-2.9662,1.69659-6.56837,2.756-9.53447,4.45064a142.89494,142.89494,0,0,1-38.562-28.39018v-.63751a139.44879,139.44879,0,0,1,25.84926-9.3234Zm116.53341,8.8993c-6.78042,7.83788-15.46866,14.62028-23.51958,20.33945-4.87277,2.96691-9.74544,6.14507-14.83125,8.68608L260.123,359.556l.63516-1.48337A257.11754,257.11754,0,0,0,281.09958,325.869l.63516-.42644A116.823,116.823,0,0,1,307.58409,334.55507Zm22.669,12.0753C318.38906,356.16484,304.617,362.52115,290.634,367.818l-9.95857,3.17816a23.78817,23.78817,0,0,1-4.66179-3.389l.42419-.63516a189.74185,189.74185,0,0,0,37.50253-29.44981A82.26116,82.26116,0,0,1,330.25312,346.63037ZM195.92461,367.60714a16.59323,16.59323,0,0,1-4.2376,3.389,148.6951,148.6951,0,0,1-49.58017-23.72866v-.63715c5.0859-3.178,10.17089-6.56755,15.67981-8.89714C169.863,349.80853,182.36351,358.9207,195.92461,367.60714Zm75.85147,4.87457c.63525,1.27068-1.05936.8464-1.48346,1.27068-22.45824,4.87259-47.46029,5.08563-69.91953-.42428-.4232-1.05927,1.05936-1.27249,1.6956-1.90567C221.773,358.49659,252.49608,358.49659,271.77608,372.48171Z"/>
  </g>
  <g>
    <path class="cls-1" d="M15.08984,511.749,29.93555,493.0293a22.68834,22.68834,0,0,1-6.62891,1.16992A21.05114,21.05114,0,0,1,9.6748,489.06934,19.49043,19.49043,0,0,1,3.793,474.66992a20.25317,20.25317,0,0,1,5.69531-14.48926c5.32227-5.5791,11.39063-6.83984,17.74024-6.83984,6.6289,0,12.60449,1.16992,17.73925,6.12012A19.36228,19.36228,0,0,1,51.03711,474.04c0,7.29-3.4541,13.13965-7.84277,18.71973l-18.30079,23.5791ZM19.292,465.76074A11.32727,11.32727,0,0,0,19.38574,481.96a11.04059,11.04059,0,0,0,8.0293,2.87988,10.64462,10.64462,0,0,0,8.123-3.24023,11.00954,11.00954,0,0,0-.09375-15.92871,11.85721,11.85721,0,0,0-8.0293-2.96973A11.35148,11.35148,0,0,0,19.292,465.76074Z"/>
    <path class="cls-1" d="M63.73242,484.66016c0-20.60938,11.6709-31.31934,24.08887-31.31934s24.08887,10.71,24.08887,31.40918c0,20.60938-11.6709,31.31836-24.08887,31.31836S63.73242,505.35938,63.73242,484.66016Zm12.1377,0c0,15.65918,6.6289,21.3291,11.95117,21.3291s11.95117-5.66992,11.95117-21.3291c0-15.56934-6.72266-21.23926-11.95117-21.23926S75.87012,469.09082,75.87012,484.66016Z"/>
    <path class="cls-1" d="M122.084,484.66016c0-20.60938,11.6709-31.31934,24.08887-31.31934s24.08985,10.71,24.08985,31.40918c0,20.60938-11.67188,31.31836-24.08985,31.31836S122.084,505.35938,122.084,484.66016Zm12.1377,0c0,15.65918,6.62988,21.3291,11.95117,21.3291,5.32227,0,11.95117-5.66992,11.95117-21.3291,0-15.56934-6.72265-21.23926-11.95117-21.23926S134.22168,469.09082,134.22168,484.66016Z"/>
    <path class="cls-1" d="M192.85645,464.77051h-8.96387v-10.0791h21.10156v60.02734H192.85645Z"/>
    <path class="cls-1" d="M241.68555,474.49023a7.02478,7.02478,0,1,1-7.28321,7.01954A7.04907,7.04907,0,0,1,241.68555,474.49023Zm0,27.44922a7.02431,7.02431,0,1,1-7.28321,7.01953A7.04907,7.04907,0,0,1,241.68555,501.93945Z"/>
    <path class="cls-1" d="M278.751,494.64941c1.12011-1.25976,8.40332-9.26953,10.64453-12.50976,1.68066-2.42969,3.64062-6.11914,3.64062-9.62891a8.86226,8.86226,0,0,0-9.24316-9.08984c-6.34863,0-9.71,4.85937-9.89746,9.98926H261.38477c.55957-12.23926,9.52343-20.06934,21.84765-20.06934,14.47266,0,21.94238,9.54,21.94238,19.08008,0,9.26953-6.44238,15.92871-11.29785,20.96875l-10.7373,11.249H305.6416v10.08008H260.45117Z"/>
    <path class="cls-1" d="M319.55078,484.66016c0-20.60938,11.6709-31.31934,24.08887-31.31934s24.08887,10.71,24.08887,31.40918c0,20.60938-11.6709,31.31836-24.08887,31.31836S319.55078,505.35938,319.55078,484.66016Zm12.1377,0c0,15.65918,6.6289,21.3291,11.95117,21.3291s11.95117-5.66992,11.95117-21.3291c0-15.56934-6.72266-21.23926-11.95117-21.23926S331.68848,469.09082,331.68848,484.66016Z"/>
    <path class="cls-1" d="M390.32227,464.77051H381.3584v-10.0791H402.46v60.02734H390.32227Z"/>
    <path class="cls-1" d="M461.74805,464.77051H441.01953l-2.24023,9.45019a27.89894,27.89894,0,0,1,4.20117-.36035c6.62891,0,12.51172,2.51953,16.05957,6.03027,4.94824,4.85938,5.50879,10.79883,5.50879,14.39942,0,6.47949-2.05371,11.51953-6.34961,15.65918-4.94824,4.76953-10.457,6.11914-17.08594,6.11914-3.36133,0-8.68359-.26953-13.44531-2.51953a30.99762,30.99762,0,0,1-7.5625-5.12988l4.01465-10.07911a18.75565,18.75565,0,0,0,6.44238,5.39942,18.99476,18.99476,0,0,0,9.05664,2.25c5.13574,0,8.03027-2.07031,9.52344-3.59961a12.45562,12.45562,0,0,0,3.26855-8.73047,10.0595,10.0595,0,0,0-3.6416-8.2793c-3.1748-2.70019-6.72265-3.05957-9.71-3.05957a26.32413,26.32413,0,0,0-13.44531,3.86914l7.376-31.498h28.75782Z"/>
  </g>
</svg>
