<svg xmlns="http://www.w3.org/2000/svg" viewBox="0 0 150 150">
  <defs>
    <style>
      .svg-calendar {
        fill: #fcfcfc;
      }
    </style>
  </defs>
  <title>calendar-icon</title>
  <g>
    <polygon class="svg-calendar" points="85.672 124.568 74.5 113.396 74.5 85.644 75.5 85.644 75.5 112.982 86.379 123.861 85.672 124.568"/>
    <path class="svg-calendar" d="M143.55927,12.7749H107.96894V2.55908h-1V12.7749H75.489V2.55908h-1V12.7749H43.0354V2.55908h-1V12.7749H6.445V113.68945H37.35883a38.06956,38.06956,0,0,0,75.28662,0h30.91382Zm-101.52387,1V23.96924h1V13.7749H74.489V23.96924h1V13.7749h31.48V23.96924h1V13.7749h34.59033V39.772H7.445V13.7749ZM75.00263,145.07812A37.06909,37.06909,0,1,1,112.071,108.00879,37.1109,37.1109,0,0,1,75.00263,145.07812Zm37.77026-32.38867a38.06892,38.06892,0,1,0-75.5415,0H7.445V40.772H142.55927v71.91748Z"/>
  </g>
</svg>
