<svg xmlns="http://www.w3.org/2000/svg" viewBox="0 0 150 150">
  <defs>
    <style>
      .svg-caliper {
        fill: #fcfcfc;
      }
    </style>
  </defs>
  <title>caliper-icon</title>
  <path class="svg-caliper" d="M142.458,69.13574l5.90234-5.90332-2.47491-2.49676L133.57422,35.11279,115.63281,17.13818c-.19842-.149-4.83636-3.47094-11.73974,1.2345L96.6377,11.05322,96.5459,10.98c-5.27637-3.2666-11.918-.99658-12.19824-.89795l-.75293.26367,17.30883,17.23658L91.42285,37.063l-5.38867-5.38867L56.50537,61.20312l5.38873,5.38862L1.45068,127.03516,15.6665,141.251,76.11005,80.80743l5.37823,5.37812,11.71582-11.716c5.975-4.67309,16.49323-2.66278,21.23047,2.12616.45215.457.915.93555,1.38184,1.419,2.89648,2.99512,5.88379,6.085,8.26855,6.085a2.54593,2.54593,0,0,0,.49707-.04785c7.02539-1.3877,7.78125-5.51465,7.80957-5.68946l.042-.25292L111.00714,56.6662l.00946-.00946-5.37793-5.37793,9.48139-9.48139ZM114.97949,17.89209,132.71,35.62256,143.7345,58.56573,104.60791,19.09381C110.81573,14.95557,114.85718,17.80975,114.97949,17.89209ZM85.46582,10.79736c1.8584-.47656,6.64941-1.35009,10.50391,1.00244L146.9502,63.22949,142.458,67.72168l-28.68164-28.682-.00019-.00036L101.61133,26.87451l-.00275.00275Zm1.16138,22.884-.00025.00024L109.59326,56.666l-3.45965,3.45971L82.56543,36.55713l3.46875-3.46875ZM15.6665,139.83691,2.86475,127.03516l11.45263-11.45264,5.23487,5.23486.707-.707-5.23487-5.23486,4.84815-4.84815,5.24219,5.24219.707-.707-5.24219-5.24219,4.90576-4.90576,5.16846,5.16846.707-.707-5.16846-5.16846,4.85181-4.85181,5.24683,5.24683.707-.707-5.24683-5.24683,4.85816-4.85815L41.856,98.53711l.707-.707L37.31641,92.5835l4.84179-4.8418,5.24707,5.24658.707-.707-5.24707-5.24658,4.83594-4.83594,5.24658,5.24658.707-.707L48.4082,81.4917l4.82886-4.82886,5.18286,5.18286.707-.707-5.18286-5.18286L58.85791,71.042l5.24609,5.2461.707-.707L59.56494,70.335l3.0362-3.03619L75.403,80.1004ZM57.91943,61.20312l23.939-23.939,23.56817,23.56866L81.48828,84.77148Zm73.42432,17.23047c-.2627.82911-1.52637,3.56446-6.95508,4.6377-1.92773.37891-5.07422-2.87793-7.85254-5.752-.4707-.48633-.93554-.9668-1.39062-1.42676-4.26636-4.31317-12.96851-6.4704-19.39435-3.97016l14.54889-14.54907ZM104.93164,50.57178,92.12988,37.77l9.48145-9.48145L114.413,41.09039Z"/>
</svg>
