<svg xmlns="http://www.w3.org/2000/svg" viewBox="0 0 150 150">
  <defs>
    <style>
      .svg-machine {
        fill: #fcfcfc;
      }
    </style>
  </defs>
  <title>machine-icon</title>
  <g>
    <path class="svg-machine" d="M32.50037,85.52734A10.52734,10.52734,0,1,1,43.02772,75,10.5394,10.5394,0,0,1,32.50037,85.52734Zm0-20.05468A9.52734,9.52734,0,1,0,42.02772,75,9.53841,9.53841,0,0,0,32.50037,65.47266Z"/>
    <path class="svg-machine" d="M82.43592,33.02734A10.52734,10.52734,0,1,1,92.96326,22.5,10.5394,10.5394,0,0,1,82.43592,33.02734Zm0-20.05468A9.52734,9.52734,0,1,0,91.96326,22.5,9.53841,9.53841,0,0,0,82.43592,12.97266Z"/>
    <path class="svg-machine" d="M140.60877,76.68964V67.0791c0-.10516-.12274-10.4992-10.47723-10.55365L102.93482,23.774c.02613-.42353.06458-.844.06458-1.274a20.56348,20.56348,0,0,0-41.127,0c0,.65833.038,1.30774.09882,1.95044l-30.014,30.01361A20.53987,20.53987,0,0,0,19.39784,90.8349v40.92H1.77088v16.26465h96.208V131.75488H45.58143V90.85443a20.54339,20.54339,0,0,0,7.05249-20.03778L80.48634,42.96472c.64239.06073,1.2915.09876,1.94958.09876a20.54081,20.54081,0,0,0,2.82874-.218l34.23181,25.40082v8.44171c-7.18329.66034-7.28809,7.66223-7.28809,7.7348v28.82422l10.71-5.3623V88.14844h14.26758v19.73633l10.71,5.3623V84.42285C147.89588,84.35034,147.7909,77.36389,140.60877,76.68964Zm-1-9.61054v9.55567h-19.1123V67.07959c.001-.39014.1289-9.55664,9.55566-9.55664C139.47987,57.523,139.6078,66.68945,139.60877,67.0791ZM96.97889,132.75488v14.26465H2.77088V132.75488h94.208Zm-52.39746-1H20.39784V91.588a20.41,20.41,0,0,0,24.18359.01611ZM32.50037,94.56348A19.56348,19.56348,0,1,1,52.06385,75,19.58592,19.58592,0,0,1,32.50037,94.56348Zm19.84382-24.8711A20.57065,20.57065,0,0,0,33.35548,54.47986L62.1457,25.69006a20.57711,20.57711,0,0,0,17.101,17.10028ZM62.87244,22.5A19.56348,19.56348,0,1,1,82.43592,42.06348,19.58593,19.58593,0,0,1,62.87244,22.5ZM102.804,25.18158l26.06946,31.394c-8.84369.72492-9.34808,9.54675-9.37506,10.42725L86.64643,42.62653A20.59913,20.59913,0,0,0,102.804,25.18158Zm44.09192,86.44635-8.71-4.36035V87.14844H121.91834v20.11914l-8.71,4.36035V84.42383a6.76717,6.76717,0,0,1,6.78809-6.78906h20.09692a6.775,6.775,0,0,1,6.80249,6.78808Z"/>
    <rect class="svg-machine" x="29.50037" y="107.01074" width="1" height="15.34375"/>
    <rect class="svg-machine" x="47.29632" y="47.03082" width="15.34366" height="0.99989" transform="translate(-17.50953 52.78979) rotate(-45)"/>
  </g>
</svg>
