<svg id="Layer_1" data-name="Layer 1" xmlns="http://www.w3.org/2000/svg" viewBox="0 0 470.06664 467.76272">
  <defs>
    <style>
      #Layer_1 {
        opacity: 0;
        -webkit-animation: loaderInnerAppear 2.24s ease-in forwards 1s;
        -o-animation: loaderInnerAppear 2.24s ease-in forwards 1s;
        -moz-animation: loaderInnerAppear 2.24s ease-in forwards 1s;
        animation: loaderInnerAppear 2.24s ease-in forwards 1s;
      }

      .cls-1 {
        width: 100%;
        height: 100%;
        display: block;
        fill: #efefef;
      }

      @-webkit-keyframes loaderInnerAppear {
        from {
          opacity: 0;
        }

        to {
          opacity: 0.55;
        }
      }

      @-o-keyframes loaderInnerAppear {
        from {
          opacity: 0;
        }

        to {
          opacity: 0.55;
        }
      }

      @-moz-keyframes loaderInnerAppear {
        from {
          opacity: 0;
        }

        to {
          opacity: 0.55;
        }
      }

      @keyframes loaderInnerAppear {
        from {
          opacity: 0;
        }

        to {
          opacity: 0.55;
        }
      }

    </style>
  </defs>
  <title>logo-inner</title>
  <g id="shield">
    <path class="cls-1" d="M234.81163,130.36611h-104.977l14.2525,15.91808V342.79078a71.84266,71.84266,0,0,0,39.46921,18.11372c41.08294,4.67458,51.25529,24.70057,51.25529,24.70057s10.17234-20.026,51.2551-24.70057A71.84272,71.84272,0,0,0,325.536,342.79078V146.28419l14.25249-15.91808Zm84.16593,209.18137c-4.54426,3.7614-16.82514,12.61724-33.64229,14.53088-18.18413,2.06965-33.04642,7.22362-44.16892,15.32046a53.16575,53.16575,0,0,0-6.38045,5.429c-7.26084-7.23969-22.25954-17.5364-50.4997-20.74942a65.772,65.772,0,0,1-33.64068-14.51317V143.48289h168.332Z" transform="translate(0.0806 -0.34332)"/>
    <polygon class="cls-1" points="169.472 324.334 228.754 287.999 214.756 274.521 271.221 237.919 256.747 221.964 296.904 172.012 238.982 220.654 251.396 235.412 193.349 272.874 208.993 286.665 169.472 324.334"/>
  </g>
  <g id="text">
    <g>
      <path class="cls-1" d="M39.55384,361.8156l44.32221-29.77484,4.01809,5.9803L43.57193,367.7959Z" transform="translate(0.0806 -0.34332)"/>
      <path class="cls-1" d="M53.19558,381.29711,92.745,345.42573l4.47264,4.92893-17.96,35.39774,27.46738-24.91357,4.59583,5.066L71.76972,401.7762l-4.54551-5.01047,18.22542-35.54L57.76538,386.33534Z" transform="translate(0.0806 -0.34332)"/>
      <path class="cls-1" d="M103.42,426.23348a15.42681,15.42681,0,0,1-7.07156-3.11073q-6.48256-5.00959-5.60035-12.78815.88221-7.776,9.13613-18.45443,8.41093-10.878,16.15565-13.81177a14.102,14.102,0,0,1,14.45889,2.25541,16.17183,16.17183,0,0,1,2.55382,2.43584,15.46528,15.46528,0,0,1,1.839,2.76374l-4.18291,5.40951a15.27307,15.27307,0,0,0-1.6343-2.69782,10.61146,10.61146,0,0,0-1.87546-1.91015,8.808,8.808,0,0,0-9.70172-1.14332q-5.15795,2.36817-11.86864,11.048-6.264,8.10125-7.28844,13.5255a8.184,8.184,0,0,0,3.11073,8.6226,9.90366,9.90366,0,0,0,2.703,1.466,17.87424,17.87424,0,0,0,3.5618.8345Z" transform="translate(0.0806 -0.34332)"/>
      <path class="cls-1" d="M126.151,410.9557q6.79745-12.99634,12.9096-17.00056,6.11562-4.00248,13.26873-.262,7.12015,3.724,7.31793,10.989.20039,7.26588-6.6309,20.32469-6.79745,12.99634-12.86969,16.95892-6.07139,3.966-13.1924.23942-7.154-3.73963-7.37691-10.99771Q119.35359,423.94944,126.151,410.9557Zm6.51639,3.24258q-5.25423,10.04784-5.78251,15.03142-.52828,4.98618,3.28769,6.98309,3.78127,1.97781,7.38385-1.13118,3.60431-3.10985,9.07888-13.57754,5.3401-10.20919,5.85712-15.05571.51526-4.84566-3.26514-6.82521-3.81771-1.996-7.53479,1.21792Q137.97111,404.055,132.66743,414.19828Z" transform="translate(0.0806 -0.34332)"/>
      <path class="cls-1" d="M171.06486,431.905l-7.53653,24.96388-6.89634-2.08365,15.43393-51.11445,8.33112,2.51565q8.299,2.5035,10.88667,6.64824,2.58939,4.143.42159,11.32041-1.71237,5.67321-5.08507,8.11079a10.62331,10.62331,0,0,1-8.34848,1.58572L182.819,462.693l-7.38732-2.23112-4.15516-28.49273Zm1.185-3.92094,2.13569.6454q4.20027,1.26737,6.5268-.16829,2.32394-1.43913,3.82552-6.40883,1.24654-4.13259.06593-6.22665-1.18408-2.09493-5.73394-3.46986l-1.92577-.5812Z" transform="translate(0.0806 -0.34332)"/>
      <path class="cls-1" d="M196.42431,465.12363l6.13644-53.04022,8.718,1.008a32.10826,32.10826,0,0,1,7.44111,1.5597,11.793,11.793,0,0,1,7.45672,8.26346,18.14656,18.14656,0,0,1,.48578,7.08718q-.84057,7.26588-5.5084,10.55531-4.67128,3.28942-12.80724,2.34736c-.5812-.06767-1.01666-.12318-1.3064-.17-.28973-.04511-.5413-.09195-.75643-.14226l-2.703,23.35907ZM207.023,436.19717l2.65271.30709q4.79361.55429,7.06116-1.20751,2.26407-1.76182,2.80364-6.4123.51528-4.47091-1.41917-6.68121-1.93357-2.212-6.98309-2.7967l-2.14437-.24636Z" transform="translate(0.0806 -0.34332)"/>
      <path class="cls-1" d="M234.58232,441.89641q-1.05137-14.62543,2.042-21.24766,3.09425-6.62049,11.14691-7.2,8.01276-.57772,12.004,5.498,3.98946,6.074,5.0469,20.774,1.054,14.628-2.02639,21.19215-3.08124,6.56583-11.09487,7.1427-8.05179.57772-12.05948-5.47543Q235.63628,456.52446,234.58232,441.89641Zm7.24853-.668q.81455,11.31,2.98581,15.82775,2.173,4.51776,6.46781,4.20894,4.25751-.30708,5.68709-4.84565,1.42872-4.53858.58121-16.32221-.82757-11.48956-2.9355-15.885t-6.36719-4.08923q-4.29394.30969-5.7669,4.99833Q241.01023,429.8109,241.83085,441.22846Z" transform="translate(0.0806 -0.34332)"/>
      <path class="cls-1" d="M283.78661,436.10522l6.70724,25.1981-6.96227,1.85464-13.73716-51.5985,8.41267-2.23979q8.37448-2.23026,12.75519-.0642,4.37982,2.1626,6.3082,9.40852,1.525,5.72526-.06246,9.57333a10.6316,10.6316,0,0,1-6.2683,5.73741l19.027,22.14462L302.51,458.10411,283.99828,436.0497Zm-1.05483-3.95737,2.15651-.57426q4.2393-1.12944,5.46329-3.574,1.22313-2.44365-.1145-7.46366-1.10862-4.169-3.21656-5.33144-2.10793-1.16067-6.70029.06246l-1.94486.517Z" transform="translate(0.0806 -0.34332)"/>
      <path class="cls-1" d="M318.99525,452.82993l-11.3499-53.65265,6.126-2.873L347.769,439.33392l-6.58926,3.08991-6.77489-8.4144-11.02547,5.17008,2.20509,10.55878Zm-2.415-42.615,5.4442,22.97565,8.70761-4.084Z" transform="translate(0.0806 -0.34332)"/>
      <path class="cls-1" d="M361.83583,430.25157l-26.16445-38.7288-8.21315,5.5483-3.72663-5.51533,22.42568-15.15113,3.72663,5.51707-8.21315,5.54657,26.16445,38.7288Z" transform="translate(0.0806 -0.34332)"/>
      <path class="cls-1" d="M385.76916,412.56225l-36.312-39.14692,15.65946-14.52482,4.37722,4.719-10.3766,9.62539,10.793,11.63616,9.4918-8.803,4.32864,4.66522-9.49179,8.80476,12.285,13.24445,10.3766-9.62538,4.52643,4.88035Z" transform="translate(0.0806 -0.34332)"/>
      <path class="cls-1" d="M412.37429,386.20522l-42.63066-32.15,5.72526-7.592q6.56064-8.6998,14.01128-8.64862,7.45065.05205,19.18831,8.90539,11.768,8.87415,13.87942,16.0342,2.11315,7.15918-4.44835,15.859Zm-1.10689-9.94982,2.245-2.97887q3.65636-4.84564,1.63777-9.46056-2.01685-4.614-10.92311-11.32908-8.87415-6.69336-13.84125-7.37-4.96276-.674-8.64168,4.20027l-2.24673,2.97887Z" transform="translate(0.0806 -0.34332)"/>
    </g>
    <g>
      <path class="cls-1" d="M56.16577,230.97252-.0806,225.75906l.85532-9.24543a33.9582,33.9582,0,0,1,1.47122-7.90607,13.08459,13.08459,0,0,1,2.88866-4.745,13.22839,13.22839,0,0,1,5.67148-3.34147,19.21227,19.21227,0,0,1,7.48448-.6853q7.70568.71567,11.29611,5.57433,3.59131,4.85867,2.7915,13.48907c-.05725.6159-.10583,1.07739-.1492,1.38447-.0399.30708-.085.576-.13185.80327l24.7713,2.297ZM25.317,220.45886l.26024-2.81232q.471-5.08507-1.44693-7.43937-1.92057-2.35257-6.85124-2.81059-4.73895-.4398-7.03166,1.66033t-2.788,7.455l-.21166,2.27276Z" transform="translate(0.0806 -0.34332)"/>
      <path class="cls-1" d="M59.941,199.00647,5.39657,184.31336l5.87794-21.81672,6.57538,1.77136L13.955,178.72516,30.16788,183.092l3.56354-13.22362,6.499,1.75054-3.56181,13.22536,18.45617,4.97057L59.018,175.35766l6.79918,1.83035Z" transform="translate(0.0806 -0.34332)"/>
      <path class="cls-1" d="M67.88521,171.85137l-51.51-23.18558,9.27319-20.604,6.211,2.795-6.14685,13.65388,15.31248,6.89114,5.62116-12.488,6.13991,2.762-5.6229,12.48975,17.42909,7.84534L70.73917,148.357l6.421,2.89039Z" transform="translate(0.0806 -0.34332)"/>
      <path class="cls-1" d="M61.33239,124.4861l22.89238,15.39228-4.25231,6.32555L33.0947,114.68549l5.13886-7.64062q5.11631-7.6094,10.11116-8.93662,4.994-1.32721,11.57717,3.09685,5.19959,3.49761,6.617,7.66665a11.238,11.238,0,0,1-.99585,8.93488l30.57638,4.38069-4.55419,6.77489-30.10274-4.66869Zm-3.59651-2.41676,1.31681-1.95873q2.592-3.85415,1.86158-6.65171-.72867-2.79757-5.28806-5.86406Q51.83714,105.0497,49.351,105.591q-2.48788.5439-5.29327,4.71727L42.871,112.07442Z" transform="translate(0.0806 -0.34332)"/>
      <path class="cls-1" d="M98.66631,119.93191,57.66822,81.073l5.243-5.53268,35.887,34.015,11.23193-11.84956,5.1111,4.84392Z" transform="translate(0.0806 -0.34332)"/>
      <path class="cls-1" d="M118.02637,100.33416,83.56029,55.58,101.463,41.79422l4.15342,5.39563-11.8617,9.13439,10.24475,13.30343,10.852-8.35541,4.10658,5.33317-10.852,8.35715L119.76824,90.105l11.86344-9.1344,4.29568,5.5778Z" transform="translate(0.0806 -0.34332)"/>
      <path class="cls-1" d="M135.03908,75.40151a25.91308,25.91308,0,0,0,5.55871-.22554,13.11333,13.11333,0,0,0,4.15168-1.35324,7.51628,7.51628,0,0,0,3.89145-4.4258,7.31267,7.31267,0,0,0-.79287-5.7565q-2.38378-4.385-12.351-6.277-1.18669-.23681-1.7783-.35566a29.62081,29.62081,0,0,1-9.85439-3.38658,15.79469,15.79469,0,0,1-5.56392-6.02367,14.80567,14.80567,0,0,1-1.51112-11.28917,13.35217,13.35217,0,0,1,6.80612-8.54279,20.00762,20.00762,0,0,1,9.92206-2.48615l3.62079,6.66386a18.31635,18.31635,0,0,0-4.889.03643,12.32193,12.32193,0,0,0-4.01462,1.32375,7.9068,7.9068,0,0,0-4.058,4.6045,7.49572,7.49572,0,0,0,.78419,5.982q2.32654,4.28354,12.81418,6.15726c.64886.118,1.14852.19778,1.49724.24463a27.46953,27.46953,0,0,1,9.6011,3.32412,16.61764,16.61764,0,0,1,5.7027,6.28044,14.59963,14.59963,0,0,1,1.46949,11.37592,14.24638,14.24638,0,0,1-7.30925,8.751,17.411,17.411,0,0,1-4.549,1.67941,24.20589,24.20589,0,0,1-5.43553.53089Z" transform="translate(0.0806 -0.34332)"/>
      <path class="cls-1" d="M161.59215,61.58107a25.94371,25.94371,0,0,0,5.52228.661,13.063,13.063,0,0,0,4.31477-.67662,7.50339,7.50339,0,0,0,4.54551-3.75091,7.30359,7.30359,0,0,0,.13185-5.80854q-1.65511-4.70774-11.19549-8.16111-1.132-.42157-1.69849-.63324a29.64569,29.64569,0,0,1-9.18992-4.90985,15.81561,15.81561,0,0,1-4.53683-6.83388,14.80853,14.80853,0,0,1,.30361-11.3846,13.34622,13.34622,0,0,1,8.07782-7.35089,19.96625,19.96625,0,0,1,10.191-.87788l2.51565,7.15485a18.32947,18.32947,0,0,0-4.83351-.74082,12.29772,12.29772,0,0,0-4.17424.668,7.90886,7.90886,0,0,0-4.73809,3.90185,7.49056,7.49056,0,0,0-.177,6.02888q1.61608,4.59843,11.6726,8.11773c.62283.2186,1.10341.37821,1.43825.47884a27.40764,27.40764,0,0,1,8.9505,4.80922,16.6001,16.6001,0,0,1,4.63225,7.10626,14.60223,14.60223,0,0,1-.35739,11.46615,14.245,14.245,0,0,1-8.60872,7.4758,17.43431,17.43431,0,0,1-4.75543.93513,24.19912,24.19912,0,0,1-5.45115-.34005Z" transform="translate(0.0806 -0.34332)"/>
      <path class="cls-1" d="M207.56081,59.08278,200.17522,3.0793l7.55561-.99585,7.38733,56.00174Z" transform="translate(0.0806 -0.34332)"/>
      <path class="cls-1" d="M223.24977,56.8239,224.204.34332,231.24431.463,245.554,39.94132l.661-39.225,7.23465.12145-.95421,56.47885-7.15658-.11971L231.1142,17.4098l-.668,39.53555Z" transform="translate(0.0806 -0.34332)"/>
      <path class="cls-1" d="M260.5993,48.53788a26.11349,26.11349,0,0,0,4.40845,3.39179,13.06045,13.06045,0,0,0,4.05279,1.62389,7.51772,7.51772,0,0,0,5.82589-.90043,7.30959,7.30959,0,0,0,3.08124-4.92546q.9837-4.89249-5.44941-12.73784-.7573-.94206-1.13638-1.41223a29.62716,29.62716,0,0,1-5.39042-8.91753,15.80029,15.80029,0,0,1-.40424-8.1906,14.79842,14.79842,0,0,1,6.07919-9.63058,13.34777,13.34777,0,0,1,10.701-2.18948,19.989,19.989,0,0,1,9.20727,4.45529l-1.49551,7.43417a18.36088,18.36088,0,0,0-3.7752-3.10726,12.3156,12.3156,0,0,0-3.92788-1.5597,7.92122,7.92122,0,0,0-6.06878.93166,7.498,7.498,0,0,0-3.23391,5.092q-.96028,4.778,5.88314,12.94257.635.7599.99238,1.14679a27.42222,27.42222,0,0,1,5.23428,8.70933,16.61462,16.61462,0,0,1,.34872,8.47513,14.60679,14.60679,0,0,1-6.16767,9.67222,14.25337,14.25337,0,0,1-11.22151,2.0264,17.43868,17.43868,0,0,1-4.56633-1.6291,24.21038,24.21038,0,0,1-4.51082-3.07776Z" transform="translate(0.0806 -0.34332)"/>
      <path class="cls-1" d="M293.5213,66.92986l17.32325-46.31217-9.81969-3.67285,2.46707-6.59619L330.30871,20.38l-2.46706,6.59446-9.82143-3.67284L300.697,69.61379Z" transform="translate(0.0806 -0.34332)"/>
      <path class="cls-1" d="M334.20016,55.0109,320.319,78.85055l-6.58579-3.83419L342.1548,26.199l7.95812,4.634q7.92428,4.61145,9.5716,9.51261,1.6447,4.89771-2.34389,11.75241-3.15409,5.41557-7.22251,7.09932a11.24174,11.24174,0,0,1-8.98172-.41638l-2.3942,30.79671L331.688,85.4693l2.71169-30.34216Zm2.17907-3.74571,2.04027,1.18843q4.01289,2.33694,6.75755,1.42784,2.74553-.91083,5.51013-5.6576,2.29532-3.94523,1.5944-6.39147-.70265-2.44626-5.05038-4.97578l-1.839-1.07218Z" transform="translate(0.0806 -0.34332)"/>
      <path class="cls-1" d="M350.60911,79.87763l27.25225-31.21657,5.65413,4.93761L355.85727,85.28019q-2.67267,3.06042-2.57464,5.71312.09629,2.65445,2.92509,5.12151,2.8262,2.46707,5.45461,2.193,2.62582-.27326,5.29848-3.3328l27.66-31.68152,5.68362,4.96189L373.05214,99.47017q-5.39477,6.17808-10.57092,6.66559-5.17876.48925-11.00638-4.601-5.82936-5.08768-6.04449-10.28292Q345.21435,86.05483,350.60911,79.87763Z" transform="translate(0.0806 -0.34332)"/>
      <path class="cls-1" d="M366.63117,113.86313l48.26917-29.73666L419,89.65915l-26.87231,29.44,36.10733-16.9728,3.96084,5.347L389.73,145.04673l-4.19158-5.65933,30.47748-25.4167-36.32766,17.521-3.06215-4.13433L403.97029,97.711,370.77591,119.46Z" transform="translate(0.0806 -0.34332)"/>
      <path class="cls-1" d="M391.54474,149.77268l51.03291-24.2196,9.68784,20.41143-6.15206,2.91988-6.421-13.52723-15.16847,7.2,5.87273,12.37351-6.08266,2.88692L418.44133,145.444l-17.266,8.1958,6.41924,13.52724-6.362,3.01877Z" transform="translate(0.0806 -0.34332)"/>
      <path class="cls-1" d="M403.36827,175.3594l54.58605-14.53349,1.81126,6.80612-34.05837,24.56138,37.91165-10.09382,1.86158,6.99176-54.58778,14.5335-1.84076-6.91716,34.3776-24.56658L405.21944,182.313Z" transform="translate(0.0806 -0.34332)"/>
      <path class="cls-1" d="M412.24764,217.38977l49.29451-3.8793-.82409-10.45294,7.02125-.55171,2.24673,28.543-7.02125.5517-.82236-10.45294-49.29277,3.87757Z" transform="translate(0.0806 -0.34332)"/>
    </g>
    <path class="cls-1" d="M35.02846,282.46826a4.37936,4.37936,0,1,0,4.37952,4.37938A4.38432,4.38432,0,0,0,35.02846,282.46826Z" transform="translate(0.0806 -0.34332)"/>
    <circle class="cls-1" cx="434.72551" cy="286.50431" r="4.37934"/>
  </g>
</svg>
