<svg id="Layer_1" data-name="Layer 1" xmlns="http://www.w3.org/2000/svg" viewBox="0 0 463.05248 463.05268">
  <defs>
    <style>
      .loader__logo__outline-path {
        display: block;
        fill: none;
        <!-- width: 100%;
        height: 100%; -->
        stroke: #fcfcfc;
        stroke-miterlimit: 5;
        stroke-dasharray: 2000;
        stroke-dashoffset: 2000;
        -webkit-animation: loaderLogoOutline 1.42s linear forwards 1s;
        -o-animation: loaderLogoOutline 1.42s linear forwards 1s;
        -moz-animation: loaderLogoOutline 1.42s linear forwards 1s;
        animation: loaderLogoOutline 1.42s linear forwards 1s;
      }

      @-webkit-keyframes loaderLogoOutline {
        from {
          stroke-dashoffset: 2000;
        }

        to {
          stroke-dashoffset: 0;
        }
      }

      @-o-keyframes loaderLogoOutline {
        from {
          stroke-dashoffset: 2000;
        }

        to {
          stroke-dashoffset: 0;
        }
      }

      @-moz-keyframes loaderLogoOutline {
        from {
          stroke-dashoffset: 2000;
        }

        to {
          stroke-dashoffset: 0;
        }
      }

      @keyframes loaderLogoOutline {
        from {
          stroke-dashoffset: 2000;
        }

        to {
          stroke-dashoffset: 0;
        }
      }
    </style>
  </defs>
  <title>logo-outline</title>
  <g id="gear">
    <path class="loader__logo__outline-path" d="M462.38975,211.46431c-21.02127-20.94783-33.38031-20.94783-33.38031-20.94783H413.327a.62572.62572,0,0,1-.60443-.46388l-3.52611-13.16a.62579.62579,0,0,1,.29162-.704l13.58129-7.84121s10.70331-6.17949,18.43437-34.83144a.64135.64135,0,0,0-.06194-.48379l-9.81531-17.00061L421.8112,99.031a.64073.64073,0,0,0-.388-.29548c-28.67874-7.63064-39.382-1.45116-39.382-1.45116l-13.58129,7.84122a.62594.62594,0,0,1-.75553-.09949l-9.63377-9.6339a.6259.6259,0,0,1-.09949-.75546l7.84128-13.58136s6.17952-10.70321-1.45112-39.38208a.64153.64153,0,0,0-.29551-.388L347.06516,31.47l-17.00054-9.81528a.64084.64084,0,0,0-.48375-.06188c-28.65206,7.731-34.83157,18.43428-34.83157,18.43428l-7.84115,13.58132a.62571.62571,0,0,1-.70391.29159L273.04409,50.3738a.62583.62583,0,0,1-.46391-.60453V34.08685s0-12.359-20.9478-33.38028a.64079.64079,0,0,0-.44983-.18828H211.92131a.64078.64078,0,0,0-.44983.18828c-20.9478,21.02131-20.9478,33.38028-20.9478,33.38028V49.76927a.62583.62583,0,0,1-.46391.60453l-13.16015,3.52611a.62577.62577,0,0,1-.70391-.29162L168.35456,40.027S162.175,29.32376,133.523,21.5927a.64093.64093,0,0,0-.48375.06187l-17.00041,9.81528L99.03815,41.28512a.64157.64157,0,0,0-.29551.388C91.112,70.352,97.29151,81.05525,97.29151,81.05525l7.84128,13.58133a.62593.62593,0,0,1-.09948.75549l-9.6339,9.63367a.62588.62588,0,0,1-.75553.09945L81.06259,97.284S70.35941,91.1045,41.68041,98.73524a.64111.64111,0,0,0-.388.29547l-9.81518,17.00055L21.6619,133.03187a.6414.6414,0,0,0-.06194.48379c7.7312,28.652,18.43424,34.83144,18.43424,34.83144l13.58143,7.84121a.626.626,0,0,1,.29162.704L50.381,190.05224a.62572.62572,0,0,1-.60443.46387H34.094s-12.3589,0-33.38017,20.9478a.641.641,0,0,0-.18832.44993V251.175a.64086.64086,0,0,0,.18832.4499C21.73511,272.57268,34.094,272.57268,34.094,272.57268H49.77657a.62573.62573,0,0,1,.60443.46388l3.52611,13.16a.62579.62579,0,0,1-.29162.704L40.0342,294.74176s-10.70331,6.17949-18.43437,34.83154a.641.641,0,0,0,.06194.48379l9.81531,17.00051,9.81517,17.00061a.64126.64126,0,0,0,.388.29548c28.67886,7.63067,39.38217,1.45115,39.38217,1.45115l13.58129-7.84117a.62587.62587,0,0,1,.75553.09945L105.033,367.697a.62568.62568,0,0,1,.09935.75546l-7.84115,13.58143s-6.17951,10.70314,1.45113,39.382a.64153.64153,0,0,0,.29551.388l17.00041,9.81527,17.00068,9.81528a.64091.64091,0,0,0,.48375.06191c28.65192-7.73107,34.83144-18.43421,34.83144-18.43421l7.84128-13.58142a.62575.62575,0,0,1,.70391-.29159l13.16015,3.52632a.62571.62571,0,0,1,.46378.60452v15.68243s0,12.359,20.9478,33.38028a.64121.64121,0,0,0,.45.18831h39.2611a.64124.64124,0,0,0,.45-.18831c20.9478-21.02131,20.9478-33.38028,20.9478-33.38028V413.32a.62583.62583,0,0,1,.46391-.60452l13.16-3.52618a.62588.62588,0,0,1,.704.29162l7.84115,13.58139s6.17951,10.70324,34.83157,18.43427a.64092.64092,0,0,0,.48375-.06187l17.00041-9.81528,17.00068-9.81528a.64094.64094,0,0,0,.29538-.388c7.63077-28.67887,1.45112-39.38211,1.45112-39.38211l-7.84114-13.58139a.62593.62593,0,0,1,.09948-.75549l9.6339-9.63367a.62588.62588,0,0,1,.75553-.09945l13.58129,7.84121s10.703,6.17948,39.382-1.45119a.64086.64086,0,0,0,.388-.29548l9.81531-17.00061,9.8153-17.00051a.64071.64071,0,0,0,.06181-.48379c-7.7312-28.652-18.43424-34.83147-18.43424-34.83147L409.488,286.90092a.62575.62575,0,0,1-.29162-.704l3.52612-13.16a.626.626,0,0,1,.60456-.46387h15.68242s12.359,0,33.38031-20.9478a.64118.64118,0,0,0,.18825-.44993V211.91421A.64116.64116,0,0,0,462.38975,211.46431Zm-4.7843,37.625a.63963.63963,0,0,1-.19468.45553c-17.59961,17.03353-28.0491,18.02142-28.50846,18.05631-.01649.00124-.02319.001-.03995.001l-19.35174-.00238a.62465.62465,0,0,0-.60335.46287L403.404,288.5968a.62453.62453,0,0,0,.29109.70254l16.8607,9.73359a.51886.51886,0,0,1,.04652.02963c.45962.32909,8.89782,6.5309,15.54916,29.82242a.64034.64034,0,0,1-.05913.49186l-17.54571,30.3888a.63873.63873,0,0,1-.3958.29755,92.60329,92.60329,0,0,1-22.117,3.13082c-7.84382,0-11.35693-1.63049-11.59988-1.7479-.01422-.00684-.02012-.0105-.03379-.01834l-16.76041-9.679a.6245.6245,0,0,0-.75392.09922l-15.032,15.032a.62472.62472,0,0,0-.09922.75388l9.7346,16.85913a.53314.53314,0,0,1,.02588.05c.23584.52153,4.43838,10.11309-1.44469,33.60107a.64039.64039,0,0,1-.29712.3964l-30.3893,17.5447a.64038.64038,0,0,1-.49193.05916c-23.54422-6.7237-29.62787-15.27657-29.89094-15.6605a.40115.40115,0,0,1-.02131-.03466l-9.67332-16.76a.62461.62461,0,0,0-.70257-.291l-20.53417,5.50208a.62456.62456,0,0,0-.46284.60326v19.46932a.48991.48991,0,0,1-.00215.05252c-.052.54325-1.1894,10.95551-18.05278,28.37844a.64019.64019,0,0,1-.45547.19468H214.007a.64006.64006,0,0,1-.45547-.19468c-17.03353-17.59978-18.02141-28.04928-18.05641-28.50846-.0012-.01662-.00093-.0233-.00093-.03995l.00227-19.35184a.62432.62432,0,0,0-.46283-.60332l-20.534-5.50326a.62453.62453,0,0,0-.70257.291l-9.73392,16.86123a.46307.46307,0,0,1-.02856.045c-.31964.448-6.51337,8.89419-29.82322,15.55019a.63981.63981,0,0,1-.4918-.05916l-30.3893-17.5447a.63993.63993,0,0,1-.29712-.3964c-5.95118-23.75962-1.58185-33.30312-1.38288-33.71712.00724-.015.01073-.02061.019-.035l9.67828-16.75927a.62436.62436,0,0,0-.09921-.75392l-15.032-15.032a.62442.62442,0,0,0-.75378-.09925L78.576,361.49786l.0012-.00124c-.01206,0-3.5052,1.69739-11.50884,1.69739a92.58676,92.58676,0,0,1-22.11562-3.13078.63848.63848,0,0,1-.3958-.29756L27.01121,329.37688a.64046.64046,0,0,1-.05913-.4919c6.72361-23.54432,15.27657-29.62794,15.66044-29.891.01394-.00955.02011-.01283.03473-.02128l16.76-9.67336a.6245.6245,0,0,0,.29108-.70253l-5.50216-20.5341a.62444.62444,0,0,0-.60321-.46291H34.12431a.50661.50661,0,0,1-.0547-.00234c-.56165-.05487-10.97133-1.20687-28.37692-18.05256a.64017.64017,0,0,1-.19469-.45553v-35.09a.64019.64019,0,0,1,.19469-.45557c17.91026-17.33343,28.4158-18.05067,28.52347-18.05611l19.37681.00178a.62465.62465,0,0,0,.60335-.46287L59.69955,174.493a.62472.62472,0,0,0-.29109-.70254l-16.8607-9.73479a.51.51,0,0,1-.04652-.0296c-.45936-.32893-8.89782-6.53057-15.54916-29.82185a.64034.64034,0,0,1,.05913-.49186l17.54571-30.3888a.63832.63832,0,0,1,.3958-.29755,92.59389,92.59389,0,0,1,22.11682-3.13079c8.0971,0,11.57937,1.738,11.6133,1.75565l16.78079,9.68961a.62476.62476,0,0,0,.75405-.09925l15.032-15.03141a.62476.62476,0,0,0,.09921-.75392L101.61432,78.5962a.50234.50234,0,0,1-.02588-.04995c-.23584-.52132-4.43851-10.11229,1.44469-33.6005a.63985.63985,0,0,1,.29712-.39636l30.3893-17.54531a.64.64,0,0,1,.4918-.05919c23.54837,6.72484,29.63015,15.27948,29.8912,15.66127a.3913.3913,0,0,1,.02105.03432l9.67345,16.76022a.62464.62464,0,0,0,.70257.29108l20.534-5.50209a.62456.62456,0,0,0,.463-.60328V34.11712a.45872.45872,0,0,1,.00214-.05256c.052-.54329,1.18954-10.955,18.05279-28.3784a.6399.6399,0,0,1,.45547-.19468h35.0894a.64022.64022,0,0,1,.4556.19468c17.03285,17.599,18.02128,28.04837,18.05627,28.50782.00121.01662.00107.02333.00107.04L267.607,53.58637a.62459.62459,0,0,0,.463.60332l20.534,5.50209a.62461.62461,0,0,0,.70257-.291l9.73379-16.86067a.4925.4925,0,0,1,.02855-.045c.31978-.448,6.51364-8.89363,29.82323-15.55019a.64021.64021,0,0,1,.49193.05919l30.3893,17.54531a.64031.64031,0,0,1,.29712.39636c5.95118,23.759,1.58185,33.30245,1.38288,33.71651-.00724.015-.01073.02062-.019.035L351.756,95.45593a.62422.62422,0,0,0,.09921.754l15.03188,15.032a.62455.62455,0,0,0,.75392.09925l16.88658-9.75031-.00134.00121c.0122,0,3.50534-1.69676,11.50764-1.69676a92.60673,92.60673,0,0,1,22.117,3.13139.63873.63873,0,0,1,.3958.29755l17.54571,30.3888a.64036.64036,0,0,1,.05913.49186c-6.84428,23.96623-15.58375,29.84039-15.67318,29.89845l-16.78213,9.68723a.62442.62442,0,0,0-.29095.70253l5.502,20.53353a.62472.62472,0,0,0,.60335.46287h19.46865a.49667.49667,0,0,1,.05471.00238c.56165.05488,10.97119,1.20681,28.37679,18.05192a.63965.63965,0,0,1,.19468.45557Z" transform="translate(-0.02552 -0.01829)"/>
  </g>
</svg>
