<svg id="Layer_1" data-name="Layer 1" xmlns="http://www.w3.org/2000/svg" viewBox="0 0 472 472">
  <defs>
    <style>
      .cls-1 {
        fill: none;
        stroke: #fcfcfc;
        stroke-miterlimit: 5;
        stroke-dasharray: 1000;
        stroke-dashoffset: 1000;
        transform: scale(0.99) rotate(0.01deg);
        -webkit-animation: loaderLogoInner 2.24s linear forwards;
        -o-animation: loaderLogoInner 2.24s linear forwards;
        -moz-animation: loaderLogoInner 2.24s linear forwards;
        animation: loaderLogoInner 2.24s linear forwards;
      }

      @-webkit-keyframes loaderLogoInner {
        from {
          stroke-dashoffset: 1000;
        }

        to {
          stroke-dashoffset: 0;
        }
      }
    </style>
  </defs>
  <title>logo-outline-inner</title>
  <g id="shield">
    <path class="cls-1" d="M235.89222,132.26008h-104.977l14.25249,15.91808V344.68475a71.84279,71.84279,0,0,0,39.46922,18.11372c41.08293,4.67458,51.25528,24.70057,51.25528,24.70057s10.17235-20.026,51.25511-24.70057a71.84274,71.84274,0,0,0,39.46921-18.11372V148.17816l14.2525-15.91808Zm84.16593,209.18137c-4.54426,3.7614-16.82513,12.61723-33.64228,14.53088-18.18413,2.06965-33.04642,7.22362-44.16892,15.32046a53.16417,53.16417,0,0,0-6.38045,5.429c-7.26085-7.23969-22.25955-17.5364-50.4997-20.74942a65.772,65.772,0,0,1-33.64069-14.51317V145.37686h168.332Z" transform="translate(-0.45607 -1.72886)"/>
    <polygon class="cls-1" points="170.016 324.842 229.298 288.508 215.3 275.029 271.765 238.428 257.291 222.472 297.448 172.52 239.526 221.162 251.939 235.92 193.893 273.383 209.537 287.174 170.016 324.842"/>
  </g>
  <g id="text">
    <g>
      <path class="cls-1" d="M40.63443,363.70957l44.32221-29.77484,4.0181,5.9803L44.65253,369.68986Z" transform="translate(-0.45607 -1.72886)"/>
      <path class="cls-1" d="M54.27617,383.19108,93.8256,347.3197l4.47264,4.92893-17.96,35.39774,27.46739-24.91357,4.59582,5.066L72.85031,403.67017l-4.54551-5.01048,18.22542-35.54L58.846,388.22931Z" transform="translate(-0.45607 -1.72886)"/>
      <path class="cls-1" d="M104.50061,428.12745a15.4269,15.4269,0,0,1-7.07157-3.11073q-6.48255-5.0096-5.60035-12.78815.88221-7.776,9.13614-18.45443,8.41092-10.878,16.15565-13.81177a14.10194,14.10194,0,0,1,14.45889,2.25541,16.17175,16.17175,0,0,1,2.55381,2.43584,15.46587,15.46587,0,0,1,1.839,2.76374l-4.18292,5.40951a15.27307,15.27307,0,0,0-1.6343-2.69782,10.6108,10.6108,0,0,0-1.87546-1.91015,8.808,8.808,0,0,0-9.70171-1.14332q-5.15795,2.36817-11.86865,11.048-6.264,8.10124-7.28843,13.5255a8.18394,8.18394,0,0,0,3.11073,8.62259,9.90336,9.90336,0,0,0,2.703,1.466,17.87521,17.87521,0,0,0,3.56181.8345Z" transform="translate(-0.45607 -1.72886)"/>
      <path class="cls-1" d="M127.23164,412.84967q6.79745-12.99634,12.9096-17.00056,6.11562-4.00248,13.26873-.262,7.12014,3.724,7.31793,10.989.20039,7.26588-6.6309,20.32469-6.79745,12.99634-12.8697,16.95892-6.07137,3.966-13.19239.23942-7.154-3.73964-7.37691-10.99771Q120.43419,425.84341,127.23164,412.84967Zm6.51639,3.24258q-5.25423,10.04784-5.78252,15.03142-.52828,4.98618,3.28769,6.98309,3.78127,1.97781,7.38386-1.13118,3.60431-3.10986,9.07887-13.57754,5.34012-10.20919,5.85712-15.05571.51528-4.84566-3.26513-6.82521-3.81771-1.996-7.5348,1.21792Q139.05171,405.949,133.748,416.09225Z" transform="translate(-0.45607 -1.72886)"/>
      <path class="cls-1" d="M172.14546,433.79893l-7.53653,24.96388-6.89634-2.08365,15.43392-51.11445,8.33113,2.51564q8.299,2.50352,10.88667,6.64825,2.58938,4.143.42159,11.32041-1.71237,5.67321-5.08508,8.11078a10.62325,10.62325,0,0,1-8.34847,1.58573L183.8996,464.587l-7.38733-2.23111-4.15515-28.49273Zm1.18495-3.92094,2.1357.6454q4.20025,1.26736,6.5268-.16829,2.32394-1.43913,3.82552-6.40883,1.24654-4.13259.06592-6.22665-1.18409-2.09493-5.73393-3.46986l-1.92577-.5812Z" transform="translate(-0.45607 -1.72886)"/>
      <path class="cls-1" d="M197.5049,467.0176l6.13644-53.04022,8.718,1.008a32.10838,32.10838,0,0,1,7.44111,1.5597,11.793,11.793,0,0,1,7.45672,8.26346,18.14675,18.14675,0,0,1,.48578,7.08718q-.84059,7.26588-5.5084,10.55531-4.6713,3.28942-12.80724,2.34735c-.5812-.06766-1.01667-.12318-1.3064-.17-.28973-.04511-.5413-.09195-.75643-.14226l-2.703,23.35907Zm10.59868-28.92646,2.6527.30708q4.79361.55431,7.06116-1.20751,2.26408-1.76181,2.80365-6.41229.51526-4.47091-1.41918-6.68121-1.93358-2.212-6.98308-2.7967l-2.14437-.24636Z" transform="translate(-0.45607 -1.72886)"/>
      <path class="cls-1" d="M235.66291,443.79038q-1.05137-14.62545,2.042-21.24766,3.09425-6.62049,11.14692-7.2,8.01276-.57772,12.004,5.498,3.98946,6.074,5.0469,20.774,1.054,14.628-2.02639,21.19215-3.08124,6.56583-11.09487,7.1427-8.05181.57773-12.05949-5.47544Q236.71689,458.41844,235.66291,443.79038Zm7.24853-.668q.81456,11.31,2.98581,15.82775,2.173,4.51776,6.46782,4.20894,4.25751-.30708,5.68709-4.84566,1.42872-4.53857.5812-16.3222-.82755-11.48957-2.9355-15.885t-6.36718-4.08923q-4.29394.30969-5.7669,4.99833Q242.09083,431.70487,242.91144,443.12243Z" transform="translate(-0.45607 -1.72886)"/>
      <path class="cls-1" d="M284.86721,437.99919l6.70723,25.1981-6.96226,1.85464L270.875,413.45343l8.41266-2.2398q8.3745-2.23025,12.75519-.06419,4.37984,2.16259,6.3082,9.40852,1.525,5.72526-.06245,9.57333a10.6316,10.6316,0,0,1-6.2683,5.73741l19.027,22.14462-7.45672,1.98476-18.51169-22.05441Zm-1.05484-3.95737,2.15652-.57426q4.2393-1.12944,5.46329-3.57395,1.22313-2.44365-.11451-7.46366-1.10862-4.169-3.21655-5.33144-2.10793-1.16067-6.7003.06246l-1.94485.517Z" transform="translate(-0.45607 -1.72886)"/>
      <path class="cls-1" d="M320.07584,454.7239l-11.3499-53.65266,6.126-2.873,33.99766,43.02969-6.58926,3.08991-6.77489-8.4144L324.46,441.07348l2.20509,10.55878Zm-2.415-42.615,5.44421,22.97565,8.7076-4.084Z" transform="translate(-0.45607 -1.72886)"/>
      <path class="cls-1" d="M362.91642,432.14554,336.752,393.41674l-8.21315,5.5483-3.72662-5.51533,22.42568-15.15113,3.72662,5.51707-8.21315,5.54656L368.91581,428.091Z" transform="translate(-0.45607 -1.72886)"/>
      <path class="cls-1" d="M386.84976,414.45622l-36.312-39.14692,15.65946-14.52482,4.37723,4.719-10.37661,9.62538,10.793,11.63617,9.49179-8.803,4.32865,4.66522-9.49179,8.80476,12.285,13.24445,10.37661-9.62539,4.52642,4.88036Z" transform="translate(-0.45607 -1.72886)"/>
      <path class="cls-1" d="M413.45488,388.09919l-42.63065-32.15,5.72526-7.592q6.56063-8.69981,14.01128-8.64862,7.45065.05205,19.18831,8.90539,11.768,8.87415,13.87942,16.0342,2.11314,7.15918-4.44836,15.859Zm-1.10688-9.94982,2.245-2.97887q3.65637-4.84565,1.63778-9.46056-2.01686-4.614-10.92311-11.32908-8.87417-6.69336-13.84126-7.37-4.96276-.674-8.64168,4.20026L380.578,354.19Z" transform="translate(-0.45607 -1.72886)"/>
    </g>
    <g>
      <path class="cls-1" d="M57.24637,232.86649,1,227.653l.85532-9.24543a33.95809,33.95809,0,0,1,1.47122-7.90607,13.0847,13.0847,0,0,1,2.88865-4.745,13.22845,13.22845,0,0,1,5.67148-3.34147,19.21193,19.21193,0,0,1,7.48448-.6853q7.70569.71567,11.29612,5.57433,3.5913,4.85867,2.7915,13.48906c-.05725.6159-.10583,1.07739-.1492,1.38448-.03991.30708-.085.576-.13186.80327l24.77131,2.297ZM26.39761,222.35282l.26024-2.81231q.471-5.08507-1.44693-7.43938-1.92056-2.35256-6.85123-2.81058-4.73895-.4398-7.03166,1.66033t-2.788,7.455l-.21166,2.27276Z" transform="translate(-0.45607 -1.72886)"/>
      <path class="cls-1" d="M61.02157,200.90044,6.47717,186.20733l5.87793-21.81672,6.57538,1.77136-3.89491,14.45716,16.2129,4.36681L34.812,171.76232l6.499,1.75054-3.56181,13.22536,18.45616,4.97057,3.89318-14.45716,6.79919,1.83035Z" transform="translate(-0.45607 -1.72886)"/>
      <path class="cls-1" d="M68.96581,173.74534l-51.51-23.18558,9.27319-20.604,6.21105,2.795-6.14685,13.65388,15.31247,6.89113,5.62117-12.488,6.13991,2.762-5.6229,12.48974,17.42909,7.84535L71.81977,150.251l6.421,2.89039Z" transform="translate(-0.45607 -1.72886)"/>
      <path class="cls-1" d="M62.413,126.38007l22.89237,15.39228-4.2523,6.32555L34.1753,116.57946l5.13885-7.64062q5.11631-7.6094,10.11116-8.93662,4.994-1.32721,11.57718,3.09685,5.19958,3.49761,6.617,7.66665a11.23805,11.23805,0,0,1-.99585,8.93488L97.2,124.08129l-4.55418,6.77489-30.10274-4.66869Zm-3.59651-2.41676,1.31681-1.95873q2.592-3.85415,1.86158-6.65171-.72867-2.79757-5.28806-5.86406-3.78909-2.54514-6.27524-2.00384-2.48789.5439-5.29326,4.71727l-1.18669,1.76615Z" transform="translate(-0.45607 -1.72886)"/>
      <path class="cls-1" d="M99.74691,121.82588,58.74882,82.967l5.243-5.53268,35.887,34.015,11.23193-11.84956,5.11109,4.84392Z" transform="translate(-0.45607 -1.72886)"/>
      <path class="cls-1" d="M119.107,102.22813,84.64089,57.47393l17.90272-13.78574,4.15342,5.39562-11.86171,9.1344,10.24476,13.30343,10.852-8.35541,4.10658,5.33317-10.852,8.35714L120.84884,91.999l11.86344-9.1344,4.29568,5.57779Z" transform="translate(-0.45607 -1.72886)"/>
      <path class="cls-1" d="M136.11968,77.29548a25.913,25.913,0,0,0,5.5587-.22554,13.11339,13.11339,0,0,0,4.15169-1.35324,7.51628,7.51628,0,0,0,3.89144-4.42581,7.31264,7.31264,0,0,0-.79286-5.75649q-2.38378-4.385-12.351-6.277-1.18669-.23682-1.77831-.35566a29.62089,29.62089,0,0,1-9.85439-3.38658,15.79466,15.79466,0,0,1-5.56391-6.02367A14.80562,14.80562,0,0,1,117.87,38.20235a13.35214,13.35214,0,0,1,6.80612-8.54279,20.00755,20.00755,0,0,1,9.922-2.48615l3.6208,6.66386a18.31593,18.31593,0,0,0-4.889.03643,12.32169,12.32169,0,0,0-4.01462,1.32375,7.9068,7.9068,0,0,0-4.058,4.6045,7.49568,7.49568,0,0,0,.78419,5.982q2.32653,4.28354,12.81418,6.15726c.64886.118,1.14852.19778,1.49724.24463A27.4692,27.4692,0,0,1,149.954,55.51a16.61767,16.61767,0,0,1,5.70271,6.28044,14.59963,14.59963,0,0,1,1.46949,11.37592,14.24636,14.24636,0,0,1-7.30926,8.751,17.4108,17.4108,0,0,1-4.549,1.67941,24.206,24.206,0,0,1-5.43553.53089Z" transform="translate(-0.45607 -1.72886)"/>
      <path class="cls-1" d="M162.67275,63.475a25.94364,25.94364,0,0,0,5.52228.661,13.06285,13.06285,0,0,0,4.31476-.67662,7.50336,7.50336,0,0,0,4.54552-3.75092A7.30356,7.30356,0,0,0,177.18716,53.9q-1.65511-4.70773-11.19549-8.16111-1.132-.42159-1.6985-.63325a29.64542,29.64542,0,0,1-9.18991-4.90984,15.81571,15.81571,0,0,1-4.53684-6.83388A14.80862,14.80862,0,0,1,150.87,21.9773a13.34624,13.34624,0,0,1,8.07783-7.35089,19.96625,19.96625,0,0,1,10.191-.87788l2.51564,7.15485a18.32935,18.32935,0,0,0-4.83351-.74082,12.29766,12.29766,0,0,0-4.17423.668,7.90886,7.90886,0,0,0-4.73809,3.90185,7.49052,7.49052,0,0,0-.177,6.02888q1.61608,4.59843,11.67259,8.11773c.62284.2186,1.10342.37821,1.43826.47884A27.40748,27.40748,0,0,1,179.793,44.167a16.60012,16.60012,0,0,1,4.63226,7.10626,14.60216,14.60216,0,0,1-.3574,11.46614,14.245,14.245,0,0,1-8.60871,7.47581,17.43438,17.43438,0,0,1-4.75544.93513,24.19907,24.19907,0,0,1-5.45114-.34Z" transform="translate(-0.45607 -1.72886)"/>
      <path class="cls-1" d="M208.64141,60.97675,201.25582,4.97327l7.55561-.99585,7.38732,56.00174Z" transform="translate(-0.45607 -1.72886)"/>
      <path class="cls-1" d="M224.33036,58.71787l.95421-56.48059,7.04034.11971L246.6346,41.83528l.661-39.225,7.23465.12145-.95421,56.47885-7.15658-.11971L232.19479,19.30377l-.668,39.53555Z" transform="translate(-0.45607 -1.72886)"/>
      <path class="cls-1" d="M261.6799,50.43185a26.1131,26.1131,0,0,0,4.40845,3.39179,13.06069,13.06069,0,0,0,4.05279,1.62389,7.51772,7.51772,0,0,0,5.82589-.90043,7.30958,7.30958,0,0,0,3.08123-4.92546q.9837-4.89249-5.44941-12.73784-.75729-.94206-1.13638-1.41223a29.62757,29.62757,0,0,1-5.39042-8.91753,15.80051,15.80051,0,0,1-.40424-8.1906A14.79845,14.79845,0,0,1,272.747,8.73286a13.34779,13.34779,0,0,1,10.701-2.18948,19.98892,19.98892,0,0,1,9.20726,4.45529l-1.4955,7.43417a18.36118,18.36118,0,0,0-3.77521-3.10726,12.31519,12.31519,0,0,0-3.92788-1.5597,7.9212,7.9212,0,0,0-6.06877.93166,7.498,7.498,0,0,0-3.23391,5.092q-.96028,4.778,5.88314,12.94257.635.7599.99238,1.14678a27.42236,27.42236,0,0,1,5.23428,8.70934,16.61462,16.61462,0,0,1,.34872,8.47513,14.60679,14.60679,0,0,1-6.16767,9.67222,14.25339,14.25339,0,0,1-11.22152,2.0264,17.4388,17.4388,0,0,1-4.56633-1.6291,24.21065,24.21065,0,0,1-4.51081-3.07776Z" transform="translate(-0.45607 -1.72886)"/>
      <path class="cls-1" d="M294.60189,68.82383l17.32326-46.31218-9.81969-3.67284,2.46707-6.5962L331.38931,22.274l-2.46707,6.59446-9.82143-3.67284L301.77756,71.50776Z" transform="translate(-0.45607 -1.72886)"/>
      <path class="cls-1" d="M335.28075,56.90487,321.39959,80.74452l-6.58578-3.83419L343.2354,28.09292l7.95811,4.634q7.92429,4.61144,9.5716,9.51261,1.64472,4.89771-2.34388,11.75241-3.15411,5.41557-7.22251,7.09932a11.24174,11.24174,0,0,1-8.98172-.41638l-2.3942,30.79671-7.05422-4.10831,2.71169-30.34216Zm2.17907-3.74571,2.04028,1.18843q4.01289,2.33694,6.75754,1.42784,2.74552-.91083,5.51014-5.6576,2.2953-3.94523,1.59439-6.39147-.70265-2.44626-5.05037-4.97578l-1.839-1.07218Z" transform="translate(-0.45607 -1.72886)"/>
      <path class="cls-1" d="M351.6897,81.7716,378.942,50.555l5.65413,4.93761L356.93786,87.17416q-2.67265,3.06042-2.57463,5.71312.09629,2.65444,2.92509,5.12151,2.8262,2.46706,5.45461,2.19295,2.62581-.27326,5.29847-3.3328l27.66-31.68152,5.68363,4.96189-27.25226,31.21483q-5.39475,6.17808-10.57091,6.66559-5.17876.48926-11.00639-4.601-5.82936-5.08767-6.04449-10.28291Q346.29494,87.9488,351.6897,81.7716Z" transform="translate(-0.45607 -1.72886)"/>
      <path class="cls-1" d="M367.71177,115.7571l48.26917-29.73666,4.09963,5.53268-26.8723,29.44,36.10732-16.97281,3.96085,5.34705L390.8106,146.9407l-4.19159-5.65933,30.47749-25.4167-36.32766,17.521-3.06215-4.13433,27.3442-29.64646L371.85651,121.354Z" transform="translate(-0.45607 -1.72886)"/>
      <path class="cls-1" d="M392.62533,151.66665l51.03292-24.2196,9.68783,20.41143-6.152,2.91988-6.421-13.52723-15.16848,7.2,5.87274,12.37351-6.08266,2.88692L419.52193,147.338l-17.266,8.1958,6.41923,13.52724-6.362,3.01877Z" transform="translate(-0.45607 -1.72886)"/>
      <path class="cls-1" d="M404.44887,177.25337l54.586-14.5335,1.81127,6.80613L426.7878,194.08738l37.91165-10.09382,1.86158,6.99176-54.58778,14.5335-1.84076-6.91716,34.37761-24.56658L406.3,184.207Z" transform="translate(-0.45607 -1.72886)"/>
      <path class="cls-1" d="M413.32823,219.28374l49.29452-3.8793-.8241-10.45294,7.02126-.55171,2.24673,28.543-7.02125.5517-.82236-10.45294-49.29278,3.87757Z" transform="translate(-0.45607 -1.72886)"/>
    </g>
    <path class="cls-1" d="M36.10906,284.36223a4.37936,4.37936,0,1,0,4.37952,4.37938A4.38431,4.38431,0,0,0,36.10906,284.36223Z" transform="translate(-0.45607 -1.72886)"/>
    <circle class="cls-1" cx="435.26943" cy="287.01274" r="4.37934"/>
  </g>
</svg>
