<svg xmlns="http://www.w3.org/2000/svg" viewBox="0 0 472 472">
  <defs>
    <style>
      .cls-1 {
        fill: #fff;
      }

      .cls-2 {
        fill: none;
        stroke: #fff;
        stroke-miterlimit: 10;
      }
    </style>
  </defs>
  <title>peerless-logo-outline</title>
  <g id="Logo">
    <g id="gear">
      <path class="cls-1" d="M255.63077,4.93413a.64067.64067,0,0,1,.44983.18829c20.94782,21.02129,20.94782,33.3803,20.94782,33.3803V54.18513a.6258.6258,0,0,0,.46386.60453l13.16016,3.52623a.62531.62531,0,0,0,.70392-.29159L299.19754,44.443s6.17951-10.70324,34.83155-18.4343a.64187.64187,0,0,1,.48376.06189l17.00055,9.81529L368.514,45.70113a.64139.64139,0,0,1,.29547.388c7.63068,28.67889,1.45117,39.38206,1.45117,39.38206L362.41928,99.0526a.62588.62588,0,0,0,.09949.75547l9.63379,9.63388a.62585.62585,0,0,0,.75549.09953l13.5813-7.84124s4.09082-2.36227,13.99292-2.36214c6.11328.00008,14.44208.9006,25.3891,3.81332a.64077.64077,0,0,1,.38806.29547l9.81531,17.00053,9.81531,17.00059a.64145.64145,0,0,1,.062.48383c-7.73108,28.65193-18.43439,34.8314-18.43439,34.8314l-13.5813,7.84124a.62586.62586,0,0,0-.29162.704l3.52612,13.16a.62577.62577,0,0,0,.60443.46388h15.68244s12.359,0,33.38031,20.94783a.64106.64106,0,0,1,.18823.44987v39.26113a.64128.64128,0,0,1-.18823.44995C445.81668,276.989,433.45768,276.989,433.45768,276.989H417.77524a.626.626,0,0,0-.60455.46381l-3.52612,13.16a.62572.62572,0,0,0,.29162.704l13.5813,7.84125s10.703,6.17947,18.4342,34.83145a.64041.64041,0,0,1-.06176.48377l-9.81531,17.00055-9.81531,17.00058a.64092.64092,0,0,1-.38806.29547c-10.94891,2.9132-19.27576,3.81335-25.38934,3.81335-9.9,0-13.99268-2.36212-13.99268-2.36212l-13.5813-7.84125a.62588.62588,0,0,0-.75555.09949l-9.63385,9.63364a.62586.62586,0,0,0-.09949.75546l7.84113,13.58142s6.17962,10.70325-1.45111,39.38211a.64062.64062,0,0,1-.29541.388L351.513,436.03525l-17.00042,9.81527a.64118.64118,0,0,1-.48371.06183c-28.6521-7.731-34.8316-18.43423-34.8316-18.43423l-7.84113-13.58139a.62554.62554,0,0,0-.704-.2916l-13.16,3.52619a.62583.62583,0,0,0-.46393.60452v15.6824s0,12.359-20.94775,33.38031a.64149.64149,0,0,1-.45.1883h-39.2611a.64146.64146,0,0,1-.45-.1883c-20.94781-21.0213-20.94781-33.38031-20.94781-33.38031v-15.6824a.62559.62559,0,0,0-.46375-.60452L181.34757,413.605a.62542.62542,0,0,0-.70392.29154L172.8024,427.478s-6.17956,10.70312-34.83148,18.43417a.642.642,0,0,1-.4837-.06186L120.48648,436.035l-17.00036-9.81527a.64144.64144,0,0,1-.29553-.388c-7.63062-28.6789-1.45111-39.382-1.45111-39.382l7.84112-13.58139a.62574.62574,0,0,0-.09936-.7555l-9.63373-9.63388a.62588.62588,0,0,0-.75556-.09939l-13.5813,7.84115s-4.09082,2.36216-13.99292,2.36216c-6.11334,0-14.44213-.90061-25.38922-3.81333a.64128.64128,0,0,1-.38806-.29547l-9.81512-17.00064L26.11,334.473a.641.641,0,0,1-.06195-.48376c7.731-28.65213,18.43433-34.83161,18.43433-34.83161l13.58129-7.84118a.6257.6257,0,0,0,.29163-.704l-3.52612-13.16a.62565.62565,0,0,0-.60443-.46389H38.54221s-12.35889,0-33.38019-20.94782a.641.641,0,0,1-.18829-.44987V216.32971a.64112.64112,0,0,1,.18829-.44993C26.18332,194.932,38.54221,194.932,38.54221,194.932H54.22477a.62565.62565,0,0,0,.60443-.46389l3.52624-13.15988a.6259.6259,0,0,0-.29156-.704L44.4824,172.763s-10.703-6.17947-18.43421-34.83142a.64145.64145,0,0,1,.06195-.48382l9.81531-17.00058,9.81519-17.00054a.6408.6408,0,0,1,.388-.29547c10.94891-2.91323,19.27581-3.81358,25.3894-3.81338,9.9.00032,13.9928,2.36215,13.9928,2.36215l13.58124,7.84118a.62591.62591,0,0,0,.75555-.09947l9.63391-9.63365a.626.626,0,0,0,.09949-.75553l-7.84131-13.58129s-6.1795-10.70324,1.45117-39.38212a.64127.64127,0,0,1,.29547-.388L120.487,35.88572l17.00043-9.8153a.64208.64208,0,0,1,.48377-.06188c28.652,7.73106,34.83154,18.43429,34.83154,18.43429l7.84119,13.5813a.6253.6253,0,0,0,.70385.29164L194.508,54.78966a.6258.6258,0,0,0,.46393-.60453V38.50272s0-12.359,20.94781-33.3803a.64069.64069,0,0,1,.44983-.18829h39.26123M178.78623,64.129a.62475.62475,0,0,1-.541-.31243l-9.67346-16.76018a.39.39,0,0,0-.02106-.03435c-.261-.38177-6.34283-8.93641-29.89117-15.66124a.641.641,0,0,0-.17566-.02443.6333.6333,0,0,0-.31616.08361L107.77848,48.96524a.64.64,0,0,0-.29712.39636c-5.88318,23.48823-1.68054,33.07917-1.4447,33.60053a.51291.51291,0,0,0,.02587.04994l9.73462,16.8597a.62483.62483,0,0,1-.09924.754l-15.032,15.03141a.62472.62472,0,0,1-.75409.09923l-16.78076-9.68959c-.03394-.01764-3.51624-1.75564-11.61328-1.75564a92.59367,92.59367,0,0,0-22.11689,3.13076.63836.63836,0,0,0-.39575.29753L31.45945,138.12825a.64022.64022,0,0,0-.05915.49188C38.05167,161.91142,46.49009,168.113,46.94944,168.442a.50223.50223,0,0,0,.04657.02958l16.86065,9.73482a.62457.62457,0,0,1,.29108.70253l-5.50317,20.53352a.62475.62475,0,0,1-.6034.46289l-19.37677-.00177c-.10766.00542-10.61322.72266-28.5235,18.05606a.64042.64042,0,0,0-.1947.4556v35.09a.64026.64026,0,0,0,.1947.45552c17.40558,16.84572,27.81531,17.99773,28.377,18.0526a.51148.51148,0,0,0,.05468.00228H58.04117a.62441.62441,0,0,1,.60321.463l5.5022,20.53411a.6246.6246,0,0,1-.29108.70252l-16.76,9.67337c-.01464.00839-.02081.01169-.03473.02121-.38391.26312-8.93682,6.34677-15.66046,29.89108a.64025.64025,0,0,0,.05915.49188l17.54571,30.38883a.6383.6383,0,0,0,.39575.29751,92.58835,92.58835,0,0,0,22.11567,3.13083c8.00366,0,11.49676-1.69741,11.50885-1.69741l-.00123.00125,16.8866-9.75037a.6243.6243,0,0,1,.75379.0993l15.032,15.032a.62433.62433,0,0,1,.09924.7539l-9.67828,16.75928c-.0083.01434-.01184.02-.01905.035-.199.414-4.56829,9.95746,1.38288,33.71711a.64.64,0,0,0,.29712.39636L138.16776,440.501a.63324.63324,0,0,0,.31616.08365.63993.63993,0,0,0,.17566-.02448c23.30981-6.656,29.5036-15.10223,29.82324-15.55017a.45917.45917,0,0,0,.02851-.045l9.73394-16.86124a.62429.62429,0,0,1,.70258-.29105l20.53406,5.5033a.62439.62439,0,0,1,.46283.6033l-.00232,19.35181c0,.01672-.00025.02337.001.03995.035.45922,1.02289,10.90872,18.0564,28.50854a.64.64,0,0,0,.45544.19464h35.08954a.64034.64034,0,0,0,.45551-.19464c16.86334-17.42294,18.00073-27.83523,18.05273-28.37848a.48459.48459,0,0,0,.0022-.05252v-19.4693a.62452.62452,0,0,1,.46283-.60324l20.53418-5.50211a.624.624,0,0,1,.70251.291l9.67334,16.76007c.00843.01459.01166.02063.02131.03464.26306.38394,6.34674,8.93677,29.89093,15.66046a.64108.64108,0,0,0,.49194-.05917l30.38934-17.54471a.6401.6401,0,0,0,.29706-.39636c5.88312-23.488,1.68054-33.07953,1.4447-33.601a.51031.51031,0,0,0-.02588-.05l-9.73455-16.85914a.62462.62462,0,0,1,.09918-.75387l15.032-15.03208a.62441.62441,0,0,1,.75391-.09918l16.76043,9.679c.01368.00781.01954.01147.03376.01828.243.11743,3.756,1.748,11.59991,1.748a92.60607,92.60607,0,0,0,22.11694-3.13083.63861.63861,0,0,0,.39582-.29757l17.54571-30.38877a.64019.64019,0,0,0,.05908-.49188c-6.6513-23.29153-15.08953-29.49331-15.54913-29.82242a.53343.53343,0,0,0-.04651-.02966l-16.86071-9.73358a.62453.62453,0,0,1-.29108-.70252l5.50323-20.53411a.62448.62448,0,0,1,.60334-.46283l19.35174.00235.01166,0,.02832-.0011c.45935-.03488,10.90881-1.02277,28.50842-18.05629a.6396.6396,0,0,0,.1947-.45552v-35.09a.63977.63977,0,0,0-.1947-.4556c-17.40558-16.8451-27.81512-17.997-28.37677-18.05188a.5014.5014,0,0,0-.05469-.00241H413.95884a.62463.62463,0,0,1-.60334-.46283l-5.502-20.53358a.62438.62438,0,0,1,.29095-.70253l16.78211-9.68724c.08941-.058,8.82892-5.93218,15.67315-29.89841a.64023.64023,0,0,0-.05908-.49188l-17.54571-30.38876a.63867.63867,0,0,0-.39582-.29759,92.60922,92.60922,0,0,0-22.11694-3.13135c-8.00232,0-11.49548,1.69676-11.50763,1.69676l.00049-.00076.00085-.00048-.00085.00048L372.08927,115.757a.62448.62448,0,0,1-.75391-.09924l-15.03192-15.032a.62422.62422,0,0,1-.09918-.754l9.67828-16.75864c.0083-.01441.01178-.02.019-.035.199-.41405,4.5683-9.95752-1.38293-33.71652a.64012.64012,0,0,0-.29706-.39636L333.83225,31.42a.63362.63362,0,0,0-.31629-.08364.64022.64022,0,0,0-.17565.02446C310.03074,38.0173,303.83689,46.46289,303.51712,46.911a.4832.4832,0,0,0-.02856.045L293.75473,63.8166a.62412.62412,0,0,1-.70251.29106l-20.53406-5.50212a.62457.62457,0,0,1-.463-.6033l.00238-19.35241c0-.01664.00012-.02335-.001-.04-.035-.45947-1.02343-10.90882-18.05627-28.50782a.64042.64042,0,0,0-.45563-.19465H218.45523a.64.64,0,0,0-.45544.19465C201.13651,27.52542,199.999,37.93713,199.947,38.48042a.45856.45856,0,0,0-.00213.05253V58.00224a.62458.62458,0,0,1-.463.6033l-20.53406,5.50212a.62432.62432,0,0,1-.16162.02131M255.63077,3.93413H216.36954a1.64648,1.64648,0,0,0-1.15851.48276c-20.99768,21.07136-21.23913,33.5643-21.23913,34.08583V53.898l-12.60541,3.37745L173.6688,43.94283c-.26068-.45165-6.71637-11.15017-35.43708-18.89976a1.64155,1.64155,0,0,0-1.2442.16129L119.987,35.01971,102.98636,44.835a1.647,1.647,0,0,0-.76178.9967c-7.64905,28.74783-1.61163,39.68777-1.35083,40.13942l7.69776,13.33266-9.228,9.22773-13.33264-7.69763c-.17676-.10206-4.44049-2.49582-14.49274-2.49617a101.6466,101.6466,0,0,0-25.64661,3.84706,1.64651,1.64651,0,0,0-.99682.76164l-9.81525,17.00071-9.81524,17.00058a1.64721,1.64721,0,0,0-.16156,1.24389c7.74981,28.72106,18.44812,35.17664,18.89978,35.43735l13.33282,7.69769L53.9376,193.932H38.54221c-.52155,0-13.01434.24141-34.08606,21.23947a1.64706,1.64706,0,0,0-.48242,1.15829v39.26113a1.647,1.647,0,0,0,.48242,1.15821c21.07172,20.99808,33.56451,21.23948,34.08606,21.23948H53.9376l3.3775,12.6054L43.9824,298.2916c-.45166.26071-11.15027,6.71624-18.89978,35.43707a1.64663,1.64663,0,0,0,.16149,1.24444l9.81519,17.00031,9.81506,17.00064a1.64761,1.64761,0,0,0,.99707.7619,101.6589,101.6589,0,0,0,25.6463,3.84686c10.05451,0,14.31647-2.39416,14.493-2.49612l13.33264-7.69763,9.22772,9.22784-7.69757,13.3328c-.26074.45166-6.29816,11.39148,1.35071,40.13913a1.64766,1.64766,0,0,0,.76184.99688l17.00042,9.81528,17.00074,9.81531a1.64122,1.64122,0,0,0,1.24432.16128c28.72052-7.74951,35.17615-18.44793,35.43683-18.89959l7.69769-13.33274,12.60541,3.37763v15.39535c0,.52155.24139,13.01447,21.23944,34.08619a1.648,1.648,0,0,0,1.15833.48242h39.2611a1.64744,1.64744,0,0,0,1.158-.48209c20.9983-21.072,21.23975-33.565,21.23975-34.08652V418.023l12.60553-3.37759,7.69763,13.33276c.26068.45166,6.71631,11.15018,35.43708,18.89972a1.64191,1.64191,0,0,0,1.24359-.16089l17.001-9.8157,17.00068-9.81531a1.64594,1.64594,0,0,0,.7619-.99735c7.64892-28.74716,1.61139-39.6871,1.35058-40.13876l-7.69751-13.33273,9.22791-9.22773,13.3327,7.6977c.1767.102,4.44043,2.49612,14.49268,2.49612a101.6555,101.6555,0,0,0,25.64648-3.847,1.647,1.647,0,0,0,.99689-.76163l9.81537-17.00076,9.81524-17.00055a1.646,1.646,0,0,0,.16108-1.24494c-7.74952-28.72-18.44782-35.1756-18.89948-35.43628l-13.3327-7.69772,3.3775-12.60535h15.39539c.52154,0,13.01446-.24142,34.08618-21.23947a1.64749,1.64749,0,0,0,.48236-1.15829V216.33006a1.64738,1.64738,0,0,0-.48218-1.15805c-21.0719-20.99824-33.56482-21.23965-34.08636-21.23965H418.06241l-3.3775-12.60536,13.3327-7.69776c.45166-.26069,11.15027-6.71623,18.89984-35.43687a1.64779,1.64779,0,0,0-.16143-1.24436l-9.81531-17.00059-9.81525-17.00053a1.64653,1.64653,0,0,0-.99689-.76182,101.65912,101.65912,0,0,0-25.6463-3.84694c-10.0545-.00018-14.31653,2.39417-14.493,2.49611l-13.33258,7.69765-9.22784-9.228,7.69775-13.33267c.26074-.45164,6.2981-11.39153-1.35083-40.13917a1.64775,1.64775,0,0,0-.76147-.99677L352.0134,35.01989,335.01285,25.2046a1.64128,1.64128,0,0,0-1.24438-.1613c-28.72064,7.74953-35.17621,18.44806-35.43689,18.89971L290.634,57.27563,278.02842,53.898V38.50272c0-.52153-.2414-13.01447-21.23945-34.08618a1.6465,1.6465,0,0,0-1.1582-.48241Zm-37.01861,6.97323h34.77575c16.69257,17.28628,17.63941,27.35749,17.67151,27.77853l-.00421,19.31624a1.62695,1.62695,0,0,0,1.2041,1.56935l20.53406,5.50212a1.62416,1.62416,0,0,0,1.82751-.75724L304.35465,47.456c.22516-.31251,6.315-8.55327,29.1134-15.09156l30.11768,17.38838c5.81476,23.32572,1.59735,32.51188,1.41455,32.89218l-9.66193,16.72671a1.62615,1.62615,0,0,0,.25824,1.96135l15.03168,15.03182a1.62443,1.62443,0,0,0,1.96112.25806l16.837-9.72163c.49041-.21256,3.94482-1.59013,11.05578-1.59013a91.45178,91.45178,0,0,1,21.72473,3.064l17.38928,30.11776c-6.5097,22.69817-14.76428,28.86591-15.20422,29.18018L407.6445,177.3403a1.6266,1.6266,0,0,0-.75683,1.82771l5.50189,20.5333a1.627,1.627,0,0,0,1.56928,1.204h19.46868c.3841.03939,10.57923,1.20589,27.62616,17.66672v34.77632c-17.29089,16.69716-27.35791,17.63958-27.7788,17.67156l-19.31592-.00418a1.62673,1.62673,0,0,0-1.5694,1.204l-5.50323,20.53411a1.62686,1.62686,0,0,0,.75708,1.82746l16.86071,9.73358c.31293.22635,8.56116,6.34134,15.092,29.11389l-17.38916,30.11762a91.44654,91.44654,0,0,1-21.72479,3.06356c-7.66528,0-11.02557-1.58105-11.16485-1.64834l-16.72913-9.6629a1.62449,1.62449,0,0,0-1.96112.258l-15.03211,15.03208a1.62714,1.62714,0,0,0-.25805,1.961l9.73462,16.85917c.15765.35336,4.24017,9.78936-1.48584,32.75988l-30.11762,17.38773c-23.08587-6.62085-28.95477-14.87329-29.19372-15.22208l-9.65345-16.72934a1.62425,1.62425,0,0,0-1.82788-.757l-20.53381,5.502a1.62694,1.62694,0,0,0-1.204,1.56918v19.4693c-.03839.38294-1.18311,10.55609-17.66724,27.62564H218.61216c-16.694-17.28781-17.63953-27.35815-17.67163-27.77917l.00421-19.31565a1.62653,1.62653,0,0,0-1.20392-1.56936l-20.53406-5.50324a1.6241,1.6241,0,0,0-1.82776.75723l-9.72406,16.84427c-.414.56684-6.6521,8.66443-29.12311,15.10825l-30.11749-17.38791c-5.81512-23.32782-1.59735-32.5123-1.41455-32.89261l9.662-16.72741a1.62623,1.62623,0,0,0-.25836-1.96128l-15.03174-15.03183a1.61349,1.61349,0,0,0-1.14887-.47583h-.001a1.6251,1.6251,0,0,0-.81092.21759l-16.83368,9.71979c-.47717.20828-3.92035,1.5928-11.0606,1.5928a91.42638,91.42638,0,0,1-21.72339-3.0635L32.4039,333.42862c6.61994-23.083,14.87342-28.955,15.22217-29.194l16.72931-9.65329a1.6269,1.6269,0,0,0,.75708-1.82752l-5.50213-20.534a1.62652,1.62652,0,0,0-1.56916-1.20414H38.57254c-.38409-.03927-10.57928-1.20575-27.62634-17.66729V218.572C27.938,202.16435,38.16953,200.95517,38.704,200.90355l19.337.00175a1.62718,1.62718,0,0,0,1.5694-1.20382l5.50317-20.53371a1.62693,1.62693,0,0,0-.757-1.82747L47.496,167.60555c-.313-.22635-8.56122-6.341-15.092-29.11318l17.38916-30.11779a91.44349,91.44349,0,0,1,21.72467-3.06345c7.43512,0,10.86291,1.50942,11.14556,1.64032l16.74842,9.67091a1.62472,1.62472,0,0,0,1.96106-.25794L116.405,101.33283a1.62726,1.62726,0,0,0,.25824-1.96094l-9.73468-16.85982c-.15783-.35342-4.24066-9.787,1.48584-32.75924l30.11749-17.38845c23.099,6.6246,28.955,14.87349,29.19336,15.2221l9.65387,16.72994a1.62446,1.62446,0,0,0,1.82788.75706l20.53376-5.502a1.62694,1.62694,0,0,0,1.2041-1.56924V38.55239c.07825-.725,1.443-10.84413,17.6673-27.645Z"/>
    </g>
    <g id="shield">
      <path class="cls-2" d="M236.00006,165.97072H166.03645l9.49881,10.60885v130.965a47.88075,47.88075,0,0,0,26.30489,12.07218c27.38038,3.11545,34.15991,16.46209,34.15991,16.46209s6.77952-13.34664,34.15979-16.46209a47.88075,47.88075,0,0,0,26.30489-12.07218v-130.965l9.49881-10.60885ZM292.0938,305.383a44.246,44.246,0,0,1-22.42144,9.68434c-12.11911,1.37935-22.02432,4.81429-29.43709,10.21056a35.43184,35.43184,0,0,0-4.25235,3.61822c-4.83911-4.825-14.83524-11.68741-33.65634-13.82878a43.83482,43.83482,0,0,1-22.42038-9.67254V174.71261H292.0938Z"/>
      <polygon class="cls-2" points="192.4 295.472 231.909 271.257 222.58 262.274 260.212 237.88 250.566 227.246 277.329 193.955 238.726 226.373 246.999 236.209 208.313 261.176 218.739 270.368 192.4 295.472"/>
    </g>
    <g id="text">
      <g>
        <path class="cls-2" d="M105.86737,320.22394,135.40662,300.38l2.67792,3.98566-29.53925,19.84392Z"/>
        <path class="cls-2" d="M114.95913,333.20771l26.35834-23.90706,2.98087,3.285L132.32863,336.177l18.30607-16.604,3.063,3.37631-26.3595,23.90706-3.02943-3.33931,12.14663-23.68621-18.45062,16.73471Z"/>
        <path class="cls-2" d="M148.432,363.15628a10.28157,10.28157,0,0,1-4.713-2.0732,8.92149,8.92149,0,0,1-3.73244-8.52287q.588-5.18241,6.08892-12.29925,5.60559-7.24982,10.76719-9.20507a9.39847,9.39847,0,0,1,9.63636,1.50315,10.77776,10.77776,0,0,1,1.702,1.6234,10.3078,10.3078,0,0,1,1.22565,1.84194l-2.78777,3.60526a10.17847,10.17847,0,0,0-1.08921-1.798,7.07192,7.07192,0,0,0-1.24993-1.27305,5.8702,5.8702,0,0,0-6.46586-.762q-3.43759,1.5783-7.91,7.36313-4.17471,5.3992-4.85749,9.01429a5.45431,5.45431,0,0,0,2.07319,5.74666,6.6002,6.6002,0,0,0,1.80147.97705,11.91291,11.91291,0,0,0,2.37382.55617Z"/>
        <path class="cls-2" d="M163.58147,352.97416q4.53027-8.66163,8.60381-11.3303,4.07584-2.66753,8.84316-.1746,4.74533,2.48194,4.87715,7.32382.13354,4.84247-4.41927,13.54571-4.53027,8.66163-8.57722,11.30255-4.04637,2.64324-8.79228.15956-4.76788-2.49234-4.91646-7.3296Q159.0512,361.63406,163.58147,352.97416Zm4.343,2.16107q-3.50176,6.69654-3.85385,10.01793-.35208,3.32311,2.19113,4.654a4.09424,4.09424,0,0,0,4.92109-.75389q2.40216-2.07263,6.05077-9.049,3.559-6.80408,3.90357-10.03412a4.2267,4.2267,0,0,0-7.19779-3.73706Q171.45914,348.37509,167.92442,355.13523Z"/>
        <path class="cls-2" d="M193.515,366.93613l-5.02284,16.63758L183.896,382.185l10.28618-34.066,5.55241,1.67659q5.531,1.6685,7.2556,4.43083,1.72573,2.76117.281,7.54466a9.94548,9.94548,0,0,1-3.389,5.40557,7.08008,7.08008,0,0,1-5.564,1.05683l3.03059,19.22185-4.9234-1.487-2.76927-18.98943Zm.78974-2.61318,1.42337.43014q2.79933.84465,4.34989-.11216,1.54882-.95913,2.54957-4.27127.83079-2.75423.04394-4.14985-.78915-1.3962-3.82147-2.31254l-1.28346-.38735Z"/>
        <path class="cls-2" d="M210.41621,389.07524l4.08973-35.34951,5.81026.6718a21.39846,21.39846,0,0,1,4.95925,1.03948,7.85965,7.85965,0,0,1,4.96965,5.50732,12.09421,12.09421,0,0,1,.32376,4.72337q-.56022,4.84245-3.67116,7.03475-3.11326,2.19228-8.53559,1.56443c-.38735-.04509-.67758-.08209-.87068-.11331-.19309-.03007-.36075-.06129-.50413-.09482l-1.80147,15.568Zm7.06366-19.2785,1.76794.20466q3.19478.36942,4.706-.80477,1.50894-1.17419,1.86853-4.27357.34342-2.97972-.94582-4.4528-1.28867-1.47424-4.654-1.86391l-1.42916-.16419Z"/>
        <path class="cls-2" d="M235.84723,373.59509q-.70069-9.74736,1.36093-14.16085,2.06222-4.41233,7.429-4.79852,5.34024-.385,8.00024,3.66422,2.65884,4.04811,3.36359,13.84519.70243,9.74909-1.35052,14.12384-2.05355,4.3759-7.39435,4.76037-5.36626.385-8.03724-3.64919Q236.54967,383.34419,235.84723,373.59509Zm4.8309-.44517q.54287,7.53774,1.98994,10.54866,1.44823,3.01094,4.31058,2.80512a4.09619,4.09619,0,0,0,3.79026-3.22947q.95218-3.02481.38735-10.87819-.55155-7.65741-1.95641-10.58682a4.22621,4.22621,0,0,0-8.087.60589Q240.13122,365.54051,240.67813,373.14992Z"/>
        <path class="cls-2" d="M268.64023,369.73546l4.47014,16.79367-4.64012,1.23606-9.15535-34.38865,5.60676-1.49275q5.58132-1.48638,8.5009-.04278,2.919,1.44129,4.2042,6.27046a9.94775,9.94775,0,0,1-.04162,6.3803,7.08564,7.08564,0,0,1-4.17761,3.82379l12.68082,14.75864L281.1187,384.397l-12.33741-14.69851Zm-.703-2.63746,1.43725-.38272q2.82534-.75273,3.6411-2.38192.81516-1.62861-.07632-4.97428-.73886-2.77851-2.14372-3.55322-1.40487-.77353-4.46552.04163l-1.29618.34457Z"/>
        <path class="cls-2" d="M292.10559,380.88191l-7.56433-35.75768,4.08279-1.91478,22.65829,28.67783-4.39152,2.05931-4.51524-5.60791-7.3481,3.44569,1.46962,7.03706Zm-1.60953-28.40148,3.62837,15.31249,5.80333-2.72186Z"/>
        <path class="cls-2" d="M320.65738,365.8342l-17.43772-25.81143-5.47379,3.69775-2.48367-3.67578,14.946-10.09772,2.48367,3.67695-5.47379,3.69659L324.65576,363.132Z"/>
        <path class="cls-2" d="M336.60813,354.04486l-24.20074-26.09009,10.4365-9.6803,2.91727,3.14506-6.91566,6.415,7.19316,7.75511,6.326-5.86692,2.8849,3.10921-6.326,5.86807,8.18755,8.827,6.91566-6.415,3.01671,3.25259Z"/>
        <path class="cls-2" d="M354.33955,336.4788l-28.41189-21.42686,3.81569-5.05984q4.37244-5.79811,9.338-5.764,4.9656.03469,12.78835,5.93514,7.843,5.91433,9.25017,10.68626,1.40834,4.77135-2.96468,10.56947Zm-.73771-6.63121,1.49622-1.98532q2.43684-3.22947,1.09152-6.30515-1.34416-3.07509-7.27988-7.55044-5.91433-4.46089-9.22473-4.91184-3.30752-.44922-5.75938,2.79933l-1.49738,1.98532Z"/>
      </g>
      <g>
        <path class="cls-2" d="M116.93866,233.02147l-37.4863-3.47459.57-6.16177a22.63184,22.63184,0,0,1,.98051-5.26912,8.72045,8.72045,0,0,1,1.92519-3.1624,8.8162,8.8162,0,0,1,3.77985-2.227,12.80424,12.80424,0,0,1,4.98815-.45673q5.13558.477,7.52848,3.7151,2.39349,3.23814,1.86044,8.99c-.03815.41048-.07053.71805-.09944.92271-.02659.20466-.05665.38388-.08787.53535l16.50923,1.5309Zm-20.55965-7.007.17344-1.87431q.31394-3.389-.96433-4.95809-1.28-1.56791-4.56611-1.87316-3.15835-.29312-4.68637,1.10655t-1.85812,4.9685l-.14107,1.51471Z"/>
        <path class="cls-2" d="M119.45471,211.71718l-36.352-9.79245,3.91745-14.54011,4.38226,1.18056-2.59583,9.6352,10.80535,2.91033,2.375-8.81309,4.33139,1.16667-2.37382,8.81426,12.30041,3.31271,2.59467-9.6352,4.53143,1.21986Z"/>
        <path class="cls-2" d="M124.74927,193.61923l-34.32968-15.4524L96.59986,164.435l4.13945,1.86275-4.09667,9.09985,10.20525,4.59271,3.74631-8.32284,4.09205,1.84079-3.74748,8.324,11.6159,5.22866,4.09667-9.09985,4.27935,1.92634Z"/>
        <path class="cls-2" d="M120.382,162.05189l15.257,10.25843-2.834,4.21576-31.24244-21.006,3.42488-5.09221q3.40984-5.07141,6.73874-5.956,3.32834-.88455,7.7158,2.06394a10.52966,10.52966,0,0,1,4.41,5.10956,7.48971,7.48971,0,0,1-.6637,5.95479l20.37812,2.91959-3.03521,4.51524-20.06245-3.11153Zm-2.397-1.61069.87761-1.30543q1.72746-2.56865,1.24067-4.43314-.48563-1.86449-3.52431-3.90819-2.52529-1.69626-4.18223-1.3355-1.65808.36249-3.52778,3.1439l-.79089,1.17709Z"/>
        <path class="cls-2" d="M145.26383,159.01668,117.94,133.11852l3.49425-3.68734L145.3517,152.101l7.4857-7.89733,3.40637,3.22831Z"/>
        <path class="cls-2" d="M158.16665,145.95544l-22.97047-29.82716,11.93155-9.18773,2.76812,3.596-7.90543,6.08776,6.82778,8.86629,7.23248-5.5686,2.73689,3.55437-7.23248,5.56976,7.77246,10.09193,7.90658-6.08777,2.86292,3.71741Z"/>
        <path class="cls-2" d="M169.505,129.33868a17.27085,17.27085,0,0,0,3.70469-.15032,8.73988,8.73988,0,0,0,2.767-.90189,5.00933,5.00933,0,0,0,2.59351-2.94965,4.8736,4.8736,0,0,0-.52841-3.8365q-1.58872-2.92248-8.23149-4.18339-.79089-.15783-1.18518-.237a19.74142,19.74142,0,0,1-6.56762-2.257,10.5266,10.5266,0,0,1-3.70816-4.01457,9.86746,9.86746,0,0,1-1.00711-7.52385,8.89876,8.89876,0,0,1,4.536-5.69348A13.33447,13.33447,0,0,1,168.491,95.934l2.41314,4.44124a12.207,12.207,0,0,0-3.25837.02428,8.21209,8.21209,0,0,0-2.67561.88224,5.26959,5.26959,0,0,0-2.70452,3.06874,4.99561,4.99561,0,0,0,.52264,3.98682q1.55055,2.85483,8.54021,4.1036c.43245.07863.76545.13182.99786.163a18.30736,18.30736,0,0,1,6.3988,2.21541,11.07523,11.07523,0,0,1,3.80067,4.1857,9.73018,9.73018,0,0,1,.97936,7.58167,9.4947,9.4947,0,0,1-4.87137,5.83223,11.60374,11.60374,0,0,1-3.03174,1.11927,16.13268,16.13268,0,0,1-3.6226.35382Z"/>
        <path class="cls-2" d="M187.20177,120.12782a17.29047,17.29047,0,0,0,3.68041.44054,8.70619,8.70619,0,0,0,2.87564-.45094,5.00073,5.00073,0,0,0,3.02943-2.49986,4.86762,4.86762,0,0,0,.08788-3.8712q-1.10309-3.13753-7.46142-5.43909-.75447-.281-1.132-.422A19.75771,19.75771,0,0,1,182.157,104.613a10.54055,10.54055,0,0,1-3.02365-4.55455,9.86937,9.86937,0,0,1,.20235-7.58745,8.89483,8.89483,0,0,1,5.38359-4.89912,13.30673,13.30673,0,0,1,6.79194-.58507l1.67659,4.76846a12.21594,12.21594,0,0,0-3.22137-.49373,8.196,8.196,0,0,0-2.782.44517,5.271,5.271,0,0,0-3.15777,2.60045,4.99214,4.99214,0,0,0-.11794,4.018q1.07706,3.06469,7.77939,5.41019c.4151.14569.73538.25207.95854.31913a18.2662,18.2662,0,0,1,5.96521,3.20519,11.06341,11.06341,0,0,1,3.08724,4.73608,9.73191,9.73191,0,0,1-.23819,7.64179,9.49381,9.49381,0,0,1-5.73742,4.98237,11.61924,11.61924,0,0,1-3.16934.62323,16.12748,16.12748,0,0,1-3.633-.22662Z"/>
        <path class="cls-2" d="M217.83832,118.46279l-4.92225-37.32442,5.03556-.6637,4.9234,37.32327Z"/>
        <path class="cls-2" d="M228.29447,116.95733l.636-37.6424,4.69215.07979,9.53692,26.31094L243.6,79.56353l4.82165.08094-.636,37.64124-4.76962-.07978-9.48026-26.51676-.44517,26.3491Z"/>
        <path class="cls-2" d="M253.18667,111.435a17.40365,17.40365,0,0,0,2.93808,2.26051,8.70456,8.70456,0,0,0,2.70105,1.08227,5.01033,5.01033,0,0,0,3.88276-.60011,4.87156,4.87156,0,0,0,2.05353-3.28265q.6556-3.26068-3.63184-8.48934-.50472-.62785-.75736-.9412a19.74559,19.74559,0,0,1-3.59253-5.94324,10.53036,10.53036,0,0,1-.26941-5.45875,9.86269,9.86269,0,0,1,4.05157-6.41846,8.89587,8.89587,0,0,1,7.13188-1.45921,13.32187,13.32187,0,0,1,6.13633,2.9693l-.99671,4.95462a12.2366,12.2366,0,0,0-2.516-2.07088,8.208,8.208,0,0,0-2.6178-1.03949,5.27928,5.27928,0,0,0-4.04464.62092,4.99718,4.99718,0,0,0-2.15529,3.39366q-.64,3.18436,3.92092,8.62578.4232.50644.66139.76429a18.276,18.276,0,0,1,3.48846,5.80448,11.073,11.073,0,0,1,.23242,5.64838,9.735,9.735,0,0,1-4.11055,6.44621,9.49942,9.49942,0,0,1-7.47876,1.35053,11.62273,11.62273,0,0,1-3.0433-1.08574,16.1359,16.1359,0,0,1-3.00631-2.05123Z"/>
        <path class="cls-2" d="M275.12806,123.69261l11.54537-30.8655-6.5445-2.44782,1.64422-4.39614,17.87248,6.68556-1.64422,4.395-6.54565-2.44783-11.54536,30.8655Z"/>
        <path class="cls-2" d="M302.23914,115.749l-9.25132,15.88831-4.3892-2.55536,18.942-32.53514,5.30382,3.0884q5.28126,3.07337,6.37914,6.33983,1.09616,3.26415-1.56212,7.83258a10.52857,10.52857,0,0,1-4.81355,4.73146,7.4923,7.4923,0,0,1-5.986-.27751l-1.59565,20.525-4.7014-2.73805,1.80725-20.222Zm1.45228-2.49639,1.35977.792q2.67445,1.5575,4.50368.95161,1.82979-.607,3.67231-3.7706,1.52975-2.62935,1.06262-4.2597-.4683-1.63034-3.36591-3.31618l-1.22565-.71458Z"/>
        <path class="cls-2" d="M313.17515,132.32185l18.1627-20.80478,3.76829,3.29075-18.43327,21.11466a5.66656,5.66656,0,0,0-1.71591,3.8076,5.97178,5.97178,0,0,0,5.58479,4.87484,5.70763,5.70763,0,0,0,3.53125-2.2212l18.43443-21.11466,3.78794,3.30694-18.1627,20.80362q-3.59543,4.11748-7.04516,4.44239-3.45147.32607-7.33538-3.06643-3.88508-3.39077-4.02845-6.85322Q309.57972,136.43876,313.17515,132.32185Z"/>
        <path class="cls-2" d="M323.85331,154.972l32.16977-19.81848,2.73226,3.68735-17.90947,19.62076,24.0643-11.3118,2.63977,3.56363-28.302,25.04135-2.79355-3.77175,20.31221-16.93937L332.5554,166.72091l-2.04081-2.75539,18.224-19.75836-22.12293,14.495Z"/>
        <path class="cls-2" d="M340.45736,178.90453l34.0117-16.14154,6.45662,13.60353-4.10014,1.946-4.27936-9.01544-10.10927,4.79852,3.914,8.24653-4.05389,1.924-3.914-8.24652-11.5072,5.46222,4.2782,9.01544-4.24,2.01191Z"/>
        <path class="cls-2" d="M348.33734,195.95721l36.37975-9.68608,1.20715,4.536-22.69875,16.36933,25.26682-6.72718,1.24068,4.65977-36.3809,9.68608-1.2268-4.61005,22.9115-16.3728-25.46571,6.77922Z"/>
        <path class="cls-2" d="M354.25514,223.969l32.85312-2.58542-.54923-6.96653,4.67943-.3677,1.49737,19.023-4.67943.36769-.54807-6.96653-32.852,2.58427Z"/>
      </g>
      <path class="cls-2" d="M102.85136,267.34164a2.91869,2.91869,0,1,0,2.9188,2.9187A2.922,2.922,0,0,0,102.85136,267.34164Z"/>
      <circle class="cls-2" cx="369.18216" cy="270.26034" r="2.91868"/>
    </g>
  </g>
</svg>
