<svg xmlns="http://www.w3.org/2000/svg" viewBox="0 0 152.03648 152.03648">
  <defs>
    <style>
      .cls-1 {
        fill: #efefef;
      }
    </style>
  </defs>
  <title>peerless-logo-outline</title>
  <g id="Logo">
    <g id="gear">
      <path class="cls-1" d="M82.628,151.64666H69.79808a.539.539,0,0,1-.37817-.15733c-6.86222-6.88647-6.941-10.96908-6.941-11.1395v-5.031l-4.11931-1.10387L55.84387,138.572c-.08521.14744-2.19464,3.64381-11.58021,6.17641a.54381.54381,0,0,1-.40593-.05234L32.746,138.28061a.538.538,0,0,1-.24924-.32615c-2.49941-9.39386-.52656-12.96906-.44135-13.11681l2.51537-4.35706-3.01513-3.01545-4.35705,2.51569c-.14776.08521-3.72232,2.05774-13.11713-.44135a.53958.53958,0,0,1-.32583-.24924L7.34052,108.17915a.53921.53921,0,0,1-.05234-.40689c2.53228-9.38524,6.02865-11.495,6.17609-11.58021l4.35706-2.51537-1.10387-4.11931h-5.031c-.17042,0-4.253-.07882-11.13886-6.94072a.53782.53782,0,0,1-.15765-.37848V69.40809a.53768.53768,0,0,1,.15829-.379c6.88519-6.86126,10.9678-6.94025,11.13822-6.94025h5.031l1.10387-4.1193-4.35706-2.51537c-.14744-.08521-3.64381-2.195-6.17641-11.58037a.53808.53808,0,0,1,.0533-.407L13.75564,32.356a.53892.53892,0,0,1,.32455-.24876c9.39641-2.50021,12.97065-.52688,13.11841-.44183l4.35705,2.51568,3.01545-3.0156-2.51569-4.3569c-.08521-.14759-2.05806-3.72263.44135-13.11713a.5389.5389,0,0,1,.24988-.326l11.11045-6.4148a.53805.53805,0,0,1,.40721-.05233c9.38493,2.53228,11.49468,6.02833,11.57989,6.17593l2.51537,4.35706,4.11931-1.10387v-5.0309c0-.17041.07882-4.253,6.941-11.139a.53681.53681,0,0,1,.37817-.15765H82.62831a.5376.5376,0,0,1,.37849.15781c6.86189,6.88583,6.94072,10.96844,6.94072,11.13885v5.0309l4.11931,1.10387,2.51536-4.35706c.08521-.1476,2.195-3.64365,11.58053-6.17609a.53439.53439,0,0,1,.40657.05265l11.11109,6.415a.53809.53809,0,0,1,.2486.3244c2.49973,9.39577.5272,12.97081.442,13.1184l-2.51569,4.3569,3.01544,3.01576,4.35706-2.51568c.14807-.08489,3.72295-2.05758,13.11681.44151a.53683.53683,0,0,1,.32647.25l6.41448,11.11013a.54032.54032,0,0,1,.05329.40529c-2.53292,9.38684-6.02929,11.49644-6.17673,11.58165l-4.357,2.51553,1.10386,4.11914h5.03074c.17041,0,4.253.079,11.13917,6.94089l.00032.00047a.5389.5389,0,0,1,.15733.378V82.23817a.539.539,0,0,1-.15733.37816c-6.88647,6.86254-10.96908,6.94136-11.13949,6.94136h-5.03074L134.60506,93.677l4.357,2.51537c.14744.08521,3.64381,2.195,6.17609,11.58021a.53879.53879,0,0,1-.05265.40689l-6.41512,11.11109a.53986.53986,0,0,1-.32615.24892c-9.39386,2.49941-12.96873.52656-13.11649.44135l-4.35706-2.51537-3.01544,3.01545,2.51537,4.35706c.0852.14743,2.058,3.72263-.44136,13.11681a.539.539,0,0,1-.248.32519l-11.11205,6.41575a.538.538,0,0,1-.40721.05234c-9.38492-2.532-11.49468-6.02833-11.57989-6.17577l-2.51568-4.35706-4.119,1.10355v5.031c0,.17042-.07883,4.253-6.941,11.13918A.53929.53929,0,0,1,82.628,151.64666Zm-12.77981-.65358H82.57789c6.60117-6.63723,6.71573-10.60559,6.71605-10.64484V135.225a.53292.53292,0,0,1,.39317-.51316l4.30089-1.15205a.532.532,0,0,1,.59773.24733l2.5626,4.43843c.01915.03255,2.10178,3.41148,11.13758,5.8592l11.02428-6.365c2.39761-9.04824.51284-12.54206.49369-12.5762l-2.56164-4.43716a.53179.53179,0,0,1,.08457-.64113l3.1482-3.1482a.53275.53275,0,0,1,.64113-.08457l4.43844,2.56228c.03287.01883,3.52573,1.9036,12.57493-.49433l6.365-11.02429c-2.44771-9.03612-5.82664-11.11843-5.86047-11.13853l-4.43716-2.56165a.53173.53173,0,0,1-.24732-.5974l1.15237-4.30058a.5318.5318,0,0,1,.51316-.3938h5.12456c.03766-.00032,4.00538-.11457,10.64325-6.71606V69.45835c-6.63787-6.60148-10.60559-6.71557-10.64485-6.71589h-5.123a.53157.53157,0,0,1-.51316-.394l-1.15237-4.30025a.5319.5319,0,0,1,.248-.59789l4.4378-2.56228c.03255-.01914,3.41148-2.10257,5.85919-11.1371l-6.365-11.02476c-9.0492-2.39777-12.54238-.51332-12.57621-.49369l-4.43684,2.56164a.53247.53247,0,0,1-.64145-.08457l-3.1482-3.1482a.532.532,0,0,1-.08457-.64129l2.5626-4.43828c.01851-.03287,1.9036-3.52572-.49433-12.57493l-11.0246-6.365c-9.03548,2.44787-11.11843,5.82664-11.13854,5.86063l-2.56132,4.43684a.53147.53147,0,0,1-.59773.24749l-4.30057-1.15238a.53185.53185,0,0,1-.39381-.51315V11.29658c-.00032-.03781-.11456-4.00554-6.71605-10.64309H69.8485c-6.60181,6.63771-6.71574,10.60528-6.71606,10.64469v5.12313a.53185.53185,0,0,1-.3938.51315l-4.30057,1.15238a.53119.53119,0,0,1-.59773-.24781l-2.56228-4.438c-.01915-.03255-2.10178-3.41148-11.13758-5.85919l-11.02461,6.365C30.71826,22.955,32.603,26.449,32.62218,26.48326l2.562,4.43668a.53263.53263,0,0,1-.08425.64113l-3.14852,3.14836a.531.531,0,0,1-.64144.08441l-4.43812-2.56228c-.03287-.01867-3.52573-1.9028-12.57493.49433l-6.365,11.02492c2.44772,9.03485,5.82665,11.11812,5.86047,11.13806l4.43685,2.56148a.53194.53194,0,0,1,.24764.59773l-1.15237,4.30057a.5319.5319,0,0,1-.51316.39381H11.68641c-.03766.00032-4.00538.11441-10.64293,6.71573V82.18806C7.68071,88.78891,11.64875,88.90348,11.688,88.9038h5.12329a.53172.53172,0,0,1,.51316.3938l1.15237,4.30058a.5321.5321,0,0,1-.24764.59772l-4.43812,2.56228c-.03255.01915-3.41148,2.10178-5.85952,11.13758l6.36534,11.02461c9.04888,2.39793,12.54238.51316,12.5762.49369l4.43685-2.56164a.53349.53349,0,0,1,.64081.08361l3.14883,3.14916a.53165.53165,0,0,1,.08425.64113l-2.56228,4.43811c-.01851.03287-1.90328,3.527.49433,12.57493l11.02461,6.365c9.03484-2.44772,11.11811-5.82665,11.13821-5.86047l2.56165-4.43684a.53139.53139,0,0,1,.59773-.24765l4.30057,1.15237a.53276.53276,0,0,1,.3938.51316v5.12488C63.13276,140.38749,63.24669,144.35521,69.84818,150.99308Zm12.09847-.97142H70.47973a.537.537,0,0,1-.38455-.16436c-5.64889-5.83653-5.9795-9.3696-5.99067-9.51736l-.00128-.038.00064-6.22971-6.52841-1.74978-3.15905,5.46826c-.21828.306-2.34208,3.04257-9.92329,5.20754a.54064.54064,0,0,1-.41328-.05074l-9.93127-5.73346a.53647.53647,0,0,1-.25083-.33413c-1.97541-7.88662-.49306-11.10534-.42923-11.23842l.01755-.03319,3.116-5.39486-4.77958-4.77959-6.37874,3.6837.1385-.277a12.88766,12.88766,0,0,1-3.12012.33093,30.60489,30.60489,0,0,1-7.30676-1.033.53811.53811,0,0,1-.33285-.25115L9.0887,107.957a.53734.53734,0,0,1-.05042-.41391c2.23071-7.81067,5.1252-9.86426,5.24743-9.94787l.04212-.02585,5.38561-3.10863L17.9643,87.93237l-6.31683-.00223c-.37529-.037-3.81805-.52018-9.46949-5.98972a.53888.53888,0,0,1-.16308-.38391V70.08959a.53878.53878,0,0,1,.16244-.38327c5.9243-5.73346,9.38652-5.98462,9.53109-5.99243l6.25587.00015,1.74946-6.52824-5.47369-3.16352c-.30189-.21653-3.04161-2.35453-5.20179-9.919a.53731.53731,0,0,1,.05042-.41343l5.73378-9.93111a.53623.53623,0,0,1,.33253-.25068,30.6054,30.6054,0,0,1,7.3074-1.033,9.34864,9.34864,0,0,1,3.94443.61l5.41624,3.127,4.77927-4.77911-3.15778-5.47369c-.15445-.3421-1.45682-3.56753.45349-11.19358a.53445.53445,0,0,1,.25083-.33317l9.93064-5.73362a.53716.53716,0,0,1,.41359-.05042c7.80747,2.22943,9.86425,5.125,9.94818,5.24726l.0233.03814,3.11086,5.38992,6.52841-1.7493.00223-6.317c.03606-.37306.51188-3.80912,5.99-9.46917a.53644.53644,0,0,1,.38359-.16324h11.4666a.53641.53641,0,0,1,.38423.16371c5.64985,5.8375,5.98015,9.37025,5.99132,9.51785l.00127.038-.001,6.23,6.52872,1.74915L98.01253,13.852c.21637-.30285,2.34719-3.041,9.92042-5.20354a.53581.53581,0,0,1,.41359.05042l9.93127,5.73362a.53894.53894,0,0,1,.25052.33221c1.97572,7.88837.49337,11.10694.42955,11.24018l-.02043.0375-3.1131,5.39071,4.779,4.77895L126.13,33.02124l.022.00192a10.546,10.546,0,0,1,3.81167-.54811,30.60716,30.60716,0,0,1,7.30708,1.033.53838.53838,0,0,1,.33254.2502l5.73409,9.93143a.5338.5338,0,0,1,.05043.41407c-2.26231,7.92188-5.13574,9.87463-5.257,9.95393l-5.41784,3.1281,1.74915,6.52824,6.31682.00224c.374.03638,3.81071.51332,9.46918,5.98956a.53632.53632,0,0,1,.16339.38375V81.55651a.537.537,0,0,1-.16339.38391c-5.84612,5.65783-9.37184,5.98046-9.519,5.99131l-.03734.0016-6.2297-.001-1.74978,6.52809,5.46156,3.1549c.31434.22531,3.05374,2.36315,5.21423,9.92777a.53735.53735,0,0,1-.05138.41518l-5.73282,9.92936a.54011.54011,0,0,1-.33253.25083,30.61846,30.61846,0,0,1-7.30772,1.033,9.649,9.649,0,0,1-3.93262-.60379l-.03063-.01627-5.39742-3.11693-4.77894,4.779,3.15745,5.47369c.15446.34114,1.45874,3.56083-.45316,11.19374a.53652.53652,0,0,1-.25084.33317l-9.93063,5.73346a.54008.54008,0,0,1-.41391.05074c-7.81067-2.23071-9.86426-5.12552-9.94787-5.24775l-.01755-.02744-3.11693-5.40061-6.5284,1.74978L88.32,140.38845c-.03542.37274-.50518,3.80337-5.98972,9.46981A.5361.5361,0,0,1,81.94665,150.02166Zm-11.41522-.65358H81.895c5.38848-5.58,5.76123-8.90272,5.77463-9.04154l-.001-6.34874a.532.532,0,0,1,.39317-.51252l6.71063-1.79829a.53122.53122,0,0,1,.59741.24765l3.161,5.47688c.07149.104,1.98753,2.80035,9.53364,4.96435l9.84224-5.68207c1.87168-7.50941.53709-10.59.479-10.71761l-3.17469-5.4973a.53215.53215,0,0,1,.08361-.64017l4.913-4.913a.53316.53316,0,0,1,.64081-.08424l5.4772,3.16288a9.17582,9.17582,0,0,0,3.63806.53358,29.90511,29.90511,0,0,0,7.09965-1.00111l5.6824-9.84223c-2.13337-7.43888-4.82969-9.44014-4.94362-9.52183l-5.49794-3.1731a.53159.53159,0,0,1-.248-.59613l1.79892-6.71127a.53143.53143,0,0,1,.51284-.39348l6.32385.001c.126-.0099,3.40989-.31211,9.06612-5.77463V70.141c-5.5723-5.38066-8.90241-5.76059-9.04155-5.77415l-6.34842.0008a.532.532,0,0,1-.51284-.39333l-1.798-6.71031a.53112.53112,0,0,1,.24765-.59725l5.4839-3.16559c.01053-.00782,2.78216-1.94716,4.957-9.52885l-5.6824-9.8424a29.89008,29.89008,0,0,0-7.09965-1.00126,9.59322,9.59322,0,0,0-3.61253.5197l-5.50241,3.17692a.53168.53168,0,0,1-.64049-.08409l-4.91266-4.9125a.53262.53262,0,0,1-.08425-.641l3.16256-5.4764c.05489-.11393,1.43352-3.11389-.4672-10.73835l-9.84224-5.6824c-7.44686,2.13561-9.44045,4.82985-9.52183,4.94378L95.36983,19.7321a.53008.53008,0,0,1-.59741.24733l-6.71031-1.798a.5318.5318,0,0,1-.39349-.51268l.001-6.32417c-.00989-.12589-.32009-3.4177-5.77431-9.06595H70.53111c-5.38273,5.57405-5.7609,8.90288-5.77462,9.04218l.001,6.34794a.53151.53151,0,0,1-.39348.51268l-6.71031,1.798a.53125.53125,0,0,1-.59709-.24733l-3.16129-5.477c-.07148-.10387-1.9904-2.80115-9.53332-4.96436L34.52,14.97278c-1.87073,7.50367-.53741,10.59-.47965,10.71793l3.175,5.497a.53133.53133,0,0,1-.08488.64113L32.2188,36.74068a.53168.53168,0,0,1-.64113.08425L26.09409,33.6587h0a9.27324,9.27324,0,0,0-3.63168-.53007,29.88628,29.88628,0,0,0-7.09933,1.0011L9.68069,43.97165c2.133,7.43856,4.82968,9.44,4.94361,9.52183l5.49794,3.17341a.53117.53117,0,0,1,.24733.59725l-1.79829,6.71a.532.532,0,0,1-.51284.39349L11.7263,64.367c-.01309.00176-3.38308.2944-9.05782,5.77367v11.3648c5.565,5.37412,8.9024,5.76058,9.04218,5.77431l6.34778-.001a.53142.53142,0,0,1,.51284.39348l1.798,6.71031a.53071.53071,0,0,1-.24764.59709L14.64505,98.141c-.10436.07148-2.80036,1.98625-4.96468,9.534l5.68271,9.84191a29.8917,29.8917,0,0,0,7.099,1.00111,9.57108,9.57108,0,0,0,3.61637-.52178l5.4989-3.17532a.53246.53246,0,0,1,.64144.0852l4.91171,4.91171a.53146.53146,0,0,1,.08488.64017l-3.16319,5.4772c-.05458.11393-1.43321,3.11373.46752,10.73867l9.84223,5.68207c7.45452-2.13784,9.44014-4.82968,9.5212-4.94329l3.17341-5.49858a.53079.53079,0,0,1,.59741-.24733l6.71,1.79861a.53132.53132,0,0,1,.39348.51252l-.00063,6.32417C64.7667,140.4277,65.07625,143.71983,70.53143,149.36808Zm72.2398-41.73783-.00032.001Zm.00032-63.61344.00032.0008Z"/>
    </g>
    <g id="shield">
      <path class="cls-1" d="M76.01824,109.37125l-.29061-.572c-.02133-.04106-2.26763-4.20962-10.88072-5.18969a15.78653,15.78653,0,0,1-8.76779-4.02819l-.09517-.09549V56.78776l-3.49948-3.90851H99.55169l-3.49916,3.90851V99.48588l-.09517.09549a15.78961,15.78961,0,0,1-8.76811,4.02819c-8.65.9842-10.85907,5.14767-10.88039,5.18969ZM56.63584,99.21054a15.47977,15.47977,0,0,0,8.28492,3.75158c7.37742.83938,10.25078,3.90564,11.09748,5.08306.8467-1.17742,3.72006-4.24368,11.09716-5.08306a15.48128,15.48128,0,0,0,8.28524-3.75158v-42.672l2.69256-3.00737H53.943l2.69288,3.00737Zm19.37731,7.56077-.23078-.23014c-1.6466-1.64183-4.8526-3.74043-10.77694-4.41461a14.63337,14.63337,0,0,1-7.4796-3.22637l-.11714-.09772V55.72859h37.2191v43.071l-.1181.09772a14.76685,14.76685,0,0,1-7.47927,3.22923,19.65552,19.65552,0,0,0-9.43974,3.26807,11.24239,11.24239,0,0,0-1.3474,1.1459ZM58.06059,98.49594a13.96022,13.96022,0,0,0,7.01869,2.98318c5.84826.66527,9.152,2.69989,10.93259,4.37705a12.10439,12.10439,0,0,1,1.19525-.98866,20.28972,20.28972,0,0,1,9.74945-3.38839,14.08859,14.08859,0,0,0,7.01932-2.98763v-42.111H58.06059Z"/>
      <path class="cls-1" d="M59.35928,97.29815,69.90991,87.24249,66.455,84.19692l12.66069-8.171-2.66837-3.17257L89.27926,62.07708l.46378.45374L81.19424,73.165l3.21491,3.54372-12.24307,7.936,3.04843,2.93575Zm8.17288-13.02038L70.87439,87.224l-6.62017,6.30981,9.901-6.06854L71.122,84.54483l12.28891-7.966-3.07358-3.38839,6.81115-8.47271L77.366,72.933l2.725,3.23942Z"/>
    </g>
    <g id="text">
      <g>
        <path class="cls-1" d="M34.38581,105.23515,33.1495,103.3947l10.1693-6.83152,1.23631,1.84013Zm-.33168-1.66284.5093.75821,9.08705-6.10482-.5093-.75789Z"/>
        <path class="cls-1" d="M40.57753,112.62467l-1.35758-1.497,3.24515-6.32828-4.92932,4.471-1.43111-1.57689L45.179,99.463l1.34135,1.47822-3.20281,6.313,4.89844-4.44294,1.43652,1.58295Zm-.572-1.60077.6172.68022,8.10858-7.3545-.55991-.61783-7.03555,6.38079,4.60018-9.06572-.6016-.66335-8.10857,7.3545.55449.61179,7.09826-6.4381Z"/>
        <path class="cls-1" d="M47.61341,117.83155l-.1929-.03311a3.6784,3.6784,0,0,1-1.68066-.73942,3.22713,3.22713,0,0,1-1.341-3.072,8.97143,8.97143,0,0,1,2.05086-4.17174,9.10453,9.10453,0,0,1,3.65194-3.10605,3.38312,3.38312,0,0,1,3.45555.537,3.82544,3.82544,0,0,1,.60606.57869,3.69646,3.69646,0,0,1,.43831.65858l.09581.18493-1.35854,1.75738-.22886-.47555a3.007,3.007,0,0,0-.31958-.52839,1.99671,1.99671,0,0,0-.34855-.35619,1.59733,1.59733,0,0,0-1.77234-.20976,7.64937,7.64937,0,0,0-2.45638,2.303,7.32505,7.32505,0,0,0-1.52087,2.7992,1.44742,1.44742,0,0,0,.55513,1.55493,1.83654,1.83654,0,0,0,.49878.26961,3.56367,3.56367,0,0,0,.70792.1652l.5564.07767Zm3.79073-10.7222a3.01092,3.01092,0,0,0-1.07143.20977,8.49491,8.49491,0,0,0-3.36738,2.89469,8.37328,8.37328,0,0,0-1.91875,3.84643,2.58172,2.58172,0,0,0,1.09211,2.48344,3.14249,3.14249,0,0,0,.65858.39565,3.03345,3.03345,0,0,0,.544.17857l.48669-.629q-.1609-.04155-.30367-.09327a2.48922,2.48922,0,0,1-.67576-.367,2.091,2.091,0,0,1-.79673-2.19155,7.79515,7.79515,0,0,1,1.64565-3.07676,8.10318,8.10318,0,0,1,2.70021-2.49712,2.22537,2.22537,0,0,1,2.443.28679,2.62951,2.62951,0,0,1,.46537.47333q.07257.09357.14037.19735l.47587-.61529a3.08587,3.08587,0,0,0-.26006-.36351,3.20129,3.20129,0,0,0-.50356-.48A2.82613,2.82613,0,0,0,51.40414,107.10935Z"/>
        <path class="cls-1" d="M54.035,121.66588a3.43972,3.43972,0,0,1-1.5979-.43035,2.99183,2.99183,0,0,1-1.77744-2.66742,10.03959,10.03959,0,0,1,1.46518-4.56071,10.12644,10.12644,0,0,1,2.91442-3.8146,3.31573,3.31573,0,0,1,4.97674,2.59389,10.1557,10.1557,0,0,1-1.47758,4.57535,10.08736,10.08736,0,0,1-2.90615,3.80569A2.88223,2.88223,0,0,1,54.035,121.66588Zm2.61776-11.32411a2.25776,2.25776,0,0,0-1.25636.39629,9.71652,9.71652,0,0,0-2.69415,3.57173h0a9.62411,9.62411,0,0,0-1.39069,4.23795,2.67563,2.67563,0,0,0,3.9642,2.07441,9.678,9.678,0,0,0,2.68525-3.5625,9.73727,9.73727,0,0,0,1.4031-4.25514,2.33483,2.33483,0,0,0-1.41488-2.10719A2.79841,2.79841,0,0,0,56.65271,110.34177Zm-2.73394,9.79592a1.73067,1.73067,0,0,1-1.66984-2.04386,10.65846,10.65846,0,0,1,1.29137-3.382v-.00031a10.77045,10.77045,0,0,1,2.03653-2.99687,1.70193,1.70193,0,0,1,2.88292,1.49923,10.84173,10.84173,0,0,1-1.30761,3.38711,11.09059,11.09059,0,0,1-2.048,3.04525A1.8103,1.8103,0,0,1,53.91877,120.13769Zm.19894-5.1238a10.31088,10.31088,0,0,0-1.22071,3.1487,1.06432,1.06432,0,0,0,.54144,1.194,1.017,1.017,0,0,0,1.23981-.20372,10.77385,10.77385,0,0,0,1.89648-2.85426,10.50336,10.50336,0,0,0,1.23694-3.1538,1.03315,1.03315,0,0,0-.536-1.15895,1.04394,1.04394,0,0,0-1.27259.22217,10.40877,10.40877,0,0,0-1.88534,2.80589Z"/>
        <path class="cls-1" d="M65.1267,125.85959l-2.30041-.69455-.73752-5.05791-1.33784,4.43116-2.12216-.64107,3.54117-11.72741,2.12184.64075a4.31632,4.31632,0,0,1,2.5471,1.58326,3.2687,3.2687,0,0,1,.127,2.72631,3.56758,3.56758,0,0,1-1.22549,1.93181,2.49039,2.49039,0,0,1-1.616.45072Zm-1.71536-1.19875.90973.27438-.97785-6.201.44786.07671a1.97852,1.97852,0,0,0,1.56735-.28743,2.948,2.948,0,0,0,.98357-1.59186,2.67275,2.67275,0,0,0-.0557-2.19218,3.79563,3.79563,0,0,0-2.183-1.30507l-1.498-.45231-3.1643,10.47965.87439.26419,1.63642-5.4211.557.16489Zm.246-6.20891a2.99806,2.99806,0,0,1-.86006-.14228l-.77572-.23428,1.25159-4.14532.7302.22059a2.32227,2.32227,0,0,1,1.43524.90558,2.04171,2.04171,0,0,1,.01369,1.60714,2.66563,2.66563,0,0,1-.97115,1.575A1.53973,1.53973,0,0,1,63.65739,118.45193Zm-.82346-.812.15184.04583a1.44452,1.44452,0,0,0,1.15259-.00191,2.06149,2.06149,0,0,0,.69009-1.20893,1.52391,1.52391,0,0,0,.04233-1.09848c-.08785-.15565-.3425-.38643-1.05582-.60192l-.10632-.03215Z"/>
        <path class="cls-1" d="M69.52,126.4666l-2.20206-.25464,1.40788-12.16987,2.218.25656a7.19677,7.19677,0,0,1,1.69531.35841,3.01107,3.01107,0,0,1,1.07556.6901,3.04684,3.04684,0,0,1,.74134,1.32,4.28469,4.28469,0,0,1,.11554,1.66634,3.39083,3.39083,0,0,1-1.33243,2.52163,4.26347,4.26347,0,0,1-3.00738.56723c-.04615-.00541-.08817-.01019-.126-.015Zm-1.4795-.8276.90718.105.59173-5.113.35524.08212c.0401.00955.08689.01814.141.02642.06143.00987.15119.02132.27119.03533a3.64917,3.64917,0,0,0,2.55665-.45263,2.73687,2.73687,0,0,0,1.0606-2.06391,3.63843,3.63843,0,0,0-.09517-1.41329,2.40125,2.40125,0,0,0-.579-1.04086,2.36583,2.36583,0,0,0-.84415-.53858,6.71472,6.71472,0,0,0-1.53711-.31958l-1.5699-.18144Zm2.99019-5.57548a4.43949,4.43949,0,0,1-.51025-.03151l-.90018-.10377.50293-4.3484.78972.09072a2.59353,2.59353,0,0,1,1.72491.71714,2.12847,2.12847,0,0,1,.38675,1.70263,2.28881,2.28881,0,0,1-.73307,1.61319A1.99221,1.99221,0,0,1,71.03068,120.06352Zm-.68787-.70823.25242.02928a1.81252,1.81252,0,0,0,1.29615-.19576,1.69714,1.69714,0,0,0,.48574-1.17328,1.53287,1.53287,0,0,0-.22982-1.19875,2.04559,2.04559,0,0,0-1.3092-.49879l-.142-.01623Z"/>
        <path class="cls-1" d="M79.38753,126.8995a2.9255,2.9255,0,0,1-2.592-1.34676,10.04715,10.04715,0,0,1-1.15228-4.64952v-.00032a10.12381,10.12381,0,0,1,.47333-4.77684,3.31559,3.31559,0,0,1,5.5968-.41062,10.15262,10.15262,0,0,1,1.14909,4.66862,10.08029,10.08029,0,0,1-.47014,4.76507,2.97773,2.97773,0,0,1-2.68174,1.73827Q79.54542,126.89934,79.38753,126.8995Zm-3.09427-6.04339a9.63772,9.63772,0,0,0,1.046,4.33694,2.67527,2.67527,0,0,0,4.463-.32085,9.67126,9.67126,0,0,0,.4103-4.44135,9.74226,9.74226,0,0,0-1.044-4.35763,2.66557,2.66557,0,0,0-4.46108.32913,9.70662,9.70662,0,0,0-.41412,4.45408Zm3.18881,4.56135a1.70135,1.70135,0,0,1-1.58422-1.10326,10.67465,10.67465,0,0,1-.67991-3.55581v-.00032a10.78133,10.78133,0,0,1,.15566-3.62011,1.70194,1.70194,0,0,1,3.24069-.24064,10.86179,10.86179,0,0,1,.66908,3.56823,11.09628,11.09628,0,0,1-.14037,3.6669,1.65991,1.65991,0,0,1-1.52279,1.27992C79.57565,125.41555,79.52949,125.41746,79.48207,125.41746Zm-1.61414-4.70618a10.30619,10.30619,0,0,0,.61751,3.32027,1.06532,1.06532,0,0,0,1.08766.73083,1.0166,1.0166,0,0,0,.94792-.82537,10.77885,10.77885,0,0,0,.11237-3.42436,10.52235,10.52235,0,0,0-.6067-3.33331,1.03054,1.03054,0,0,0-1.066-.70442,1.04657,1.04657,0,0,0-.96511.85848,10.42306,10.42306,0,0,0-.12764,3.3782Z"/>
        <path class="cls-1" d="M86.37056,125.89747l-3.15188-11.83882,2.14285-.57073a4.31709,4.31709,0,0,1,2.99878.00891,3.26832,3.26832,0,0,1,1.54092,2.252,3.57318,3.57318,0,0,1-.02705,2.288A2.48478,2.48478,0,0,1,88.73623,119.27l4.1937,4.88093-2.32205.61784-3.28526-3.91423,1.19047,4.47222Zm-2.3542-11.37664,2.81639,10.579.88266-.23523-1.45753-5.47521.56245-.14738,4.02055,4.79021.91768-.24414-4.09089-4.76156.42144-.17a1.97845,1.97845,0,0,0,1.18219-1.06824,2.95031,2.95031,0,0,0,0-1.87165,2.6713,2.6713,0,0,0-1.1997-1.83536,3.7993,3.7993,0,0,0-2.54232.0366Zm2.18041,4.64-1.11408-4.18447.73784-.1964a2.31938,2.31938,0,0,1,1.69626.01592,2.04558,2.04558,0,0,1,.85689,1.36013,2.664,2.664,0,0,1,.00127,1.85064,2.03463,2.03463,0,0,1-1.39483.94569Zm-.3164-3.72229.77858,2.92461.15343-.04106a1.44274,1.44274,0,0,0,.97943-.607,2.0557,2.0557,0,0,0-.04838-1.39164,1.5237,1.5237,0,0,0-.54145-.95684,1.733,1.733,0,0,0-1.2137.04329Z"/>
        <path class="cls-1" d="M94.072,123.7247l-2.60439-12.31024,1.79875-.84383,7.80045,9.87327-2.03526.954-1.47185-1.82772-1.9299.90494.47905,2.29373ZM92.21247,111.785l2.32683,11.00008.826-.38738-.47906-2.29372,2.86-1.341,1.47185,1.82772.8276-.388-6.9703-8.82222Zm2.52641,7.669-1.63611-6.90568,4.25355,5.67829Zm-.27948-4.00717.72893,3.07644,1.166-.54685Z"/>
        <path class="cls-1" d="M103.52449,118.80271l-5.6837-8.4132-1.78412,1.20543-1.17487-1.73827,5.41187-3.65641,1.17455,1.7386-1.78411,1.2048,5.6837,8.41319Zm-5.50864-9.31846,5.68371,8.41319.763-.51566-5.6837-8.41319,1.78411-1.20512-.44435-.65794-4.33154,2.9262.44468.65795Z"/>
        <path class="cls-1" d="M108.79376,114.96805l-8.33139-8.98169,3.87953-3.59879,1.39419,1.50305-2.25394,2.091,1.90094,2.0499,2.062-1.91239,1.38368,1.49127-2.062,1.91271,2.22561,2.3994,2.25394-2.091,1.42665,1.53774Zm-7.41021-8.94731,7.44458,8.02613,2.92366-2.712-.53985-.58219-2.25394,2.091-3.11241-3.355,2.062-1.91271-.49688-.53571-2.062,1.91239-2.78774-3.00546,2.25394-2.091-.50738-.54749Z"/>
        <path class="cls-1" d="M114.65444,109.23819l-9.781-7.37646,1.4397-1.90953a4.22065,4.22065,0,0,1,3.28462-2.0082h.02165c1.16118.00795,2.58816.66208,4.3624,1.99992,1.77744,1.3404,2.80175,2.53469,3.13152,3.65131a4.20171,4.20171,0,0,1-1.01859,3.73375Zm-8.86806-7.50442,8.7401,6.59152,1.04755-1.3891a3.60091,3.60091,0,0,0,.91418-3.15634,10.73259,10.73259,0,0,0-6.87322-5.184,3.62156,3.62156,0,0,0-2.78105,1.7491Zm8.62774,5.34311-7.422-5.59712.68468-.9075a2.25971,2.25971,0,0,1,2.181-1.03927,11.10618,11.10618,0,0,1,5.63437,4.2545,2.25987,2.25987,0,0,1-.39439,2.38222ZM107.905,101.3518l6.38112,4.81218.29125-.38675a1.63278,1.63278,0,0,0,.31767-1.72841,10.71616,10.71616,0,0,0-5.12507-3.86967,1.63388,1.63388,0,0,0-1.57276.78591Z"/>
      </g>
      <g>
        <path class="cls-1" d="M37.50491,75.41481l-12.86759-1.1927.21581-2.33288a7.58219,7.58219,0,0,1,.33741-1.79716,3.17491,3.17491,0,0,1,.69964-1.14734,3.21008,3.21008,0,0,1,1.37063-.81105,4.52544,4.52544,0,0,1,1.752-.16186,3.57162,3.57162,0,0,1,2.68588,1.34167,4.49584,4.49584,0,0,1,.66908,3.15411c-.00541.05634-.01019.10711-.015.15215l5.36476.49751Zm-12.1584-1.78157L36.916,74.70562l.09231-.99949-5.41919-.50245.07353-.35682c.00891-.04249.01719-.09279.02451-.15024.00987-.0678.01941-.16266.03119-.28918a3.88172,3.88172,0,0,0-.54367-2.70657,2.91643,2.91643,0,0,0-2.2221-1.08,3.87906,3.87906,0,0,0-1.49987.13576,2.56859,2.56859,0,0,0-1.0953.6425,2.53073,2.53073,0,0,0-.55322.91243,7.09726,7.09726,0,0,0-.30175,1.63785Zm5.45738-.50229-4.575-.424.07639-.81852a2.73077,2.73077,0,0,1,.70983-1.82932,2.23874,2.23874,0,0,1,1.77806-.44483,2.406,2.406,0,0,1,1.71059.72892,2.4833,2.4833,0,0,1,.38643,1.85239Zm-3.86521-1.01286,3.27571.30367.02642-.28632a1.92807,1.92807,0,0,0-.24224-1.38018,1.81554,1.81554,0,0,0-1.26591-.49194,1.6379,1.6379,0,0,0-1.27736.2766,2.18269,2.18269,0,0,0-.5007,1.40884Z"/>
        <path class="cls-1" d="M38.26025,68.51565l-12.478-3.36133,1.44639-5.36874,2.05786.55417-.84606,3.14059,2.89246.77921.77413-2.87257,2.0413.54972-.7738,2.87289,3.37979.91036.84542-3.14058,2.10688.56706Zm-11.679-3.82129,11.2194,3.02233,1.10707-4.1103L38.06,63.37832l-.84543,3.14058-4.639-1.24936.77381-2.87288-.78272-.21072-.77412,2.87257-4.15105-1.11822.84606-3.14058-.79927-.21518Z"/>
        <path class="cls-1" d="M39.91959,62.64812,28.13552,57.344l2.282-5.07033,1.9439.87471-1.3353,2.966,2.732,1.22946,1.22071-2.71278,1.92831.86755-1.22135,2.7131,3.192,1.43684,1.3353-2.96615,1.98911.8954ZM28.9975,57.0171l10.59551,4.769L41.3402,57.9047l-.80054-.36033-1.33531,2.96615L34.8238,58.53861l1.22135-2.7131L35.306,55.493l-1.22135,2.71278-3.9206-1.76454,1.33531-2.966-.75471-.33964Z"/>
        <path class="cls-1" d="M42.47051,57.098,31.7464,49.88748l1.29806-1.93038a4.55168,4.55168,0,0,1,2.38317-2.07425A3.43647,3.43647,0,0,1,38.20805,46.6a3.75757,3.75757,0,0,1,1.56448,1.83122,2.6166,2.6166,0,0,1-.05538,1.78364l6.73284.96463-1.3945,2.07457-5.41505-.83985,4.11763,2.7688ZM32.651,49.71018l9.6425,6.48314.5599-.833-4.97387-3.34446.32754-.48366,6.53836,1.01428.58409-.86882L38.75172,50.735l.205-.40536a2.11366,2.11366,0,0,0,.19862-1.68878A3.13986,3.13986,0,0,0,37.84454,47.141a2.84634,2.84634,0,0,0-2.24948-.62818,4.03255,4.03255,0,0,0-2.00947,1.80815Zm4.98884,2.14508-3.76972-2.535.43959-.65413a2.43992,2.43992,0,0,1,1.35058-1.16134,2.14489,2.14489,0,0,1,1.61477.48319,2.80312,2.80312,0,0,1,1.28246,1.46214,2.1348,2.1348,0,0,1-.44945,1.70916ZM34.77478,49.143l2.68811,1.80767.10409-.15518a1.545,1.545,0,0,0,.35969-1.18108c-.05794-.2225-.28139-.59173-1.01541-1.08543a1.63245,1.63245,0,0,0-1.11184-.38722c-.18812.04106-.50548.2287-.94856.88808Z"/>
        <path class="cls-1" d="M46.45541,51.39928l-9.37958-8.8897,1.5874-1.67509,7.796,7.38919,2.43982-2.57415,1.58359,1.50066Zm-8.45776-8.91453,8.43293,7.993L49.56082,47.175l-.63694-.604-2.43983,2.57416-7.796-7.3892Z"/>
        <path class="cls-1" d="M50.58895,47.13841,42.70447,36.89989l4.40569-3.39269L48.40982,35.196l-2.57671,1.98433,1.82805,2.37347,2.35738-1.81515L51.308,39.41372,48.95062,41.229l2.13585,2.7731,2.5767-1.98433,1.33116,1.72809Zm-6.9703-10.1198L50.708,46.22423l3.37215-2.59707-.53539-.69518-2.57734,1.98433-2.931-3.806L50.39383,39.295l-.49433-.64218L47.54211,40.468l-2.62318-3.40637,2.57671-1.98433-.50452-.65556Z"/>
        <path class="cls-1" d="M55.19677,43.07537l-.04806-.00015-.19226-.00144-1.17678-2.16513.58218.031a5.35863,5.35863,0,0,0,1.137-.045,2.54284,2.54284,0,0,0,.79927-.25895,1.311,1.311,0,0,0,.68914-.769,1.26737,1.26737,0,0,0-.14674-1.00107c-.29444-.54161-1.1214-.94506-2.45766-1.19875l-.38993-.07783a6.66963,6.66963,0,0,1-2.2482-.77874,3.76679,3.76679,0,0,1-1.32321-1.42952,3.54594,3.54594,0,0,1-.35619-2.6932,3.22685,3.22685,0,0,1,1.63738-2.05691,4.80476,4.80476,0,0,1,1.10739-.437,4.75222,4.75222,0,0,1,1.2048-.1426l.19321.00047,1.17806,2.16863-.62293-.07161a3.66963,3.66963,0,0,0-.975.006,2.36647,2.36647,0,0,0-.7668.25194,1.39422,1.39422,0,0,0-.72543.81026,1.305,1.305,0,0,0,.14547,1.04739c.1964.36175.79864.85863,2.55442,1.17233.1356.02466.239.04122.31131.05092a6.33035,6.33035,0,0,1,2.21606.76951A3.94665,3.94665,0,0,1,58.87482,37.741a3.499,3.499,0,0,1,.346,2.71756,3.42415,3.42415,0,0,1-1.74528,2.09685,4.12727,4.12727,0,0,1-1.073.39661A5.5705,5.5705,0,0,1,55.19677,43.07537Zm-.29921-1.47519.44627.82155a4.7672,4.7672,0,0,0,.91673-.106,3.47564,3.47564,0,0,0,.90367-.33311,2.75873,2.75873,0,0,0,1.43016-1.70485,2.83094,2.83094,0,0,0-.29252-2.22529,3.30255,3.30255,0,0,0-1.1265-1.24427,5.67641,5.67641,0,0,0-1.97032-.6772c-.06366-.00811-.1773-.02626-.32467-.053-1.63611-.29236-2.62159-.784-3.01183-1.50273a1.9481,1.9481,0,0,1-.19513-1.55191,2.03886,2.03886,0,0,1,1.03705-1.18967,3.015,3.015,0,0,1,.97752-.32324,3.80517,3.80517,0,0,1,.54749-.043l-.41348-.76124a4.08975,4.08975,0,0,0-.85147.11921,4.15918,4.15918,0,0,0-.95683.378,2.56657,2.56657,0,0,0-1.31939,1.65472,2.87725,2.87725,0,0,0,.30016,2.21145,3.124,3.124,0,0,0,1.09435,1.18712,6.15856,6.15856,0,0,0,2.03048.69264l.388.07767c1.55652.29539,2.508.79529,2.90615,1.52756a1.90928,1.90928,0,0,1,.19767,1.50018,1.95248,1.95248,0,0,1-1.00172,1.15371,3.18982,3.18982,0,0,1-1.00426.32929A5.08063,5.08063,0,0,1,54.89756,41.60018Z"/>
        <path class="cls-1" d="M61.59572,40.26376a5.91271,5.91271,0,0,1-.97689-.08594l-.18971-.032-.81774-2.32476.56978.12318a5.74581,5.74581,0,0,0,1.12967.13624,2.52626,2.52626,0,0,0,.83015-.12844,1.30859,1.30859,0,0,0,.80277-.64966,1.26637,1.26637,0,0,0,.01432-1.01143c-.20467-.58186-.95683-1.11153-2.23579-1.57451l-.37147-.13862a6.68548,6.68548,0,0,1-2.09669-1.12617,3.77617,3.77617,0,0,1-1.07906-1.62194,3.5487,3.5487,0,0,1,.07639-2.71548,3.226,3.226,0,0,1,1.94391-1.77043,4.65992,4.65992,0,0,1,2.37457-.20483l.19067.03135.81837,2.32794-.60351-.16949a3.667,3.667,0,0,0-.96384-.14881H60.9957a2.35046,2.35046,0,0,0-.7808.12668,1.3942,1.3942,0,0,0-.84543.68484,1.30676,1.30676,0,0,0-.02292,1.05678c.13656.38834.65285.97482,2.33574,1.56385.12956.04536.2295.07862.2989.09963a6.31548,6.31548,0,0,1,2.06613,1.11249A3.94248,3.94248,0,0,1,65.14548,35.504a3.5014,3.5014,0,0,1-.0904,2.73792,3.42155,3.42155,0,0,1-2.0569,1.79271,4.13592,4.13592,0,0,1-1.1214.22091Q61.7388,40.26385,61.59572,40.26376Zm-.68023-.70012a4.76407,4.76407,0,0,0,.92214.04123,3.4879,3.4879,0,0,0,.94442-.18526A2.7581,2.7581,0,0,0,64.46558,37.964a2.83508,2.83508,0,0,0,.06493-2.24375A3.30264,3.30264,0,0,0,63.616,34.313a5.6689,5.6689,0,0,0-1.8379-.982c-.06112-.018-.17-.05411-.31131-.10361-1.56894-.54908-2.4637-1.19127-2.73522-1.96285a1.94837,1.94837,0,0,1,.05411-1.56289,2.03989,2.03989,0,0,1,1.21307-1.01015,2.966,2.966,0,0,1,1.01668-.16345,3.79587,3.79587,0,0,1,.54717.04457l-.28743-.81742a4.03932,4.03932,0,0,0-.85943-.01782,4.16207,4.16207,0,0,0-1.00426.22138,2.56565,2.56565,0,0,0-1.56608,1.42363,2.8793,2.8793,0,0,0-.05538,2.231,3.13331,3.13331,0,0,0,.8919,1.34644,6.17335,6.17335,0,0,0,1.89456,1.00649l.37051.138c1.48968.53937,2.34975,1.18426,2.626,1.97048a1.90818,1.90818,0,0,1-.043,1.51228,1.95078,1.95078,0,0,1-1.17264.97991,3.17485,3.17485,0,0,1-1.04437.16536,5.07891,5.07891,0,0,1-.70792-.05077Z"/>
        <path class="cls-1" d="M69.81792,38.0859,68.12835,25.27369l2.28736-.30143,1.69021,12.81157Zm-.9581-12.251,1.519,11.51956.99567-.13146-1.5196-11.51924Z"/>
        <path class="cls-1" d="M80.18011,37.6678l-2.10624-.03517-2.56333-7.17-.12,7.12452-2.21542-.03724.218-12.92123,2.07982.03518,2.58275,7.12468.11905-7.07885,2.22369.0374Zm-1.644-.67942,1.003.01671.19672-11.61728-.91991-.01544-.16807,9.963L75.01334,25.30807l-.97911-.01671-.1964,11.61776.91164.01528.16965-10.05232Z"/>
        <path class="cls-1" d="M83.99917,38.51068a4.08618,4.08618,0,0,1-.80468-.08308,4.13336,4.13336,0,0,1-1.07715-.38388,5.60978,5.60978,0,0,1-1.04119-.70966l-.14674-.1243.48606-2.4158.42653.39677a5.37015,5.37015,0,0,0,.90113.69471,2.533,2.533,0,0,0,.7789.314,1.31006,1.31006,0,0,0,1.0224-.14833,1.26434,1.26434,0,0,0,.529-.86182c.12159-.60479-.254-1.44448-1.11631-2.49617l-.24955-.31035a6.76511,6.76511,0,0,1-1.2258-2.03844,3.76829,3.76829,0,0,1-.09772-1.9455A3.5447,3.5447,0,0,1,83.83747,26.104a3.22734,3.22734,0,0,1,2.57575-.52823,4.66867,4.66867,0,0,1,2.14571,1.03832l.14738.1243-.48606,2.41866L87.788,28.703a3.68685,3.68685,0,0,0-.75216-.6207,2.361,2.361,0,0,0-.74962-.29825,1.3986,1.3986,0,0,0-1.07715.15661,1.30579,1.30579,0,0,0-.55959.89651c-.08116.40361.06271,1.17153,1.2083,2.53787q.13131.15756.20467.23714a6.32278,6.32278,0,0,1,1.2083,2.01361,3.94391,3.94391,0,0,1,.085,2.005,3.5002,3.5002,0,0,1-1.47695,2.3071A3.29469,3.29469,0,0,1,83.99917,38.51068ZM81.645,36.95782a4.77411,4.77411,0,0,0,.77158.50658,3.47087,3.47087,0,0,0,.90654.324,2.75841,2.75841,0,0,0,2.19091-.39072,2.834,2.834,0,0,0,1.20257-1.89536A3.30067,3.30067,0,0,0,86.65,33.82551a5.67355,5.67355,0,0,0-1.07747-1.7838c-.04266-.0452-.1181-.13257-.21486-.24828-1.06761-1.27355-1.50846-2.28274-1.3474-3.08488a1.94961,1.94961,0,0,1,.84543-1.31572,2.04316,2.04316,0,0,1,1.55907-.248,3.01038,3.01038,0,0,1,.95747.3791,3.79673,3.79673,0,0,1,.44722.318l.17093-.84925a4.08829,4.08829,0,0,0-.72956-.45454,4.14681,4.14681,0,0,0-.97625-.32324,2.56489,2.56489,0,0,0-2.07346.42319,2.8769,2.8769,0,0,0-1.18792,1.88916,3.1244,3.1244,0,0,0,.07767,1.613A6.15538,6.15538,0,0,0,84.215,31.97344l.2486.30891c1.00426,1.22469,1.41329,2.21845,1.249,3.03539a1.90727,1.90727,0,0,1-.80977,1.27784,1.95246,1.95246,0,0,1-1.5091.243,3.18475,3.18475,0,0,1-.982-.39168,5.08749,5.08749,0,0,1-.58218-.40584Z"/>
        <path class="cls-1" d="M90.52162,40.42737l-2.16927-.81152,3.763-10.06044-2.133-.79784.76394-2.04369,6.4365,2.40768-.76457,2.0429-2.13362-.79768Zm-1.33021-1.19381.94824.35475,3.763-10.06059,2.13362.798.30748-.82187L91.129,27.55294l-.30749.82234,2.133.79784Z"/>
        <path class="cls-1" d="M98.87974,44.88766l-2.16-1.25827.488-5.45707-2.49681,4.28761L92.717,41.29906l6.50175-11.168,2.01043,1.17058a4.55029,4.55029,0,0,1,2.22434,2.24407,3.44407,3.44407,0,0,1-.53635,2.821,3.75786,3.75786,0,0,1-1.72619,1.67955,2.61859,2.61859,0,0,1-1.78379.06016ZM97.406,43.27479l.90463.5268.515-6.62525.41762.17857a2.11319,2.11319,0,0,0,1.69881.0888,3.13712,3.13712,0,0,0,1.41169-1.405,2.84535,2.84535,0,0,0,.48192-2.28513,4.03209,4.03209,0,0,0-1.93436-1.88852l-1.447-.84272-5.846,10.0415.86707.50483,3.016-5.17918.50388.29443Zm2.23452-6.30392a2.59618,2.59618,0,0,1-1.27928-.409l-.72479-.42255L99.92252,32.213l.68118.39741a2.43822,2.43822,0,0,1,1.24585,1.27259,2.14337,2.14337,0,0,1-.37783,1.64215,2.80111,2.80111,0,0,1-1.376,1.37446A1.43792,1.43792,0,0,1,99.6405,36.97087Zm-1.11281-1.06649.1617.09422a1.54341,1.54341,0,0,0,1.2013.28218c.21867-.07242.57263-.31927,1.01763-1.08352a1.62864,1.62864,0,0,0,.3148-1.13477c-.05315-.18462-.26037-.48876-.9476-.88887l-.11809-.06876Z"/>
        <path class="cls-1" d="M103.55536,48.27668a3.75089,3.75089,0,0,1-2.40863-1.08909,3.57043,3.57043,0,0,1-1.42411-2.46577,4.00082,4.00082,0,0,1,1.20511-2.69877l6.13443-7.0268,1.71918,1.50129-6.2226,7.12787a1.55865,1.55865,0,0,0-.47905,1.01461,1.64327,1.64327,0,0,0,1.46071,1.27689,1.56837,1.56837,0,0,0,.93933-.614l6.22292-7.128,1.72586,1.50671-6.13442,7.02632a4,4,0,0,1-2.51145,1.55812Q103.66948,48.27676,103.55536,48.27668Zm-2.1368-5.82487a3.40172,3.40172,0,0,0-1.04468,2.243,3.79769,3.79769,0,0,0,3.34764,2.92222,3.40061,3.40061,0,0,0,2.08173-1.33785L111.5086,39.744l-.74356-.64919-5.79416,6.63671a2.17346,2.17346,0,0,1-1.36268.83381,2.25856,2.25856,0,0,1-2.17977-1.90157,2.15981,2.15981,0,0,1,.63948-1.46708l5.79352-6.63672-.73688-.64377Z"/>
        <path class="cls-1" d="M109.62136,56.874,108.316,55.11155l4.82968-4.02771-5.75723,2.7766-.9858-1.33164,4.33344-4.69838-5.261,3.447-1.29456-1.74846,11.04242-6.803,1.22866,1.65791-4.91053,5.37972,6.5982-3.10143,1.19716,1.6162Zm-.4154-1.65584.516.69646,8.73469-7.72867-.52362-.70681-9.08928,4.27249,6.76436-7.41084-.55258-.746-9.92834,6.11676.50579.68309,9.1609-6.00233-7.54644,8.182.34409.46457,10.02637-4.83542Z"/>
        <path class="cls-1" d="M112.01567,62.28955l-2.38413-5.02338,11.67489-5.54062,2.38413,5.02289-1.92544.91371-1.39483-2.93862L117.664,56.00822l1.27578,2.688-1.91017.90654-1.27578-2.688-3.16175,1.501,1.39419,2.93846Zm-1.51578-4.714,1.82517,3.84563.79291-.3764-1.39419-2.93845,4.33949-2.05993,1.27578,2.688.73242-.3476-1.27577-2.688,3.884-1.84363,1.39482,2.93861.74771-.35475L120.997,52.59389Z"/>
        <path class="cls-1" d="M114.03756,69.51832l-.54176-2.03574,6.19522-4.427-6.88563,1.833-.57009-2.14046,12.48785-3.32489.53508,2.01044L119.112,65.86621l6.84171-1.82167.572,2.14873Zm.20435-1.76741.25783.96973,11.22831-2.98955-.2365-.88887-9.62945,2.56365,8.65065-6.23836-.25178-.94665-11.228,2.98939.23459.8806,9.71476-2.58609Z"/>
        <path class="cls-1" d="M125.28146,75.54707l-.17889-2.27065-10.70787.84224-.18207-2.30837,10.70851-.84272-.17921-2.27081,2.17532-.17093.53889,6.8503Zm.41953-2.97157.17889,2.27065.87535-.06875-.437-5.55065-.87535.06875.17921,2.27081-10.70851.84272.07958,1.00872Z"/>
      </g>
      <path class="cls-1" d="M32.61888,88.4753a1.27721,1.27721,0,1,1,1.27706-1.27706A1.27866,1.27866,0,0,1,32.61888,88.4753Zm0-1.90253a.62532.62532,0,1,0,.62516.62547A.626.626,0,0,0,32.61888,86.57277Z"/>
      <path class="cls-1" d="M119.42842,88.4753a1.27721,1.27721,0,1,1,1.27737-1.27706A1.27859,1.27859,0,0,1,119.42842,88.4753Zm0-1.90253a.62532.62532,0,1,0,.62547.62547A.62591.62591,0,0,0,119.42842,86.57277Z"/>
    </g>
  </g>
</svg>
