<svg xmlns="http://www.w3.org/2000/svg" viewBox="0 0 472 472">
  <defs>
    <style>
      .cls-1 {
        fill: #efefef;
      }
    </style>
  </defs>
  <title>peerless-logo-outline</title>
  <g id="Logo">
    <g id="gear">
      <path class="cls-1" d="M466.838,215.88017c-21.02128-20.94783-33.38031-20.94783-33.38031-20.94783H417.77524a.62571.62571,0,0,1-.60442-.46388l-3.52612-13.16a.62581.62581,0,0,1,.29162-.704l13.58129-7.84121s10.70331-6.17949,18.43438-34.83144a.6414.6414,0,0,0-.062-.48379l-9.81531-17.00061-9.81531-17.00054a.6407.6407,0,0,0-.388-.29548c-28.67873-7.63064-39.382-1.45116-39.382-1.45116l-13.58129,7.84122a.62594.62594,0,0,1-.75553-.09949l-9.63377-9.6339a.62589.62589,0,0,1-.09948-.75546l7.84128-13.58136s6.17952-10.70321-1.45113-39.38208a.6415.6415,0,0,0-.29551-.388l-17.00054-9.81527L334.51284,26.0706a.64084.64084,0,0,0-.48375-.06188c-28.652,7.731-34.83157,18.43428-34.83157,18.43428l-7.84115,13.58132a.62571.62571,0,0,1-.70391.29159l-13.16015-3.52625a.62583.62583,0,0,1-.46391-.60453V38.50271s0-12.359-20.9478-33.38028a.64076.64076,0,0,0-.44983-.18828H216.36953a.64079.64079,0,0,0-.44983.18828c-20.9478,21.02131-20.9478,33.38028-20.9478,33.38028V54.18513a.62582.62582,0,0,1-.46391.60453l-13.16015,3.52611a.62577.62577,0,0,1-.70391-.29162l-7.84114-13.58132s-6.17952-10.70321-34.83157-18.43427a.641.641,0,0,0-.48376.06187l-17.00041,9.81528L103.48637,45.701a.64165.64165,0,0,0-.29551.388c-7.63064,28.67886-1.45112,39.3821-1.45112,39.3821L109.581,99.05244a.62594.62594,0,0,1-.09949.75549l-9.6339,9.63367a.62587.62587,0,0,1-.75553.09945l-13.58129-7.84118s-10.70317-6.17951-39.38218,1.45123a.64114.64114,0,0,0-.388.29547l-9.81517,17.00055-9.81531,17.00061a.6414.6414,0,0,0-.062.48379c7.73121,28.652,18.43425,34.83144,18.43425,34.83144l13.58142,7.84121a.626.626,0,0,1,.29162.704L54.82922,194.4681a.62571.62571,0,0,1-.60442.46387H38.54224s-12.35891,0-33.38018,20.9478a.641.641,0,0,0-.18831.44993v39.26111a.64087.64087,0,0,0,.18831.4499c21.02127,20.94783,33.38018,20.94783,33.38018,20.94783H54.2248a.62572.62572,0,0,1,.60442.46388l3.52612,13.16a.62579.62579,0,0,1-.29162.704l-13.58129,7.84121s-10.70331,6.17949-18.43438,34.83154a.64112.64112,0,0,0,.06194.48379l9.81531,17.00051,9.81518,17.00061a.64126.64126,0,0,0,.388.29548c28.67887,7.63067,39.38218,1.45115,39.38218,1.45115L99.092,362.37953a.62588.62588,0,0,1,.75553.09945l9.63376,9.63383a.62565.62565,0,0,1,.09935.75546l-7.84114,13.58143s-6.17952,10.70314,1.45112,39.382a.64157.64157,0,0,0,.29551.388l17.00041,9.81527,17.00068,9.81528a.64094.64094,0,0,0,.48376.06191c28.65192-7.73107,34.83143-18.43421,34.83143-18.43421l7.84128-13.58142a.62575.62575,0,0,1,.70391-.29159l13.16015,3.52632a.6257.6257,0,0,1,.46378.60452v15.68243s0,12.359,20.9478,33.38028a.64124.64124,0,0,0,.45.18831h39.2611a.64121.64121,0,0,0,.45-.18831c20.9478-21.02131,20.9478-33.38028,20.9478-33.38028V417.73581a.62583.62583,0,0,1,.46391-.60452l13.16-3.52618a.62589.62589,0,0,1,.704.29162l7.84114,13.58139s6.17952,10.70324,34.83157,18.43427a.64087.64087,0,0,0,.48375-.06188l17.00042-9.81527L368.51367,426.22a.64093.64093,0,0,0,.29537-.388c7.63078-28.67887,1.45113-39.38211,1.45113-39.38211L362.419,372.86844a.62591.62591,0,0,1,.09949-.75549l9.6339-9.63367a.62587.62587,0,0,1,.75553-.09945l13.58129,7.84121s10.703,6.17948,39.382-1.45119a.6409.6409,0,0,0,.388-.29548l9.81531-17.00061,9.81531-17.00051a.64071.64071,0,0,0,.06181-.48379c-7.7312-28.652-18.43424-34.83147-18.43424-34.83147l-13.58129-7.84121a.62573.62573,0,0,1-.29162-.704l3.52611-13.16a.626.626,0,0,1,.60456-.46387h15.68243s12.359,0,33.38031-20.9478a.64117.64117,0,0,0,.18824-.44993V216.33007A.64115.64115,0,0,0,466.838,215.88017Zm-4.78431,37.625a.63963.63963,0,0,1-.19468.45553c-17.5996,17.03353-28.0491,18.02142-28.50845,18.05631-.01649.00124-.0232.001-.04.001l-19.35173-.00238a.62464.62464,0,0,0-.60335.46287l-5.50323,20.5341a.62451.62451,0,0,0,.29108.70254l16.8607,9.73359a.52044.52044,0,0,1,.04653.02963c.45962.32909,8.89781,6.5309,15.54915,29.82242a.64034.64034,0,0,1-.05913.49186l-17.54571,30.3888a.63871.63871,0,0,1-.39579.29755,92.60335,92.60335,0,0,1-22.117,3.13082c-7.84383,0-11.35694-1.63049-11.59989-1.7479-.01421-.00684-.02011-.0105-.03379-.01834l-16.76041-9.679a.6245.6245,0,0,0-.75392.09922l-15.032,15.032a.62469.62469,0,0,0-.09922.75388l9.73459,16.85913a.53314.53314,0,0,1,.02588.05c.23584.52153,4.43838,10.11309-1.44469,33.60107a.64039.64039,0,0,1-.29712.3964l-30.3893,17.5447a.64042.64042,0,0,1-.49193.05916c-23.54422-6.72371-29.62787-15.27657-29.89093-15.6605a.40126.40126,0,0,1-.02132-.03466l-9.67332-16.76a.62461.62461,0,0,0-.70257-.29105L272.518,413.316a.62456.62456,0,0,0-.46284.60325v19.46933a.4899.4899,0,0,1-.00214.05252c-.052.54325-1.18941,10.95551-18.05279,28.37844a.64016.64016,0,0,1-.45546.19468H218.45525a.64.64,0,0,1-.45546-.19468c-17.03353-17.59978-18.02142-28.04928-18.05641-28.50846-.00121-.01663-.00094-.0233-.00094-.03995l.00228-19.35184a.62433.62433,0,0,0-.46284-.60332l-20.534-5.50326a.62454.62454,0,0,0-.70257.291L168.51135,424.965a.46117.46117,0,0,1-.02856.045c-.31964.44795-6.51337,8.89419-29.82322,15.55019a.63986.63986,0,0,1-.4918-.05916l-30.3893-17.5447a.63991.63991,0,0,1-.29711-.3964c-5.95119-23.75962-1.58186-33.30312-1.38288-33.71712.00724-.015.01072-.02061.019-.035l9.67828-16.75927a.62437.62437,0,0,0-.09922-.75392l-15.032-15.032a.62443.62443,0,0,0-.75379-.09925L83.0242,365.91372l.00121-.00124c-.01207,0-3.5052,1.69739-11.50885,1.69739a92.5869,92.5869,0,0,1-22.11562-3.13078.63851.63851,0,0,1-.3958-.29756l-17.5457-30.38879a.64041.64041,0,0,1-.05913-.4919c6.7236-23.54432,15.27657-29.62794,15.66043-29.891.01395-.00955.02012-.01283.03473-.02128l16.76-9.67336a.62449.62449,0,0,0,.29108-.70253l-5.50215-20.5341a.62445.62445,0,0,0-.60322-.46291H38.57254a.50668.50668,0,0,1-.05471-.00234c-.56165-.05488-10.97133-1.20687-28.37692-18.05256a.6402.6402,0,0,1-.19468-.45553v-35.09a.64022.64022,0,0,1,.19468-.45557c17.91026-17.33343,28.41581-18.05068,28.52347-18.05611l19.37681.00178a.62464.62464,0,0,0,.60335-.46287l5.50323-20.53353a.62473.62473,0,0,0-.29108-.70254L46.996,168.47156a.51133.51133,0,0,1-.04652-.0296c-.45935-.32893-8.89781-6.53057-15.54915-29.82185a.64029.64029,0,0,1,.05913-.49186l17.5457-30.3888a.63835.63835,0,0,1,.3958-.29755,92.594,92.594,0,0,1,22.11683-3.13079c8.0971,0,11.57937,1.738,11.61329,1.75565l16.78079,9.68961a.62477.62477,0,0,0,.75406-.09925l15.032-15.03141a.62475.62475,0,0,0,.09922-.75392l-9.7346-16.85973a.50438.50438,0,0,1-.02587-.05c-.23585-.52132-4.43852-10.11229,1.44469-33.6005a.63983.63983,0,0,1,.29711-.39636l30.3893-17.54531a.64.64,0,0,1,.4918-.05919c23.54838,6.72484,29.63015,15.27948,29.8912,15.66127a.3913.3913,0,0,1,.02105.03432l9.67346,16.76022a.62464.62464,0,0,0,.70257.29108l20.534-5.50209a.62455.62455,0,0,0,.463-.60328V38.533a.45864.45864,0,0,1,.00215-.05256c.052-.54329,1.18954-10.955,18.05279-28.3784a.63988.63988,0,0,1,.45546-.19468h35.0894a.6402.6402,0,0,1,.4556.19468c17.03286,17.599,18.02128,28.04837,18.05627,28.50782.00121.01662.00108.02333.00108.04l-.00242,19.35237a.6246.6246,0,0,0,.463.60332l20.534,5.50209a.62461.62461,0,0,0,.70257-.291L303.48855,46.956a.49045.49045,0,0,1,.02856-.045c.31977-.448,6.51364-8.89363,29.82322-15.55019a.64021.64021,0,0,1,.49193.05919l30.3893,17.54531a.64031.64031,0,0,1,.29712.39636c5.95118,23.759,1.58185,33.30245,1.38288,33.71651-.00724.015-.01073.02062-.019.035l-9.67828,16.75867a.62423.62423,0,0,0,.09922.75395l15.03188,15.032a.62457.62457,0,0,0,.75392.09925l16.88658-9.75031-.00134.0012c.0122,0,3.50533-1.69675,11.50764-1.69675a92.6068,92.6068,0,0,1,22.117,3.13139.63871.63871,0,0,1,.39579.29755l17.54571,30.3888a.64036.64036,0,0,1,.05913.49186c-6.84428,23.96623-15.58374,29.84039-15.67317,29.89844l-16.78214,9.68724a.62444.62444,0,0,0-.291.70253l5.502,20.53353a.6247.6247,0,0,0,.60335.46287H433.4275a.49659.49659,0,0,1,.0547.00238c.56166.05488,10.9712,1.20681,28.37679,18.05192a.63965.63965,0,0,1,.19468.45557Z"/>
    </g>
    <g id="shield">
      <path class="cls-1" d="M236.00006,165.97072H166.03645l9.49881,10.60885v130.965a47.88075,47.88075,0,0,0,26.30489,12.07218c27.38038,3.11545,34.15991,16.46209,34.15991,16.46209s6.77952-13.34664,34.15979-16.46209a47.88075,47.88075,0,0,0,26.30489-12.07218v-130.965l9.49881-10.60885ZM292.0938,305.383a44.246,44.246,0,0,1-22.42144,9.68434c-12.11911,1.37935-22.02432,4.81429-29.43709,10.21056a35.43184,35.43184,0,0,0-4.25235,3.61822c-4.83911-4.825-14.83524-11.68741-33.65634-13.82878a43.83482,43.83482,0,0,1-22.42038-9.67254V174.71261H292.0938Z"/>
      <polygon class="cls-1" points="192.4 295.472 231.909 271.257 222.58 262.274 260.212 237.88 250.566 227.246 277.329 193.955 238.726 226.373 246.999 236.209 208.313 261.176 218.739 270.368 192.4 295.472"/>
    </g>
    <g id="text">
      <g>
        <path class="cls-1" d="M105.86737,320.22394,135.40662,300.38l2.67792,3.98566-29.53925,19.84392Z"/>
        <path class="cls-1" d="M114.95913,333.20771l26.35834-23.90706,2.98087,3.285L132.32863,336.177l18.30607-16.604,3.063,3.37631-26.3595,23.90706-3.02943-3.33931,12.14663-23.68621-18.45062,16.73471Z"/>
        <path class="cls-1" d="M148.432,363.15628a10.28157,10.28157,0,0,1-4.713-2.0732,8.92149,8.92149,0,0,1-3.73244-8.52287q.588-5.18241,6.08892-12.29925,5.60559-7.24982,10.76719-9.20507a9.39847,9.39847,0,0,1,9.63636,1.50315,10.77776,10.77776,0,0,1,1.702,1.6234,10.3078,10.3078,0,0,1,1.22565,1.84194l-2.78777,3.60526a10.17847,10.17847,0,0,0-1.08921-1.798,7.07192,7.07192,0,0,0-1.24993-1.27305,5.8702,5.8702,0,0,0-6.46586-.762q-3.43759,1.5783-7.91,7.36313-4.17471,5.3992-4.85749,9.01429a5.45431,5.45431,0,0,0,2.07319,5.74666,6.6002,6.6002,0,0,0,1.80147.97705,11.91291,11.91291,0,0,0,2.37382.55617Z"/>
        <path class="cls-1" d="M163.58147,352.97416q4.53027-8.66163,8.60381-11.3303,4.07584-2.66753,8.84316-.1746,4.74533,2.48194,4.87715,7.32382.13354,4.84247-4.41927,13.54571-4.53027,8.66163-8.57722,11.30255-4.04637,2.64324-8.79228.15956-4.76788-2.49234-4.91646-7.3296Q159.0512,361.63406,163.58147,352.97416Zm4.343,2.16107q-3.50176,6.69654-3.85385,10.01793-.35208,3.32311,2.19113,4.654a4.09424,4.09424,0,0,0,4.92109-.75389q2.40216-2.07263,6.05077-9.049,3.559-6.80408,3.90357-10.03412a4.2267,4.2267,0,0,0-7.19779-3.73706Q171.45914,348.37509,167.92442,355.13523Z"/>
        <path class="cls-1" d="M193.515,366.93613l-5.02284,16.63758L183.896,382.185l10.28618-34.066,5.55241,1.67659q5.531,1.6685,7.2556,4.43083,1.72573,2.76117.281,7.54466a9.94548,9.94548,0,0,1-3.389,5.40557,7.08008,7.08008,0,0,1-5.564,1.05683l3.03059,19.22185-4.9234-1.487-2.76927-18.98943Zm.78974-2.61318,1.42337.43014q2.79933.84465,4.34989-.11216,1.54882-.95913,2.54957-4.27127.83079-2.75423.04394-4.14985-.78915-1.3962-3.82147-2.31254l-1.28346-.38735Z"/>
        <path class="cls-1" d="M210.41621,389.07524l4.08973-35.34951,5.81026.6718a21.39846,21.39846,0,0,1,4.95925,1.03948,7.85965,7.85965,0,0,1,4.96965,5.50732,12.09421,12.09421,0,0,1,.32376,4.72337q-.56022,4.84245-3.67116,7.03475-3.11326,2.19228-8.53559,1.56443c-.38735-.04509-.67758-.08209-.87068-.11331-.19309-.03007-.36075-.06129-.50413-.09482l-1.80147,15.568Zm7.06366-19.2785,1.76794.20466q3.19478.36942,4.706-.80477,1.50894-1.17419,1.86853-4.27357.34342-2.97972-.94582-4.4528-1.28867-1.47424-4.654-1.86391l-1.42916-.16419Z"/>
        <path class="cls-1" d="M235.84723,373.59509q-.70069-9.74736,1.36093-14.16085,2.06222-4.41233,7.429-4.79852,5.34024-.385,8.00024,3.66422,2.65884,4.04811,3.36359,13.84519.70243,9.74909-1.35052,14.12384-2.05355,4.3759-7.39435,4.76037-5.36626.385-8.03724-3.64919Q236.54967,383.34419,235.84723,373.59509Zm4.8309-.44517q.54287,7.53774,1.98994,10.54866,1.44823,3.01094,4.31058,2.80512a4.09619,4.09619,0,0,0,3.79026-3.22947q.95218-3.02481.38735-10.87819-.55155-7.65741-1.95641-10.58682a4.22621,4.22621,0,0,0-8.087.60589Q240.13122,365.54051,240.67813,373.14992Z"/>
        <path class="cls-1" d="M268.64023,369.73546l4.47014,16.79367-4.64012,1.23606-9.15535-34.38865,5.60676-1.49275q5.58132-1.48638,8.5009-.04278,2.919,1.44129,4.2042,6.27046a9.94775,9.94775,0,0,1-.04162,6.3803,7.08564,7.08564,0,0,1-4.17761,3.82379l12.68082,14.75864L281.1187,384.397l-12.33741-14.69851Zm-.703-2.63746,1.43725-.38272q2.82534-.75273,3.6411-2.38192.81516-1.62861-.07632-4.97428-.73886-2.77851-2.14372-3.55322-1.40487-.77353-4.46552.04163l-1.29618.34457Z"/>
        <path class="cls-1" d="M292.10559,380.88191l-7.56433-35.75768,4.08279-1.91478,22.65829,28.67783-4.39152,2.05931-4.51524-5.60791-7.3481,3.44569,1.46962,7.03706Zm-1.60953-28.40148,3.62837,15.31249,5.80333-2.72186Z"/>
        <path class="cls-1" d="M320.65738,365.8342l-17.43772-25.81143-5.47379,3.69775-2.48367-3.67578,14.946-10.09772,2.48367,3.67695-5.47379,3.69659L324.65576,363.132Z"/>
        <path class="cls-1" d="M336.60813,354.04486l-24.20074-26.09009,10.4365-9.6803,2.91727,3.14506-6.91566,6.415,7.19316,7.75511,6.326-5.86692,2.8849,3.10921-6.326,5.86807,8.18755,8.827,6.91566-6.415,3.01671,3.25259Z"/>
        <path class="cls-1" d="M354.33955,336.4788l-28.41189-21.42686,3.81569-5.05984q4.37244-5.79811,9.338-5.764,4.9656.03469,12.78835,5.93514,7.843,5.91433,9.25017,10.68626,1.40834,4.77135-2.96468,10.56947Zm-.73771-6.63121,1.49622-1.98532q2.43684-3.22947,1.09152-6.30515-1.34416-3.07509-7.27988-7.55044-5.91433-4.46089-9.22473-4.91184-3.30752-.44922-5.75938,2.79933l-1.49738,1.98532Z"/>
      </g>
      <g>
        <path class="cls-1" d="M116.93866,233.02147l-37.4863-3.47459.57-6.16177a22.63184,22.63184,0,0,1,.98051-5.26912,8.72045,8.72045,0,0,1,1.92519-3.1624,8.8162,8.8162,0,0,1,3.77985-2.227,12.80424,12.80424,0,0,1,4.98815-.45673q5.13558.477,7.52848,3.7151,2.39349,3.23814,1.86044,8.99c-.03815.41048-.07053.71805-.09944.92271-.02659.20466-.05665.38388-.08787.53535l16.50923,1.5309Zm-20.55965-7.007.17344-1.87431q.31394-3.389-.96433-4.95809-1.28-1.56791-4.56611-1.87316-3.15835-.29312-4.68637,1.10655t-1.85812,4.9685l-.14107,1.51471Z"/>
        <path class="cls-1" d="M119.45471,211.71718l-36.352-9.79245,3.91745-14.54011,4.38226,1.18056-2.59583,9.6352,10.80535,2.91033,2.375-8.81309,4.33139,1.16667-2.37382,8.81426,12.30041,3.31271,2.59467-9.6352,4.53143,1.21986Z"/>
        <path class="cls-1" d="M124.74927,193.61923l-34.32968-15.4524L96.59986,164.435l4.13945,1.86275-4.09667,9.09985,10.20525,4.59271,3.74631-8.32284,4.09205,1.84079-3.74748,8.324,11.6159,5.22866,4.09667-9.09985,4.27935,1.92634Z"/>
        <path class="cls-1" d="M120.382,162.05189l15.257,10.25843-2.834,4.21576-31.24244-21.006,3.42488-5.09221q3.40984-5.07141,6.73874-5.956,3.32834-.88455,7.7158,2.06394a10.52966,10.52966,0,0,1,4.41,5.10956,7.48971,7.48971,0,0,1-.6637,5.95479l20.37812,2.91959-3.03521,4.51524-20.06245-3.11153Zm-2.397-1.61069.87761-1.30543q1.72746-2.56865,1.24067-4.43314-.48563-1.86449-3.52431-3.90819-2.52529-1.69626-4.18223-1.3355-1.65808.36249-3.52778,3.1439l-.79089,1.17709Z"/>
        <path class="cls-1" d="M145.26383,159.01668,117.94,133.11852l3.49425-3.68734L145.3517,152.101l7.4857-7.89733,3.40637,3.22831Z"/>
        <path class="cls-1" d="M158.16665,145.95544l-22.97047-29.82716,11.93155-9.18773,2.76812,3.596-7.90543,6.08776,6.82778,8.86629,7.23248-5.5686,2.73689,3.55437-7.23248,5.56976,7.77246,10.09193,7.90658-6.08777,2.86292,3.71741Z"/>
        <path class="cls-1" d="M169.505,129.33868a17.27085,17.27085,0,0,0,3.70469-.15032,8.73988,8.73988,0,0,0,2.767-.90189,5.00933,5.00933,0,0,0,2.59351-2.94965,4.8736,4.8736,0,0,0-.52841-3.8365q-1.58872-2.92248-8.23149-4.18339-.79089-.15783-1.18518-.237a19.74142,19.74142,0,0,1-6.56762-2.257,10.5266,10.5266,0,0,1-3.70816-4.01457,9.86746,9.86746,0,0,1-1.00711-7.52385,8.89876,8.89876,0,0,1,4.536-5.69348A13.33447,13.33447,0,0,1,168.491,95.934l2.41314,4.44124a12.207,12.207,0,0,0-3.25837.02428,8.21209,8.21209,0,0,0-2.67561.88224,5.26959,5.26959,0,0,0-2.70452,3.06874,4.99561,4.99561,0,0,0,.52264,3.98682q1.55055,2.85483,8.54021,4.1036c.43245.07863.76545.13182.99786.163a18.30736,18.30736,0,0,1,6.3988,2.21541,11.07523,11.07523,0,0,1,3.80067,4.1857,9.73018,9.73018,0,0,1,.97936,7.58167,9.4947,9.4947,0,0,1-4.87137,5.83223,11.60374,11.60374,0,0,1-3.03174,1.11927,16.13268,16.13268,0,0,1-3.6226.35382Z"/>
        <path class="cls-1" d="M187.20177,120.12782a17.29047,17.29047,0,0,0,3.68041.44054,8.70619,8.70619,0,0,0,2.87564-.45094,5.00073,5.00073,0,0,0,3.02943-2.49986,4.86762,4.86762,0,0,0,.08788-3.8712q-1.10309-3.13753-7.46142-5.43909-.75447-.281-1.132-.422A19.75771,19.75771,0,0,1,182.157,104.613a10.54055,10.54055,0,0,1-3.02365-4.55455,9.86937,9.86937,0,0,1,.20235-7.58745,8.89483,8.89483,0,0,1,5.38359-4.89912,13.30673,13.30673,0,0,1,6.79194-.58507l1.67659,4.76846a12.21594,12.21594,0,0,0-3.22137-.49373,8.196,8.196,0,0,0-2.782.44517,5.271,5.271,0,0,0-3.15777,2.60045,4.99214,4.99214,0,0,0-.11794,4.018q1.07706,3.06469,7.77939,5.41019c.4151.14569.73538.25207.95854.31913a18.2662,18.2662,0,0,1,5.96521,3.20519,11.06341,11.06341,0,0,1,3.08724,4.73608,9.73191,9.73191,0,0,1-.23819,7.64179,9.49381,9.49381,0,0,1-5.73742,4.98237,11.61924,11.61924,0,0,1-3.16934.62323,16.12748,16.12748,0,0,1-3.633-.22662Z"/>
        <path class="cls-1" d="M217.83832,118.46279l-4.92225-37.32442,5.03556-.6637,4.9234,37.32327Z"/>
        <path class="cls-1" d="M228.29447,116.95733l.636-37.6424,4.69215.07979,9.53692,26.31094L243.6,79.56353l4.82165.08094-.636,37.64124-4.76962-.07978-9.48026-26.51676-.44517,26.3491Z"/>
        <path class="cls-1" d="M253.18667,111.435a17.40365,17.40365,0,0,0,2.93808,2.26051,8.70456,8.70456,0,0,0,2.70105,1.08227,5.01033,5.01033,0,0,0,3.88276-.60011,4.87156,4.87156,0,0,0,2.05353-3.28265q.6556-3.26068-3.63184-8.48934-.50472-.62785-.75736-.9412a19.74559,19.74559,0,0,1-3.59253-5.94324,10.53036,10.53036,0,0,1-.26941-5.45875,9.86269,9.86269,0,0,1,4.05157-6.41846,8.89587,8.89587,0,0,1,7.13188-1.45921,13.32187,13.32187,0,0,1,6.13633,2.9693l-.99671,4.95462a12.2366,12.2366,0,0,0-2.516-2.07088,8.208,8.208,0,0,0-2.6178-1.03949,5.27928,5.27928,0,0,0-4.04464.62092,4.99718,4.99718,0,0,0-2.15529,3.39366q-.64,3.18436,3.92092,8.62578.4232.50644.66139.76429a18.276,18.276,0,0,1,3.48846,5.80448,11.073,11.073,0,0,1,.23242,5.64838,9.735,9.735,0,0,1-4.11055,6.44621,9.49942,9.49942,0,0,1-7.47876,1.35053,11.62273,11.62273,0,0,1-3.0433-1.08574,16.1359,16.1359,0,0,1-3.00631-2.05123Z"/>
        <path class="cls-1" d="M275.12806,123.69261l11.54537-30.8655-6.5445-2.44782,1.64422-4.39614,17.87248,6.68556-1.64422,4.395-6.54565-2.44783-11.54536,30.8655Z"/>
        <path class="cls-1" d="M302.23914,115.749l-9.25132,15.88831-4.3892-2.55536,18.942-32.53514,5.30382,3.0884q5.28126,3.07337,6.37914,6.33983,1.09616,3.26415-1.56212,7.83258a10.52857,10.52857,0,0,1-4.81355,4.73146,7.4923,7.4923,0,0,1-5.986-.27751l-1.59565,20.525-4.7014-2.73805,1.80725-20.222Zm1.45228-2.49639,1.35977.792q2.67445,1.5575,4.50368.95161,1.82979-.607,3.67231-3.7706,1.52975-2.62935,1.06262-4.2597-.4683-1.63034-3.36591-3.31618l-1.22565-.71458Z"/>
        <path class="cls-1" d="M313.17515,132.32185l18.1627-20.80478,3.76829,3.29075-18.43327,21.11466a5.66656,5.66656,0,0,0-1.71591,3.8076,5.97178,5.97178,0,0,0,5.58479,4.87484,5.70763,5.70763,0,0,0,3.53125-2.2212l18.43443-21.11466,3.78794,3.30694-18.1627,20.80362q-3.59543,4.11748-7.04516,4.44239-3.45147.32607-7.33538-3.06643-3.88508-3.39077-4.02845-6.85322Q309.57972,136.43876,313.17515,132.32185Z"/>
        <path class="cls-1" d="M323.85331,154.972l32.16977-19.81848,2.73226,3.68735-17.90947,19.62076,24.0643-11.3118,2.63977,3.56363-28.302,25.04135-2.79355-3.77175,20.31221-16.93937L332.5554,166.72091l-2.04081-2.75539,18.224-19.75836-22.12293,14.495Z"/>
        <path class="cls-1" d="M340.45736,178.90453l34.0117-16.14154,6.45662,13.60353-4.10014,1.946-4.27936-9.01544-10.10927,4.79852,3.914,8.24653-4.05389,1.924-3.914-8.24652-11.5072,5.46222,4.2782,9.01544-4.24,2.01191Z"/>
        <path class="cls-1" d="M348.33734,195.95721l36.37975-9.68608,1.20715,4.536-22.69875,16.36933,25.26682-6.72718,1.24068,4.65977-36.3809,9.68608-1.2268-4.61005,22.9115-16.3728-25.46571,6.77922Z"/>
        <path class="cls-1" d="M354.25514,223.969l32.85312-2.58542-.54923-6.96653,4.67943-.3677,1.49737,19.023-4.67943.36769-.54807-6.96653-32.852,2.58427Z"/>
      </g>
      <path class="cls-1" d="M102.85136,267.34164a2.91869,2.91869,0,1,0,2.9188,2.9187A2.922,2.922,0,0,0,102.85136,267.34164Z"/>
      <circle class="cls-1" cx="369.18216" cy="270.26034" r="2.91868"/>
    </g>
  </g>
</svg>
