<svg xmlns="http://www.w3.org/2000/svg" viewBox="0 0 497.42285 263.7041">
  <title>gears-outline</title>
  <path class="a" d="M384.5,23.01874" transform="translate(-1.28857 -6.43329)"/>
  <path class="a" d="M379.5,22.01874" transform="translate(-1.28857 -6.43329)"/>
  <path class="b" d="M221,21.51874" transform="translate(-1.28857 -6.43329)"/>
  <path class="b" d="M249.66667,22.51874" transform="translate(-1.28857 -6.43329)"/>
  <g>
    <path class="b" d="M345.64575,180.486V168.49677l-16.84143-1.464a78.62835,78.62835,0,0,0-3.13342-15.81153l14.98852-7.79327-4.58886-11.07666-16.13471,5.096a79.46139,79.46139,0,0,0-8.95569-13.38294l10.8902-12.96551-8.47754-8.478-12.96545,10.89062a79.46106,79.46106,0,0,0-13.38355-8.95623l5.09705-16.13459-11.07813-4.58837-7.79193,14.98815a78.62141,78.62141,0,0,0-15.8114-3.13354l-1.465-16.84094H244.00513l-1.465,16.84094a78.62231,78.62231,0,0,0-15.811,3.13348l-7.79285-14.98809-11.07666,4.58837,5.09613,16.13471a79.463,79.463,0,0,0-13.3833,8.956l-12.96527-10.8905-8.478,8.478,10.8905,12.96527a79.46132,79.46132,0,0,0-8.95593,13.38336L163.929,132.35126l-4.58838,11.07666,14.98822,7.79284a78.623,78.623,0,0,0-3.13361,15.812l-16.84094,1.464V180.486l16.84094,1.465a78.62192,78.62192,0,0,0,3.13348,15.81146l-14.98809,7.79187,4.58838,11.07813,16.13452-5.097a79.45885,79.45885,0,0,0,8.95623,13.38367l-10.89056,12.96533,8.478,8.47754,12.96545-10.89014a79.45585,79.45585,0,0,0,13.383,8.95569l-5.096,16.13465,11.07666,4.58886,7.79321-14.9884a78.62361,78.62361,0,0,0,15.81061,3.1333l1.465,16.84143h11.98925l1.465-16.84143a78.62626,78.62626,0,0,0,15.811-3.13342l7.79229,14.98852,11.07813-4.58886L287.044,244.42761a79.46331,79.46331,0,0,0,13.3833-8.95587L313.39282,246.362l8.47754-8.47754L310.9801,224.91888a79.46121,79.46121,0,0,0,8.956-13.38323l16.13446,5.09686,4.58886-11.07813L325.671,197.76209a78.627,78.627,0,0,0,3.13336-15.811Zm-20.04687,18.36621,13.78515,7.167-3.88574,9.38281-14.81641-4.67969-1.26685-.37754a78.543,78.543,0,0,1-9.80278,14.60117l.90948.98243,9.99316,11.89746-7.18066,7.18066-11.89746-9.99316-.98515-.89141a78.4686,78.4686,0,0,1-14.64718,9.81269l.42627,1.23887,4.67969,14.81641-9.38281,3.88574-7.167-13.78515-.59831-1.13941a77.60957,77.60957,0,0,1-17.24608,3.4199l-.09116,1.28689-1.34668,15.47949H244.92212l-1.34668-15.47949-.11395-1.28484a77.61108,77.61108,0,0,1-17.28261-3.45661l-.53948,1.17407-7.167,13.78515-9.3833-3.88574,4.67969-14.81641.386-1.25508a78.49016,78.49016,0,0,1-14.60446-9.79868l-.9871.89361-11.89746,9.99316-7.18115-7.18066,9.99365-11.89746.83677-1.04946a78.49287,78.49287,0,0,1-9.75241-14.547l-1.245.39044L164.5022,215.402l-3.88721-9.38281,13.78564-7.167,1.15122-.58524a77.62976,77.62976,0,0,1-3.43084-17.251l-1.28776-.09926-15.479-1.34668V169.41278l15.479-1.3457,1.28853-.08338a77.61966,77.61966,0,0,1,3.44082-17.2665l-1.162-.58616L160.615,142.964l3.88721-9.3833,14.81592,4.67969,1.24823.42868a78.52514,78.52514,0,0,1,9.772-14.59222l-.86-1.042-9.99365-11.89746,7.18115-7.18115,11.89746,9.99365.97991.90075a78.41776,78.41776,0,0,1,14.63917-9.81194l-.41351-1.249-4.67969-14.81591,9.3833-3.88721,7.167,13.78564.56255,1.16339a77.82677,77.82677,0,0,1,17.23231-3.4522l.0596-.005c.01773-.00148.05894-1.01343.05894-1.01343l1.36932-15.73913h10.15625l1.36932,15.73919s.043,1.01022.07243,1.01255a74.69763,74.69763,0,0,1,17.24376,3.43783l.59672-1.14319,7.167-13.78564,9.38281,3.88721-4.67969,14.81543-.40489,1.24241a78.53579,78.53579,0,0,1,14.59959,9.78941l1.01136-.87118,11.89746-9.99365,7.18066,7.18115-9.99316,11.89746-.8598,1.02293a78.51507,78.51507,0,0,1,9.78621,14.61607l1.23374-.43343,14.81641-4.67969,3.88574,9.3833-13.78515,7.167-1.15554.53956a77.57548,77.57548,0,0,1,3.435,17.29562l1.28794.10086,15.47949,1.3457V179.57l-15.47949,1.34668-1.28534.1141A77.61,77.61,0,0,1,324.44,198.25717Z" transform="translate(-1.28857 -6.43329)"/>
    <path class="b" d="M250,191.385a16.89356,16.89356,0,1,1,16.89355-16.89356A16.91263,16.91263,0,0,1,250,191.385Zm0-32.78711a15.89356,15.89356,0,1,0,15.89355,15.89355A15.91163,15.91163,0,0,0,250,158.59784Z" transform="translate(-1.28857 -6.43329)"/>
    <path class="b" d="M250,231.19745a56.70557,56.70557,0,1,1,56.70508-56.70606A56.77018,56.77018,0,0,1,250,231.19745Zm0-112.41113a55.70557,55.70557,0,1,0,55.70508,55.70507A55.76835,55.76835,0,0,0,250,118.78632Z" transform="translate(-1.28857 -6.43329)"/>
    <path class="b" d="M250,209.80878a35.31714,35.31714,0,1,1,35.31738-35.31739A35.35753,35.35753,0,0,1,250,209.80878Zm0-69.63428a34.31714,34.31714,0,1,0,34.31738,34.31689A34.35549,34.35549,0,0,0,250,140.1745Z" transform="translate(-1.28857 -6.43329)"/>
    <path class="b" d="M250,134.16571a5.1853,5.1853,0,1,1,5.18555-5.18555A5.19124,5.19124,0,0,1,250,134.16571Zm0-9.3706a4.1853,4.1853,0,1,0,4.18555,4.18505A4.18984,4.18984,0,0,0,250,124.79511Z" transform="translate(-1.28857 -6.43329)"/>
    <path class="b" d="M206.72217,165.61639a5.19665,5.19665,0,1,1,2.34814-.56835A5.18845,5.18845,0,0,1,206.72217,165.61639Zm-.01074-9.376a4.19188,4.19188,0,1,0,1.29785.207A4.17379,4.17379,0,0,0,206.71143,156.24042Z" transform="translate(-1.28857 -6.43329)"/>
    <path class="b" d="M223.2417,216.49432a5.18273,5.18273,0,0,1-4.1875-8.23144h0a5.18517,5.18517,0,1,1,4.1875,8.23144Zm-3.37891-7.64355a4.18506,4.18506,0,1,0,2.73145-1.67383,4.19176,4.19176,0,0,0-2.73145,1.67383Z" transform="translate(-1.28857 -6.43329)"/>
    <path class="b" d="M276.75781,216.49432a5.18288,5.18288,0,0,1-4.20215-2.13574h0a5.19053,5.19053,0,1,1,4.20215,2.13574Zm-3.39355-2.72363a4.18592,4.18592,0,1,0-.74707-3.11426,4.19245,4.19245,0,0,0,.74707,3.11426Z" transform="translate(-1.28857 -6.43329)"/>
    <path class="b" d="M293.27832,165.61639a5.19463,5.19463,0,1,1,1.60742-.25683A5.16359,5.16359,0,0,1,293.27832,165.61639Zm.00977-9.376a4.19313,4.19313,0,1,0,1.8955.458A4.18822,4.18822,0,0,0,293.28809,156.24042Z" transform="translate(-1.28857 -6.43329)"/>
  </g>
  <path class="b" d="M392.27979,37.68671,381.89111,19.52753H295.13116L291.96094,6.8122l-.09473-.37891h-17.9248l3.26464,13.09424H259.8714L256.70117,6.8122l-.09472-.37891H238.68066l3.26484,13.09424H224.58484L221.41455,6.8122l-.09473-.37891H203.39453l3.26477,13.09424H189.35785L186.1875,6.8122l-.09473-.37891H168.16748l3.26477,13.09424H118.10889L107.72021,37.68671H1.28857V58.14636l106.43067.53888,10.38965,18.16065h67.61438l3.17028,12.71533.09473.37891h17.92578l-3.26483-13.09424h17.30109l3.17029,12.71533.09472.37891h17.92529l-3.26477-13.09424h17.361l3.17035,12.71533.09472.37891h17.92481l-3.26465-13.09424h17.33466L294.667,89.56122l.09473.37891h17.9248l-3.26464-13.09424h72.46923l10.38965-18.16065,106.43067-.53888V37.68671ZM118.689,75.84589,108.30127,57.68817,2.28857,57.15125V38.68671H108.30029L118.689,20.52753h52.99262l13.79236,55.31836Zm86.94483,13.09424H189.76953L169.44775,7.43329h15.86377ZM203.3999,75.84589,189.60718,20.52753h17.30145L220.701,75.84589Zm37.46045,13.09424H224.99658L204.6748,7.43329h15.86377Zm-2.23382-13.09424L224.83417,20.52753h17.36065l13.79273,55.31836Zm37.52093,13.09424H260.2832L239.96094,7.43329H255.8252Zm-2.23468-13.09424L260.12073,20.52753h17.33465l13.79206,55.31836Zm37.49445,13.09424H295.543L275.2207,7.43329H291.085Zm186.3042-31.78888-106.0127.53692L381.311,75.84589H309.17255L295.38049,20.52753H381.311l10.38867,18.15918H497.71143Z" transform="translate(-1.28857 -6.43329)"/>
</svg>
