<svg xmlns="http://www.w3.org/2000/svg" viewBox="0 0 496.42285 262.7041">
  <title>gears-outline-2</title>
  <polyline class="a" points="170.972 13.594 116.9 13.594 106.512 31.753 0.5 31.753 0.5 50.218 106.513 50.755 116.9 68.913 184.75 68.913"/>
  <polygon class="a" points="187.981 82.007 167.659 0.5 183.523 0.5 203.845 82.007 187.981 82.007"/>
  <line class="a" x1="186.78776" y1="13.59424" x2="206.15097" y2="13.59424"/>
  <polygon class="a" points="202.886 0.5 223.208 82.007 239.072 82.007 218.75 0.5 202.886 0.5"/>
  <line class="a" x1="200.5804" y1="68.9126" x2="219.94327" y2="68.9126"/>
  <line class="a" x1="222.01473" y1="13.59424" x2="241.43718" y2="13.59424"/>
  <polygon class="a" points="238.172 0.5 258.495 82.007 274.359 82.007 254.037 0.5 238.172 0.5"/>
  <line class="a" x1="235.80704" y1="68.9126" x2="255.27881" y2="68.9126"/>
  <line class="a" x1="271.09407" y1="68.9126" x2="290.48958" y2="68.9126"/>
  <line class="a" x1="257.30143" y1="13.59424" x2="276.69694" y2="13.59424"/>
  <polygon class="a" points="273.432 0.5 293.754 82.007 309.619 82.007 289.296 0.5 273.432 0.5"/>
  <polyline class="a" points="306.354 68.913 379.522 68.913 389.91 50.755 495.923 50.218 495.923 31.753 389.911 31.753 379.522 13.594 292.561 13.594"/>
  <path class="a" d="M226.202,100.05566a76.4033,76.4033,0,0,1,17.23231-3.4522l1.48786-16.75757h10.15625l1.44175,16.75174a75.88063,75.88063,0,0,1,17.24376,3.43783l7.76371-14.92883,9.38281,3.88721-5.08458,16.05784a77.50555,77.50555,0,0,1,14.59959,9.78941l12.90882-10.86483,7.18066,7.18115-10.853,12.92039a79.382,79.382,0,0,1,9.78621,14.61607l16.05015-5.11312,3.88574,9.3833-14.94069,7.70655a80.36849,80.36849,0,0,1,3.435,17.29562l16.76743,1.44656V179.57l-16.76483,1.46078A82.19258,82.19258,0,0,1,324.44,198.25717l14.94406,7.76206-3.88574,9.38281L319.415,210.34481a81.192,81.192,0,0,1-9.80278,14.60117l10.90264,12.87989-7.18066,7.18066L300.45162,234.122a79.41655,79.41655,0,0,1-14.64718,9.81269l5.106,16.05528-9.38281,3.88574-7.7653-14.92456a83.17983,83.17983,0,0,1-17.24608,3.4199l-1.43784,16.76638H244.92212l-1.46063-16.76433a73.50862,73.50862,0,0,1-17.28261-3.45661l-7.70647,14.95922-9.3833-3.88574,5.06568-16.07149a79.93933,79.93933,0,0,1-14.60446-9.79868l-12.88456,10.88677-7.18115-7.18066L190.315,224.879a84.49295,84.49295,0,0,1-9.75241-14.547L164.5022,215.402l-3.88721-9.38281,14.93686-7.75224a78.10421,78.10421,0,0,1-3.43084-17.251L155.35425,179.57V169.41278l16.76753-1.42908a79.43861,79.43861,0,0,1,3.44082-17.2665L160.615,142.964l3.88721-9.3833,16.06415,5.10837s4.62805-8.7532,9.772-14.59222l-10.85369-12.93949,7.18115-7.18115,12.87737,10.8944a80.43739,80.43739,0,0,1,14.63917-9.81194l-5.0932-16.06488,9.3833-3.88721Z" transform="translate(-1.78857 -6.93329)"/>
  <circle class="a" cx="248.21118" cy="167.55859" r="56.14531"/>
  <circle class="a" cx="248.21118" cy="167.55859" r="34.76966"/>
  <circle class="a" cx="248.21118" cy="167.55859" r="16.47566"/>
  <circle class="a" cx="248.21118" cy="122.04712" r="4.71488"/>
  <circle class="a" cx="291.49537" cy="153.49481" r="4.68856"/>
  <circle class="a" cx="274.9606" cy="204.37555" r="4.71764"/>
  <circle class="a" cx="221.46175" cy="204.37603" r="4.69215"/>
  <circle class="a" cx="204.92643" cy="153.49447" r="4.68968"/>
</svg>
