<svg xmlns="http://www.w3.org/2000/svg" viewBox="0 0 490.44961 258.94905">
  <title>lathe-outline</title>
  <g>
    <rect class="a" x="0.5" y="172.23147" width="214.6875" height="86.21758"/>
    <rect class="a" x="384.96191" y="108.44963" width="84.24444" height="149.99942"/>
    <polyline class="a" points="57.233 125.982 131.825 125.982 131.825 27.203 0.5 27.203 0.5 125.982 53.654 125.982"/>
    <line class="a" x1="90.28605" y1="172.23147" x2="90.28605" y2="125.9823"/>
    <line class="a" x1="15.15303" y1="172.23147" x2="15.15303" y2="125.9823"/>
    <polyline class="a" points="210.562 105.874 210.562 168.397 281.795 168.397"/>
    <line class="a" x1="90.28605" y1="156.81508" x2="210.56158" y2="156.81508"/>
    <line class="a" x1="90.28605" y1="149.10688" x2="210.56158" y2="149.10688"/>
    <line class="a" x1="0.5" y1="172.23147" x2="0.5" y2="125.9823"/>
    <line class="a" x1="15.15303" y1="149.10688" x2="0.5" y2="149.10688"/>
    <line class="a" x1="15.15303" y1="156.81508" x2="0.5" y2="156.81508"/>
    <line class="a" x1="90.28605" y1="141.64918" x2="210.56158" y2="141.64918"/>
    <polyline class="a" points="210.562 130.821 129.177 130.821 129.177 125.982"/>
    <line class="a" x1="15.15303" y1="141.64918" x2="0.5" y2="141.64918"/>
    <polyline class="a" points="300.621 122.738 300.621 100.19 282.328 100.19"/>
    <polygon class="a" points="282.328 84.451 204.05 84.451 204.05 105.874 282.328 105.874 282.328 100.19 282.328 84.451"/>
    <line class="a" x1="210.56158" y1="108.44963" x2="131.8248" y2="108.44963"/>
    <line class="a" x1="300.62078" y1="108.44963" x2="384.96191" y2="108.44963"/>
    <polygon class="a" points="167.934 27.203 141.33 27.203 141.33 42.413 141.33 90.387 167.934 90.387 167.934 27.203"/>
    <polyline class="a" points="131.825 41.977 141.33 41.977 141.33 36.307 131.825 36.307"/>
    <line class="a" x1="131.8248" y1="81.66413" x2="141.33045" y2="81.66413"/>
    <line class="a" x1="141.33045" y1="76.59276" x2="131.8248" y2="76.59276"/>
    <circle class="a" cx="287.42933" cy="144.09457" r="24.94401"/>
    <circle class="a" cx="287.42933" cy="144.09457" r="7.46478"/>
    <line class="a" x1="287.42933" y1="119.15055" x2="287.42933" y2="136.62979"/>
    <line class="a" x1="287.42933" y1="151.55934" x2="287.42933" y2="169.03858"/>
    <line class="a" x1="294.8941" y1="144.09457" x2="312.37334" y2="144.09457"/>
    <line class="a" x1="279.96455" y1="144.09457" x2="262.48531" y2="144.09457"/>
    <line class="a" x1="312.25358" y1="141.64918" x2="384.96191" y2="141.64918"/>
    <line class="a" x1="307.72725" y1="129.60526" x2="384.96191" y2="129.60526"/>
    <path class="b" d="M389.7371,159.16724" transform="translate(-4.77519 -10.06036)"/>
    <polyline class="a" points="300.621 165.263 300.621 168.397 293.074 168.397"/>
    <line class="a" x1="311.86943" y1="149.10688" x2="384.96191" y2="149.10688"/>
    <line class="a" x1="308.88535" y1="156.81508" x2="384.96191" y2="156.81508"/>
    <polyline class="a" points="381.668 108.45 381.668 77.221 456.554 77.221 456.554 108.45"/>
    <polyline class="a" points="382.494 77.221 369.976 77.077 369.976 48.974 373.323 45.627 459.911 45.627 463.104 48.82 463.104 77.221 456.554 77.221"/>
    <polyline class="a" points="369.976 69.17 348.608 69.17 341.931 62.493 347.866 56.558 369.976 56.558"/>
    <line class="a" x1="463.10419" y1="56.55848" x2="466.06273" y2="56.55848"/>
    <line class="a" x1="463.10419" y1="69.17026" x2="466.06273" y2="69.17026"/>
    <polygon class="a" points="466.063 84.368 466.063 39.646 471.919 39.646 471.919 78.705 477.727 78.705 477.727 75.656 486.729 75.656 486.729 84.368 477.719 84.368 477.719 81.495 471.907 81.495 471.907 84.368 466.063 84.368"/>
    <rect class="a" x="480.73677" y="72.43792" width="3.22034" height="3.22034"/>
    <rect class="a" x="486.72927" y="78.37843" width="3.22034" height="3.22034"/>
    <rect class="a" x="480.73677" y="84.36825" width="3.22034" height="3.22034"/>
    <polyline class="a" points="216.763 84.451 216.763 58.795 216.763 39.142 255.846 39.142 255.846 84.451"/>
    <line class="a" x1="255.84582" y1="58.79494" x2="216.76319" y2="58.79494"/>
    <polyline class="a" points="225.173 39.142 225.173 24.832 240.649 24.832 243.189 27.379 243.189 39.142"/>
    <g>
      <rect class="a" x="254.93691" y="11.91076" width="3.62548" height="28.40658" transform="translate(88.89046 -183.96115) rotate(45)"/>
      <circle class="a" cx="264.26897" cy="3.75918" r="3.25918"/>
    </g>
    <g>
      <circle class="a" cx="101.27109" cy="105.01332" r="6.45101"/>
      <circle class="a" cx="83.39563" cy="75.86339" r="2.91083"/>
      <line class="a" x1="83.39563" y1="78.77467" x2="96.32537" y2="100.87154"/>
      <line class="a" x1="85.97596" y1="77.20332" x2="98.97109" y2="98.98572"/>
    </g>
    <g>
      <circle class="a" cx="68.39097" cy="146.8579" r="6.45101"/>
      <circle class="a" cx="50.51551" cy="117.70797" r="2.91083"/>
      <line class="a" x1="50.51551" y1="120.61926" x2="63.44525" y2="142.71613"/>
      <line class="a" x1="53.09584" y1="119.04791" x2="66.09096" y2="140.83031"/>
    </g>
    <g>
      <circle class="a" cx="239.48468" cy="144.4728" r="6.45101"/>
      <circle class="a" cx="221.60923" cy="115.32287" r="2.91083"/>
      <line class="a" x1="221.60923" y1="118.23415" x2="234.53896" y2="140.33102"/>
      <line class="a" x1="224.18956" y1="116.6628" x2="237.18468" y2="138.4452"/>
    </g>
  </g>
</svg>
