<svg xmlns="http://www.w3.org/2000/svg" viewBox="0 0 485.20186 467.77263">
  <g>
    <path class="a" d="M10.63767,16.0083c.62544.002,160.90629,2.09031,160.90629,2.09031s-1.56311,2.60518,0,2.8657,2.08415,1.04207,1.82363,2.34466,2.60519,4.1683,2.60519,4.1683,1.04207,3.90778,0,3.90778.92628,1.82363.46314,2.8657-1.73786,2.08415.07183,2.34466A3.87171,3.87171,0,0,1,179.62,39.72164l164.38713,8.5971s-.9787,2.74214,1.83663,5.55747c1.546,1.546-.88341,4.63791,0,6.84644s2.27255,3.13718,3.82621,2.70216a7.025,7.025,0,0,1,4.22594-.31073c1.6158.435,2.548.06214,2.48584-1.678s-.24274-2.29941.00293-3.16945a17.26879,17.26879,0,0,0,.99141-2.67229c.12429-.99434-.31073-4.0395.49717-6.15247s.18644-2.17511-.435-3.2316a9.948,9.948,0,0,1-1.42936-2.79658c-.18644-.93219-.9322-2.73443-.435-3.9152a6.23944,6.23944,0,0,0,.31073-3.418c-.18644-.62146,1.30507-1.30507,1.36722-1.80224s-.74576-1.30507-.37288-1.80224,1.18078-.68361,1.92653.12429,1.55366.18644,1.80224-.99434,0-2.23726.93219-1.92653a6.11294,6.11294,0,0,0,2.61014.49717c1.05649-.06214,1.30507.9322,1.67795,1.36722s4.661.12429,5.096.62146.74576,1.18078,1.55366,1.30507,4.16379,1.49151,4.53667,1.49151,1.4915.74575,1.98867.18644,2.23726.62146,2.73443.99433a16.25107,16.25107,0,0,0,5.28243.9322c.74575-.18644,1.05648-.99434,1.74009-.9322s1.49151-.24858,2.05082.24859a2.479,2.479,0,0,0,1.92653,1.05648c1.36722.18644,1.7401.28358,1.36722,2.31691a30.581,30.581,0,0,0-.87,5.26492,19.45866,19.45866,0,0,0,.37288,3.3559c.12429,1.05648.49717,3.35589-.06215,3.79091s.31073.37288,1.18078.87,1.24292-.06215,1.24292,1.42936a108.87592,108.87592,0,0,0,1.83476,16.95552c1.436,6.97464,10.25683,36.92459,14.5647,46.97629s8.20547,21.94961,17.43662,36.104,15.59038,24.82153,19.69311,30.56536,3.82268,5.82042,4.14536,6.7078,1.6941,4.7596,2.01678,5.647-.96805,1.21007-2.5008,2.17812-1.77477,2.66215-1.93611,5.08229-1.1294,4.1949-.484,6.45369,2.06258,10.16437,5.819,17.99032,7.66944,15.18235,12.052,25.66912,10.33025,25.043,14.08671,34.43418,7.98247,22.69526,8.60855,24.73,1.09563,7.51291.78259,20.34747a136.10824,136.10824,0,0,1-1.72171,21.28659c-.78259,5.63468-2.03475,14.55627-1.87823,18.1562s.93912,13.9302.46956,15.33887-.91666,3.18352-1.22391,3.90043a16.304,16.304,0,0,0-.51208,4.60872c.10242,1.02416-1.02416,1.74107-1.9459,0s.51208-1.63866.51208-3.1749-.81933-2.458-2.35557-1.53624-2.35557,3.37973-2.5604,4.71114-.20483,2.86764-1.84349,3.27731-.92174,3.37973-1.33141,4.916a8.26341,8.26341,0,0,1-1.53624,3.58456c-.81932.92174-1.02416,2.35556-.20483,4.19905s1.12658,2.76523.92175,3.89181-.46821.80311.57138,1.23627,0,1.55937-1.38611,3.03211a26.16707,26.16707,0,0,0-3.63854,4.76475c-.77969,1.21285-3.8118,2.51233-5.11128,4.76476s-1.646,1.55937-2.42569,1.12621-2.1658-.95295-2.25243-1.29948-1.47274-1.9059-2.07916-.60642-.2599,3.03211-.86632,3.292a27.63271,27.63271,0,0,1-4.245,1.55937c-1.99253.51979-2.1658-.43316-3.37864,1.99253-.45182.90364-1.99253-.86631-2.599-1.3861s-2.42569-.5198-3.46527-.2599a5.593,5.593,0,0,1-4.0717-.69306c-.86632-.77968-2.51232,1.28523-2.51232,2.59184s-11.86856,2.25955-12.99478,1.56649-2.07916-.86632-2.42569-2.16579a16.35493,16.35493,0,0,0-2.25243-4.41823c-1.12621-1.73263.08664-3.20537.43316-4.67812s1.12622-1.99253.86632-2.42569-.08663-2.07916.43316-2.07916,1.47274.17326,1.55937-.60642-1.12621-1.21285-1.73263-1.646a1.97722,1.97722,0,0,1-1.12622-1.81927,5.54033,5.54033,0,0,0-.86632-3.292c-.77968-1.21284-2.599-3.20538-2.85885-3.63854a3.09171,3.09171,0,0,1,.43316-2.51232c.51979-.69305-2.16579-2.599-2.42569-4.0717a8.64015,8.64015,0,0,0-1.9059-4.41822c-1.21285-1.38611-3.63854-4.15833-5.37117-4.59149s-.86632-3.03211-.60643-3.98506,1.38611-.86632,0-2.599-3.03211-3.20537-3.89843-3.46527-1.99253.51979-3.8118-.953-2.51232-.60642-3.98507-1.47274-1.9059,1.21284-5.02464.86632-3.11875-.77969-3.72517.17326-1.12621,3.11875-1.55937,2.77222-1.55938-2.599-2.33906-3.72517-2.51233-5.28454-2.4257-6.23749-1.646-1.99253-2.07916-3.98507a67.26523,67.26523,0,0,1-2.33906-10.48245c-.95295-6.67065-1.99253-11.95519-4.33159-14.64078a18.90352,18.90352,0,0,0-5.7177-4.50486c-.77969-.34652.08663-1.12621-.2599-1.47274s-2.07916.08663-2.51232-.60642-.69306-1.9059-2.1658-1.9059-1.646.51979-1.9059,1.29948-1.9059,1.21284-2.25243.17326a12.012,12.012,0,0,1-.77968-3.98506c0-1.646-.93585-5.3689-2.071-6.646s-2.55414-1.27707-2.55414-2.83793,1.419-1.70275,2.41224-1.419,2.27034,3.12172,2.97982,2.55414.70948-2.41224,1.419-4.25689,1.84465-2.83793,1.56085-3.9731.42569-6.10154-.56758-6.95292-2.696-2.12844-2.41224-2.97982,2.696-.70948,2.55414-1.70276-.56759-1.84465-1.84466-1.56086a7.25233,7.25233,0,0,0-3.26361,2.12845A2.95843,2.95843,0,0,1,352.697,311.547c-1.27707-.42569.70948,4.25689,1.13517,5.39206s.14189,2.55413.56758,2.97982,1.38035,2.11968-1.10369,2.63718-3.00154-.414-3.519,0a5.03339,5.03339,0,0,0-1.34552,2.898c.1035.72451,1.449,2.484,1.55252,4.14006s1.656,3.62255,1.656,5.48558,2.17353,4.03656,2.277,5.69258a2.70089,2.70089,0,0,0,2.38054,2.691c1.34552.3105,1.75952,1.449,2.691,1.449s1.13852-.828,1.96653-.828a6.16242,6.16242,0,0,1,2.79454.621c.621.414-1.13851,1.863-2.07,2.277a4.37622,4.37622,0,0,1-3.62255,0c-1.449-.621-2.898-2.07-3.933-2.38054s-1.449-1.242-1.863-2.79454-.1035-1.449-.828-2.79454-1.242-2.691-1.656-3.62255a14.77581,14.77581,0,0,1-1.242-3.20854,3.24161,3.24161,0,0,0-1.242-2.484c-.93151-.72451-.207-2.07-.207-3.41554a12.57269,12.57269,0,0,0-.72451-5.07158c-.72451-1.449-5.72311-8.93547-7.40806-11.6033s-6.17812-11.37337-8.00348-15.3049a79.38543,79.38543,0,0,0-4.21236-8.00349c-1.54453-2.66782-3.79112-6.59936-5.8973-8.70554s-2.66783-2.24659-2.66783-3.5103-1.96577-4.21236-2.52741-4.91442-2.10618-2.80823-.70206-2.387,2.24659,0,2.80824.70206.28082,2.52742,1.40412,1.26371,2.80824-.98288,3.36988-2.94865,1.82536-2.66783,3.22948-3.36989,1.82535-3.36989,2.387-4.774a9.06837,9.06837,0,0,1,3.36989-3.79112c.84247-.28082.70206-1.40412.70206-1.96577s2.24659-.28082,2.80824-1.26371,2.387-2.387,2.387-4.07194-.14041-5.05483-.98288-5.75689-2.24659.70206-4.35277-1.54453-.42124,4.07194.28082,5.19524-.28082,4.21236-2.10618,2.387-2.94865-2.387-1.96577-3.08906a1.52541,1.52541,0,0,0,.42124-2.24659c-.42124-.56165,1.1233-2.94865.42124-3.79113a5.29948,5.29948,0,0,0-4.91442-2.10618c-2.52742.42124-4.072.28083-5.19525.70206s-3.65071.28083-3.5103,1.40412,1.82536,2.387,3.22948,2.66783,2.52742.84247,2.94865.84247.70206,1.96577,1.82536,1.68495a5.763,5.763,0,0,1,2.21609-.25033c.37825.07565,1.21039,1.05909.52954,1.43734s-1.36168.22695-1.36168.98344.45389,1.66428.1513,2.34513-1.66429,1.05909-1.89123,2.95032.07564,3.47986-.7565,4.539-2.04253.68085-2.87467.7565a10.3505,10.3505,0,0,0-1.89123.68084c-.4539.07565-.33483,1.29363-.249,1.89439s.17165,1.88813.68659,1.974.42912,1.28735-.51494,1.63065-1.974,1.20153-2.23142.17165-.77241-1.88812-.25747-3.17548a3.96177,3.96177,0,0,0,.17165-3.2613c-.42912-1.20153-1.459-3.69042-3.00383-4.892s-2.23141-2.918-3.51877-4.54865a5.60229,5.60229,0,0,1-1.02988-5.23524c.51494-1.8023,1.54482-3.34712,1.37318-4.7203a11.50154,11.50154,0,0,1,.08582-3.94789c.25747-.60077.25747-1.71647-.17165-2.05977s-1.28735-2.3166-.25747-2.48857,1.54483-.42943,1.63065.7721.60077,2.23141.42912,2.83218,0,2.83218-.17165,3.43294-.08582,2.1456-.25747,2.83219-.51494,2.66053-.51494,2.66053-.77241,1.20153-.17165.94406,1.54483-2.14559,2.05977-3.34712a6.22751,6.22751,0,0,0,.68659-3.17548,4.31944,4.31944,0,0,1,.25747-2.83218c.51494-1.71647.08582-2.57408.08582-4.11922s.3433-1.631.17165-2.74667-2.05977-1.8023-1.88812-2.74636,1.54483-1.63065,2.05977-2.66053a9.03326,9.03326,0,0,0,.77241-3.17548c.08582-.94406,1.20153-1.63065,1.71647-2.57471s-.08582-2.31723.42912-3.34712a9.31383,9.31383,0,0,0,1.37318-3.43294c.08582-1.28736.08582-2.31724,1.20153-3.2613s1.02988-1.974.60077-3.17548.17164-2.66053.60076-4.54865.85824-4.80613.25747-5.14942,0-1.63065.17165-2.74636-.17165-2.918.08582-4.29118-1.459-1.71647-1.20153-2.83218,1.459-1.11571,1.459-2.14559-.68658-2.31724-.77241-3.433.85824-2.74635.94406-4.29118-1.28735-1.54483-1.71647-1.54483-.94406-.42911-1.88812-1.37317a17.69424,17.69424,0,0,1-2.40306-3.34713c-.85824-1.37317-1.02989-2.48888-1.71648-2.57471s-.08582-2.5747-.08582-3.43294-.94406-1.28736-2.31724-1.71647-2.48888-.77242-1.97394-1.459,1.88812-.34329,1.88812-1.54482a4.9547,4.9547,0,0,0-.94406-3.00383,22.41071,22.41071,0,0,0-5.836-1.02988c-1.459,0-4.29118-.17165-4.892-.08583a9.82049,9.82049,0,0,0-3.60459,2.918c-.60077,1.02988-1.88812-1.28736-2.14559-2.66054s-.25747-2.48888-1.20153-2.918.42911-1.88812.60076-2.57471-.77241-1.54483-1.88812-1.88812-3.2613-.68659-3.69042-1.37318-.68659-.77241-.60076-2.74636a4.97291,4.97291,0,0,0-1.37318-3.77624,8.35432,8.35432,0,0,1-1.02988-2.31723,3.78342,3.78342,0,0,0-2.74636-1.28736c-1.11571,0-2.83218,0-3.34712-1.63065a3.48694,3.48694,0,0,0-2.83218-2.66053c-1.63065-.51494-3.00383-.77241-3.17548-2.66053s.51494-6.43678.08583-7.295-.08583-3.17547-1.8023-3.17547-1.54483.60077-3.69042-1.71647-2.57471-.51494-3.34712-1.28736-2.74636-3.2613-2.74636-4.03371.25747-2.48889-.34329-3.17547-2.74636-1.71648-2.74636-3.00383-.94406-2.57471-2.74636-3.6046-4.46283-4.03371-6.60842-4.29118-2.31724-1.02988-4.20536-1.80229-4.54865-1.88812-4.97777-2.66054-2.14559-1.54482-2.83218-2.40306-2.05977-2.48889-3.2613-2.48889a9.88481,9.88481,0,0,0-4.54865.51495,16.30583,16.30583,0,0,0-3.69042,1.80229c-.77241.68659-1.1157-.85823-2.05976-.94406a18.57232,18.57232,0,0,1-2.74636-.42912c-.60077-.17164-1.11571-1.37317-1.8023-1.20153s-.94406,1.459-.85823,2.14559-.17165,1.63065-1.88812,1.11571-2.48889-.77241-3.08966.17165a4.39013,4.39013,0,0,0-.85823,3.51877c.34329,1.459.42912,1.71647,1.20153,1.97394s.77241,3.08965.77241,4.11954.3433,2.31724-1.71647,2.31724-3.433-.25747-4.29118-.85824-1.63065-2.05977-3.2613-1.20153-3.17548,0-5.66436,2.14559-3.69042,2.40306-4.97778,3.69042-2.4542.63166-4.79769,2.30558a28.33879,28.33879,0,0,1-6.36089,3.51524,8.01172,8.01172,0,0,0-2.25979,1.088c-.41848.25108-1.59023,2.84566-2.00871,1.84131s-.92066-1.088-.25109-2.25979,2.00871-1.925,1.00435-2.00871-2.0087-.66957-2.42718-.08369a10.95057,10.95057,0,0,1-2.67827,3.51523c-1.59023,1.17174-3.18045,1.33913-5.60764,1.17174s-4.43588-.33478-6.36089.33479-5.18916,1.088-6.77938,1.59022-3.66319,1.12839-3.44041.08877.37129-1.85647.74259-3.56443a19.87209,19.87209,0,0,0-.07426-4.82683c0-.81685-1.11388-1.70795-.96537-2.5248s-1.55943-2.07925-2.5248-3.93572-1.708-3.19313-2.67332-3.7872-3.49017-.66833-6.46052-2.45055-3.713-4.90109-5.04961-5.71793-5.79219-2.005-7.05459-3.49017a24.86323,24.86323,0,0,0-5.94072-4.97535c-2.59906-1.55943-7.87144-3.86146-10.54476-6.16349S100.05032,66.93085,98.04533,66.114a117.1481,117.1481,0,0,0-15.22308-3.34165c-2.5248-.22277-9.95069-1.48518-12.02994-1.48518s-9.69872-.5207-11.825-.03-27.31481,4.57973-28.95043,4.74329-1.96274-.65425-2.78055-.65425-6.82331,1.96557-7.40374,1.96557-1.16086-.8126-1.74129-.92869-2.67,1.50912-3.13432.69652a1.93315,1.93315,0,0,1,.11608-2.43781c.69652-.92869,3.13432,0,3.01824-.58043s-.46435-2.43781.34826-3.48258a4.39829,4.39829,0,0,1,2.90215-1.6252c.69651,0,2.32172-1.16086,2.32172-1.97347s-1.62521-1.04477-2.78607-1.27694-1.393-1.62521-1.27694-2.67-2.20564-1.27695-.69652-3.01824,3.3665-4.52736,3.01824-6.96516a6.72433,6.72433,0,0,0-4.1791-5.22387c-2.08955-.81261-3.83084-2.32173-4.1791-3.59867a8.19934,8.19934,0,0,0-2.90215-3.94693c-1.16086-.69651-2.78606-1.97346-2.67-3.59866S7.711,24.44522,9.26874,22.0382C11.38074,18.77477,7.9859,16,10.63767,16.0083Z" transform="translate(-7.4859 -15.50828)"/>
    <path class="a" d="M485.75,408.5c.47051,0,1.75,4.75-1.5,10s-3,8-4.75,10-4,4.5-4,5.5-.75,4.75-3.75,6.5-3.75,2.5-4.25,5.25-1,0-3.5,3.5-3.5,2.5-4.75,3.25-2.5,3.75-3.25,2.75.5-2.25,1.5-3.5.58333-1.5,2.08333-1.66667,3.08334-1.66666,2.83334-3.08333.83333-1.58333,1.91666-1.83333.75-1.58334,2.08334-2.41667.75-1.75.08333-2.08333-1.16667-1.83334-.25-1.91667,1.83333.19779,1.83333.64056.83334,1.19277,1.33334.52611a2.376,2.376,0,0,0-.16667-2.5c-.41667-.25-1.08333-1.91667.08333-1.58334s2.58334.58334,3-.41666-.16666-1.83334.25-2.91667,1.41667-.5,2.25-1.33333,1.16667-.83334,1-2.25-1.75-1.58334-1.58333-2.33334.25-1.5,1.5-1.08333.91667-.25,1.91667-1.16667,1.08333-2.16666,2.16666-3.25A2.91615,2.91615,0,0,0,480.91667,418.5c0-.91667.91666-1.66667,1.83333-2.16667a3.85684,3.85684,0,0,0,1.58333-3.08333c.16667-1.41667-.5-2.75-.08333-3.25S485.27949,408.5,485.75,408.5Z" transform="translate(-7.4859 -15.50828)"/>
    <path class="a" d="M454,455.70833c.30413.365.25,1.20834-1.29167,2.25s-2.375,1.375-2.83333,1.75a2.37724,2.37724,0,0,1-1.70833.375c-.20834-.125-.25,1.5-1.08334,1.66667a16.44878,16.44878,0,0,0-2.29166.375c-.66667.25-2.5-.08333-1.375-.625a9.26219,9.26219,0,0,0,2.45833-1.79167c.29167-.33333.5-1,1.45833-.91666A3.15469,3.15469,0,0,0,449.75,458.125c.625-.54167.20833-1.08333,1.04167-1.29167s1.08333-.08333,1.54166-.79166S453.58333,455.20833,454,455.70833Z" transform="translate(-7.4859 -15.50828)"/>
    <path class="a" d="M441.20833,462.66667c.35788.29822.33334,1.16666,0,1.16666s-.83333-.16666-1.08333.41667.70833.91667-1.58333,1.20833-1.45834.91667-2.83334,1.45834-1.58333,1.29166-2.58333,1.75-1.45833.5-1.70833,0-1.29167.25-1.58334.58333a2.97,2.97,0,0,0-.75,1.58333c-.04166.625-1.70833.95834-2.375.66667s-1.20833-.66667-1.25-1.29167-.41666-.66666.45834-1.16666,1.25-.29167,2.08333-.79167,1.41667-.64323,1.75-1.11328a1.483,1.483,0,0,1,1.83333-.67839,2.25922,2.25922,0,0,0,2.66667-.66666c.75-.91667.66667-1.16667,1.83333-1.375a6.85917,6.85917,0,0,0,2.58334-1.08334c.58333-.375,1.20833-.91666,1.66666-.91666S440.70833,462.25,441.20833,462.66667Z" transform="translate(-7.4859 -15.50828)"/>
    <path class="a" d="M413.125,468.95833c.41177.02422.66667.70834,1.375.375s.66667-.66666.41667-1.41666S414.582,466.75,414.10351,466.5s-.72851-.20833-.97851-.58333-1.08333-.45834-1.83333-.25-1.70834-.04167-1.625.41666.08333,1.16667.66666,1.20834.875.41666,1.25.79166A2.38415,2.38415,0,0,0,413.125,468.95833Z" transform="translate(-7.4859 -15.50828)"/>
    <path class="a" d="M415.082,473.125c-.04063-.5002.668-.875,1.32423-1.03125s1.25-.71875,1.5625-.34375.40625,1.125,0,1.25-.65625.8125-1.15625.625-.71875.28125-1.0625.28125S415.13279,473.75,415.082,473.125Z" transform="translate(-7.4859 -15.50828)"/>
    <path class="a" d="M414.03125,473.375c.025.37547-.9375.78125-2.1875,1.46875s-2.5.78125-3.03125,1.15625-1.5625.75-1.6875-.65625-.0625-1.1875-1.21875-.9375-1.90625.96912-2.6875.45331-.8125-.20331-1.09375-.95331a.81816.81816,0,0,0-1.375-.25,4.78977,4.78977,0,0,0-.375,1.96875c.03125.65625-.4375.8125-1.71875,1.375s-2.5,1.3125-3.6875,1.875a11.67834,11.67834,0,0,1-3,1.03125,4.44117,4.44117,0,0,0-2.53125,1.3125,3.36094,3.36094,0,0,1-2.65625.53125,13.6479,13.6479,0,0,0-3.21875.65625c-1.3125.3125-2.28125.46875-2.8125,0s-1.09375-.8125-.78125-1.125.96875-.9375,1.34375-1.28125.875-.40625,1-.875,1.34375.34375,2.1875.25,2.0625.21875,2.28125-.21875.125-.625.71875-.53125a1.93768,1.93768,0,0,0,1.46875-.125c.4375-.28125.21875-.625.78125-.8125s1.0625-.0625,1.40625-.59375.78125-.375,1.40625-.90625.875-.78125.78125-1.125.21875-.4375.9375-.59375.65625-1,.96875-1.28125.65625-.71875,1.0625-1.15625.65625-.78125,1.21875-.34375,1.375.75,1.59375.375.65625-.15625.8125-1.125.90625-1.03125,1.6875-.78125,1.59375.78125,1.875.21875.5625-.71875.4375-1.375-.5-1.58273-.125-1.51012,1.1875-.14613,1.25.19762.3125.875.5.625.03125-1.09375.28125-1.28125.9375-.40625,1.25-.1875.15625.78125.65625,1.0625.85442,1.06816,1.91158,1.51846,1.68217.82529,2.18217.70029.90625-.1875,1.09375.375.46875.75.34375,1.34375.15625.68592.34375.92108S414,472.90625,414.03125,473.375Z" transform="translate(-7.4859 -15.50828)"/>
    <path class="a" d="M357.53125,482.34375a4.72335,4.72335,0,0,0,2.5625.375c.90625-.21875,1.03125-.25,1.34375-1.125s.1875-1.15625,0-1.46875a1.65663,1.65663,0,0,0-1.46875-.78125c-.78125.03125-1.40625-.4375-1.8125.4375s-.15625,1.5625-.875,1.75S357.08509,482.11924,357.53125,482.34375Z" transform="translate(-7.4859 -15.50828)"/>
  </g>
</svg>
