<svg xmlns="http://www.w3.org/2000/svg" viewBox="0 0 1185.81802 1101.69492">
  <title>solid-logo</title>
  <g>
    <g>
      <path class="a" d="M625.2498,859.38261q-3.44321-7.17993-10.40051-6.67968-7.014.50572-9.42,8.16455-2.406,7.66-1.06556,26.31006,1.33055,18.4746,4.8772,25.854,3.54949,7.37988,10.56488,6.87524,6.95452-.50171,9.28961-7.91528,2.33377-7.41357.94941-26.66162Q628.69306,866.5623,625.2498,859.38261Z"/>
      <path class="a" d="M501.8463,840.01543l-3.14563-.94947L490.7061,865.5435l3.48859,1.0542q6.861,2.0702,10.66125-.2749,3.79605-2.35071,6.24884-10.46851,2.03613-6.75036.10767-10.17089Q509.27831,842.26115,501.8463,840.01543Z"/>
      <path class="a" d="M678.17918,844.66875q-3.44329-1.89588-10.94464.102l-3.17688.84448,7.116,26.72974,3.52258-.93824q6.92469-1.8446,8.924-5.83789,1.998-3.99133-.187-12.19165Q681.62237,846.56756,678.17918,844.66875Z"/>
      <path class="a" d="M237.5681,505.22343q-7.741-.7185-11.486,2.71192-3.74507,3.43066-4.55414,12.17749l-.3457,3.7124,29.51538,2.73462.42511-4.59375q.76941-8.306-2.36353-12.15186Q245.62212,505.97161,237.5681,505.22343Z"/>
      <path class="a" d="M773.17534,254.46294q4.48472-1.48793,9.00061-9.24146,3.74927-6.44458,2.60437-10.44018-1.1478-3.99573-8.24957-8.12769l-3.004-1.75146-14.72229,25.2871,3.3327,1.94141Q768.6921,255.948,773.17534,254.46294Z"/>
      <path class="a" d="M453.09984,819.21709q-6.236-3.26038-12.30774,1.9895-6.07882,5.25-14.74213,21.8186-8.58252,16.41248-9.44549,24.553-.86289,8.1449,5.3703,11.40649,6.1766,3.23072,12.06122-1.84765,5.88747-5.07972,14.82995-22.17822,8.72287-16.67652,9.56738-24.59278Q459.275,822.45074,453.09984,819.21709Z"/>
      <path class="a" d="M300.20647,342.20146q-6.18933-4.15722-10.25037-3.27319-4.06385.88842-8.6463,7.70532l-1.93842,2.885L303.65251,365.845l2.15094-3.19971q4.23395-6.29553,3.04083-10.86524Q307.654,347.2105,300.20647,342.20146Z"/>
      <polygon class="a" points="749.58 867.377 726.464 836.518 735.357 874.048 749.58 867.377"/>
      <path class="a" d="M554.22868,851.53252l-3.50274-.40235-3.21936,27.8291,4.33313.50147q7.83014.90564,11.534-1.97217,3.69828-2.878,4.57965-10.47436.84165-7.303-2.31817-10.91333Q562.47685,852.48747,554.22868,851.53252Z"/>
      <path class="a" d="M869.631,742.222q-14.49555-10.93286-22.60907-12.03833-8.10654-1.10119-14.11585,6.86084l-3.66992,4.866,51.895,39.13647,3.667-4.86572q5.97254-7.91529,2.67523-15.45337Q884.179,753.19084,869.631,742.222Z"/>
    </g>
    <path class="a" d="M1143.336,499.18681l-2.97961-2.97973c-51.25159-51.25293-83.09656-52.73218-86.55957-52.73218h-27.71521a1.43729,1.43729,0,0,1-1.38843-1.06567l-3.629-13.54493a1.43751,1.43751,0,0,1,.6698-1.61694l24.00037-13.85767c2.99829-1.73,29.83557-18.93481,48.59631-88.947l1.09229-4.06787a1.43826,1.43826,0,0,0-.14343-1.0918L1044.635,231.56474a1.43746,1.43746,0,0,0-.873-.66992l-4.06958-1.08984c-23.41956-6.27442-44.56922-9.457-62.865-9.457-24.96131,0-36.4217,5.88916-38.465,7.06933l-24.0003,13.8562a1.43725,1.43725,0,0,1-1.7353-.22851l-9.91461-9.91455a1.43777,1.43777,0,0,1-.22851-1.73535l13.85626-24.00171c1.73151-2.99829,16.37158-31.31641-2.389-101.33008l-1.09-4.06934a1.43676,1.43676,0,0,0-.66987-.873L824.475,48.47734a1.43729,1.43729,0,0,0-1.09076-.14355l-4.0697,1.08984c-70.01508,18.76074-87.217,45.59961-88.94855,48.59766l-13.859,24.002a1.43737,1.43737,0,0,1-1.617.66968L701.34648,119.064a1.43744,1.43744,0,0,1-1.06549-1.38843V89.96025c0-3.46289-1.47931-35.3064-52.73383-86.561l-2.97674-2.978A1.43837,1.43837,0,0,0,643.5537.00005H542.26433a1.43829,1.43829,0,0,0-1.01673.42114l-2.9768,2.978C487.01634,54.65385,485.537,86.49736,485.537,89.96025v27.71533a1.43744,1.43744,0,0,1-1.06549,1.38843L470.928,122.69292a1.43734,1.43734,0,0,1-1.61694-.66968l-13.859-24.002c-1.73151-2.998-18.93347-29.83692-88.94861-48.59766l-4.0697-1.08984a1.43718,1.43718,0,0,0-1.0907.14355L273.627,99.1209a1.43675,1.43675,0,0,0-.66986.873l-1.09,4.06934c-18.75775,70.01367-4.11767,98.33179-2.38617,101.33008l13.85626,24.00195a1.4374,1.4374,0,0,1-.22839,1.73511l-9.91473,9.916a1.438,1.438,0,0,1-1.73536.22852L247.4528,227.41582c-2.04327-1.18018-13.50933-7.06787-38.46209-7.06787-18.29584,0-39.44831,3.18115-62.86512,9.45556l-4.06951,1.08985a1.43815,1.43815,0,0,0-.87305.66992l-50.64459,87.7185a1.43745,1.43745,0,0,0-.14337,1.09156l1.09234,4.06787c18.76062,70.01367,45.598,87.2185,48.59625,88.95l24.00293,13.8562a1.43742,1.43742,0,0,1,.6698,1.61719L161.125,442.40947a1.43757,1.43757,0,0,1-1.38848,1.06543H132.02116c-3.46307,0-35.308,1.47925-86.55963,52.73218l-2.97961,2.97973a1.43758,1.43758,0,0,0-.42108,1.0166V601.49126a1.43681,1.43681,0,0,0,.42151,1.01684l2.97918,2.97681c51.25165,51.25464,83.09656,52.73389,86.55963,52.73389h27.71515a1.43754,1.43754,0,0,1,1.38855,1.06543l3.629,13.5437a1.43722,1.43722,0,0,1-.66974,1.6167l-24.00043,13.85913c-2.99829,1.73144-29.83563,18.93335-48.59625,88.94848L90.395,781.32158a1.43749,1.43749,0,0,0,.14344,1.09155L141.183,870.12871a1.43729,1.43729,0,0,0,.87305.66992l4.06951,1.09009c23.41681,6.27417,44.56641,9.45678,62.86231,9.45678,24.96405,0,36.42731-5.89184,38.46777-7.0708l24.00031-13.856a1.43743,1.43743,0,0,1,1.73523.22827l9.91467,9.91479a1.43739,1.43739,0,0,1,.22852,1.73511l-13.85627,24.00317c-1.7315,2.9983-16.37164,31.31788,2.389,101.33008l1.09,4.06958a1.43759,1.43759,0,0,0,.6698.87305l87.71563,50.64453a1.43708,1.43708,0,0,0,1.09156.14331l4.06927-1.09228c70.01514-18.76075,87.2171-45.5979,88.94861-48.5962L469.3109,979.669a1.43772,1.43772,0,0,1,1.61725-.66968l13.54364,3.63135a1.43766,1.43766,0,0,1,1.06524,1.38867v27.71533c0,3.4629,1.47931,35.30787,52.73377,86.55957l2.9768,2.97925a1.43769,1.43769,0,0,0,1.01691.42139h101.289a1.43767,1.43767,0,0,0,1.01691-.42139l2.97674-2.97925c51.25452-51.2517,52.73383-83.09667,52.73383-86.55957V984.01933a1.43766,1.43766,0,0,1,1.06549-1.38843l13.54358-3.6289a1.43731,1.43731,0,0,1,1.61694.66968l13.859,24.00048c1.73151,2.9983,18.93347,29.83545,88.94855,48.5962l4.06934,1.09228a1.43705,1.43705,0,0,0,1.09155-.14331L912.191,1002.5728a1.43748,1.43748,0,0,0,.66987-.87305l1.09-4.06958c18.75781-70.0122,4.11774-98.33178,2.38617-101.33008l-13.85614-24.00024a1.43766,1.43766,0,0,1,.22846-1.73535L912.624,860.65a1.437,1.437,0,0,1,1.73517-.22852l24.00317,13.8562c2.04608,1.18164,13.50934,7.06787,38.465,7.06787,18.29583,0,39.44549-3.17968,62.86505-9.45678l4.06958-1.09009a1.43746,1.43746,0,0,0,.873-.66992l50.64466-87.71558a1.43745,1.43745,0,0,0,.14331-1.09155l-1.09229-4.06934c-18.76074-70.01513-45.598-87.217-48.59631-88.94848l-24.003-13.85889a1.43772,1.43772,0,0,1-.66968-1.61719l3.63135-13.5437a1.43747,1.43747,0,0,1,1.38855-1.06518h27.71533c3.463,0,35.308-1.47925,86.55957-52.73389l2.97925-2.97681a1.43681,1.43681,0,0,0,.42151-1.01684V500.20341A1.43735,1.43735,0,0,0,1143.336,499.18681Zm-11.188,51.66016v45.81982a1.49754,1.49754,0,0,1-.43958,1.0503c-49.0658,48.89428-77.913,48.89428-77.913,48.89428H1017.191a1.46085,1.46085,0,0,0-1.411,1.08277l-8.2304,30.71679a1.4606,1.4606,0,0,0,.6806,1.64307l31.70032,18.30225s24.98193,14.42358,43.02734,81.30029a1.49557,1.49557,0,0,1-.14429,1.12915l-22.90991,39.68091-22.90991,39.68115a1.4954,1.4954,0,0,1-.90576.6897c-66.9397,17.81079-91.92176,3.3872-91.92176,3.3872l-31.70019-18.30224a1.46093,1.46093,0,0,0-1.76343.23218l-22.48645,22.48608a1.46083,1.46083,0,0,0-.23218,1.76343l18.30219,31.70019s14.42352,24.98243-3.38721,91.92188a1.49648,1.49648,0,0,1-.6897.90576l-39.68115,22.90967-39.68078,22.90991a1.49671,1.49671,0,0,1-1.12922.14453c-66.87658-18.04516-81.30017-43.02759-81.30017-43.02759l-18.30218-31.70019a1.4606,1.4606,0,0,0-1.64319-.68067l-30.717,8.23047a1.46048,1.46048,0,0,0-1.08276,1.41089v36.60449s0,28.84717-48.89435,77.91285a1.49605,1.49605,0,0,1-1.05011.43969H547.08891a1.49618,1.49618,0,0,1-1.05011-.43969c-48.89435-49.06568-48.89435-77.91285-48.89435-77.91285V975.129a1.4605,1.4605,0,0,0-1.0827-1.41089l-30.717-8.231a1.461,1.461,0,0,0-1.64325.68066l-18.30218,31.70044s-14.42353,24.98218-81.30017,43.02734a1.49671,1.49671,0,0,1-1.12921-.14453l-39.68116-22.90991L283.608,994.93144a1.49718,1.49718,0,0,1-.6897-.90576c-17.81073-66.93945-3.38715-91.92163-3.38715-91.92163l18.30213-31.70044a1.46082,1.46082,0,0,0-.23212-1.76343L275.115,846.15385a1.46093,1.46093,0,0,0-1.76343-.23217l-31.7002,18.30224s-24.98242,14.42359-91.92181-3.3872a1.49559,1.49559,0,0,1-.9057-.6897l-22.90985-39.68115L103.00413,780.785a1.49654,1.49654,0,0,1-.1444-1.1294c18.045-66.87671,43.02746-81.30029,43.02746-81.30029L177.58745,680.053a1.46071,1.46071,0,0,0,.68066-1.64306l-8.23016-30.7168a1.4608,1.4608,0,0,0-1.41107-1.08276H132.02257s-28.84717,0-77.913-48.89429a1.49608,1.49608,0,0,1-.43951-1.05029V505.02666a1.49611,1.49611,0,0,1,.43951-1.0503c49.06586-48.89428,77.913-48.89428,77.913-48.89428h36.60437a1.46079,1.46079,0,0,0,1.411-1.08277l8.23047-30.71655a1.461,1.461,0,0,0-.68061-1.64331L145.88756,403.3372s-24.98206-14.42334-43.02747-81.3a1.49588,1.49588,0,0,1,.14441-1.12915l22.90985-39.68115,22.90991-39.68115a1.49658,1.49658,0,0,1,.90564-.6897c66.93976-17.81079,91.92188-3.3872,91.92188-3.3872l31.70019,18.302a1.46115,1.46115,0,0,0,1.76337-.23194l22.48651-22.48608a1.4609,1.4609,0,0,0,.23218-1.76343l-18.30219-31.70019s-14.42358-24.98243,3.38721-91.92188a1.49674,1.49674,0,0,1,.6897-.90576L323.2899,83.85185l39.68079-22.90991a1.49668,1.49668,0,0,1,1.12921-.14453c66.87659,18.04516,81.30017,43.02759,81.30017,43.02759l18.30218,31.70019a1.4609,1.4609,0,0,0,1.64319.68067l30.717-8.23047a1.46048,1.46048,0,0,0,1.08277-1.41089V89.96025s0-28.84717,48.89428-77.91309a1.49613,1.49613,0,0,1,1.05018-.43945h91.63946a1.49607,1.49607,0,0,1,1.05011.43945c48.89435,49.06592,48.89435,77.91309,48.89435,77.91309V126.5645a1.461,1.461,0,0,0,1.0827,1.41113l30.717,8.23047a1.46088,1.46088,0,0,0,1.64325-.68042l18.30219-31.70044s14.42352-24.98242,81.30017-43.02734a1.49563,1.49563,0,0,1,1.12921.14428L862.52922,83.8521,902.21,106.762a1.49583,1.49583,0,0,1,.68969.90576c17.81073,66.93945,3.38715,91.92188,3.38715,91.92188l-18.30219,31.70019a1.4606,1.4606,0,0,0,.23218,1.76318L910.703,255.5396a1.46092,1.46092,0,0,0,1.76343.23217l31.70019-18.30224s24.98242-14.42334,91.92188,3.3872a1.49675,1.49675,0,0,1,.90564.6897l22.90979,39.68091,22.90991,39.68115a1.49727,1.49727,0,0,1,.14453,1.1294c-18.04517,66.87646-43.02759,81.30005-43.02759,81.30005l-31.70019,18.30224a1.46105,1.46105,0,0,0-.68067,1.64331l8.23016,30.7168a1.4605,1.4605,0,0,0,1.41095,1.08252h36.6045s28.84716,0,77.913,48.89453a1.4961,1.4961,0,0,1,.43958,1.05Z"/>
    <path class="a" d="M1120.08726,508.83086c-40.6267-39.31812-64.92358-42.00684-66.23449-42.135a1.17733,1.17733,0,0,0-.12793-.00562h-45.44177a1.45767,1.45767,0,0,1-1.408-1.08032l-12.84247-47.92725a1.45778,1.45778,0,0,1,.67932-1.63989l39.171-22.61084c.20886-.13574,20.60767-13.84644,36.58276-69.78613a1.49309,1.49309,0,0,0-.13818-1.14795l-40.95313-70.93067a1.491,1.491,0,0,0-.92407-.69458c-19.34466-4.85156-36.68963-7.30883-51.623-7.30883-18.67847,0-26.83167,3.9602-26.86,3.9602l.00281-.00268-39.4148,22.7583a1.45789,1.45789,0,0,1-1.7597-.23169l-35.08618-35.08618a1.45776,1.45776,0,0,1-.23163-1.75977l22.59021-39.1167c.01935-.03345.02759-.04663.04437-.08154.46454-.96656,10.6629-23.242-3.2276-78.69776a1.49458,1.49458,0,0,0-.69366-.92529L821.25944,73.428a1.495,1.495,0,0,0-1.14807-.13794c-54.4071,15.53711-68.86407,35.25-69.61047,36.29566a1.14242,1.14242,0,0,0-.06659.105L727.7144,149.04546a1.458,1.458,0,0,1-1.63971.67919L678.146,136.88213a1.45759,1.45759,0,0,1-1.08044-1.40821l.00555-45.17041c0-.03882.00049-.05469-.00244-.09326-.0816-1.07251-2.38892-25.4624-42.1452-66.54028a1.49367,1.49367,0,0,0-1.0633-.45435H551.95787a1.49367,1.49367,0,0,0-1.06329.45435c-39.3606,40.66821-42.01551,64.97-42.137,66.238a1.13089,1.13089,0,0,0-.00494.12281v45.44336a1.45766,1.45766,0,0,1-1.08045,1.408l-47.92871,12.84252a1.45788,1.45788,0,0,1-1.63983-.67944l-22.57879-39.12012c-.0196-.03369-.027-.04785-.04914-.08007-.60956-.89112-14.80481-20.8584-69.769-36.55494a1.49395,1.49395,0,0,0-1.14807.13819l-70.9317,40.95239a1.49456,1.49456,0,0,0-.69367.92529c-13.73193,54.82373-3.92224,77.21-3.37207,78.427a1.1849,1.1849,0,0,0,.06061.11645L312.34312,233.202a1.45753,1.45753,0,0,1-.23162,1.75952l-35.08631,35.085a1.4578,1.4578,0,0,1-1.75964.23169l-39.16828-22.6167c-.07934-.041-8.20709-4.09765-27.10656-4.09765-14.93616,0-32.27838,2.45581-51.62293,7.30737a1.49051,1.49051,0,0,0-.92407.69458l-40.95325,70.93066a1.49338,1.49338,0,0,0-.13812,1.148c15.525,54.36426,35.22107,68.8396,36.29334,69.60718a1.1301,1.1301,0,0,0,.10858.06909l39.35479,22.72217a1.45758,1.45758,0,0,1,.6792,1.63965L178.943,465.60991a1.45782,1.45782,0,0,1-1.40814,1.08032l-45.22754-.00415c-.25128.0127-24.77216,1.68677-66.57654,42.14478a1.49419,1.49419,0,0,0-.45441,1.06347V591.7979a1.49383,1.49383,0,0,0,.45441,1.06323c40.62659,39.31958,64.92358,42.00854,66.23444,42.13647a1.17788,1.17788,0,0,0,.12793.00562H177.5349a1.45775,1.45775,0,0,1,1.40808,1.08032l12.84247,47.92871a1.45784,1.45784,0,0,1-.67939,1.6399l-39.11963,22.57861c-.03418.01953-.0484.02734-.08093.04956-.89612.614-20.85937,14.814-36.55316,69.7688a1.4941,1.4941,0,0,0,.13812,1.14819l40.95325,70.93042a1.49055,1.49055,0,0,0,.924.69458c19.34186,4.85156,36.68683,7.30762,51.62018,7.30762,18.68127,0,26.83447-3.96192,26.86279-3.96192l-.00281.00293,39.4148-22.7583a1.45789,1.45789,0,0,1,1.7597.23169l35.08619,35.08618a1.45768,1.45768,0,0,1,.23162,1.75977L289.75,907.6082c-.01934.03345-.02758.04663-.04437.08154-.46448.96631-10.663,23.2417,3.2276,78.69922a1.49389,1.49389,0,0,0,.69367.92529l70.9317,40.95118a1.4949,1.4949,0,0,0,1.148.13818c54.40747-15.53589,68.86426-35.25024,69.61053-36.2959a1.14242,1.14242,0,0,0,.06659-.105l22.71985-39.356a1.45751,1.45751,0,0,1,1.63983-.6792l47.92871,12.84522a1.4574,1.4574,0,0,1,1.08033,1.4082l-.0055,45.16895c0,.03906-.00055.05469.00244.09326.08136,1.07178,2.38721,25.46216,42.14521,66.54175a1.49366,1.49366,0,0,0,1.06329.45434h81.90228a1.49342,1.49342,0,0,0,1.06324-.45434c39.36071-40.66675,42.01556-64.97,42.137-66.238a1.11125,1.11125,0,0,0,.005-.12256V966.221a1.45793,1.45793,0,0,1,1.08045-1.4082l47.92871-12.84253a1.458,1.458,0,0,1,1.63983.67944L750.293,991.76933c.01972.03418.02735.04834.04969.08106.61407.896,14.8139,20.85937,69.76873,36.553a1.49392,1.49392,0,0,0,1.14807-.13794l70.93171-40.95118a1.49413,1.49413,0,0,0,.69366-.92529c13.73181-54.82324,3.92243-77.21094,3.37207-78.42822a1.17181,1.17181,0,0,0-.06061-.1167L873.4749,868.493a1.45745,1.45745,0,0,1,.23163-1.75953l35.08624-35.08618a1.45764,1.45764,0,0,1,1.75977-.23169l39.12048,22.5918c.0318.01831.04584.02686.07886.04272.56707.27417,8.767,4.07984,27.07544,4.07984,14.93335,0,32.27826-2.45606,51.623-7.30762a1.491,1.491,0,0,0,.92407-.69458l40.95313-70.93066a1.49309,1.49309,0,0,0,.13818-1.148c-15.5249-54.36475-35.22046-68.84033-36.29333-69.60864a1.18148,1.18148,0,0,0-.10852-.0691L994.709,685.65215a1.45756,1.45756,0,0,1-.67926-1.63965l12.84515-47.92871a1.45791,1.45791,0,0,1,1.40827-1.08057l45.16906.00561c.03895,0,.05445.00049.09327-.00244,1.07177-.0813,25.462-2.3872,66.54174-42.14526a1.49451,1.49451,0,0,0,.45435-1.06323V509.89433A1.49462,1.49462,0,0,0,1120.08726,508.83086ZM957.3922,429.15215l2.95861,11.11743-55.63287,40.11987L966.645,463.90166l3.04078,11.4209L880.519,499.0623l-3.00678-11.29883,56.15436-40.12841-62.41449,16.61523-3.0238-11.3584Zm-9.29248-24.2754-10.04908,4.76954-10.4884-22.0962-24.777,11.76075,9.59284,20.21142-9.93573,4.71582-9.5929-20.21167-28.20325,13.38745,10.48554,22.0962-10.392,4.93115L848.915,411.097l83.36005-39.56152ZM887.06535,303.867l6.6966,9.03711-43.89478,48.08911,58.9798-27.72437,6.46985,8.73414-69.36609,61.37451-6.8468-9.24439L888.88762,352.616,829.5479,381.23613l-5.0019-6.75342,44.66559-48.42627L814.99,361.58281l-6.77027-9.14233Zm-60.50158-57.9314,9.23578,8.06543L790.621,305.75127q-4.3656,4.99914-4.20557,9.33227.15729,4.33594,4.778,8.36572,4.61653,4.0298,8.90991,3.58228,4.28914-.44677,8.65478-5.44409l45.1814-51.75049,9.28394,8.10522L818.70811,328.93Q809.896,339.022,801.441,339.81816q-8.45928.79908-17.97845-7.51562-9.52194-8.31044-9.87341-16.79688-.35285-8.48877,8.45929-18.5791Zm-58.32514-36.69092,12.99927,7.56958q12.944,7.53223,15.63477,15.53833,2.6866,8.00025-3.82862,19.197-5.15213,8.84619-11.79767,11.59643-6.64838,2.75061-14.67126-.68017L762.66429,312.771l-11.52277-6.71069L755.571,256.4976l-.32587-.18969-22.67431,38.94091-10.75757-6.26293Zm-67.184-15.11621,4.02985-10.77465,43.80408,16.386-4.02991,10.77173L728.81584,204.512,700.519,280.16093l-11.72113-4.384L717.09471,200.128Zm-66.03345,51.606a42.65752,42.65752,0,0,0,7.201,5.54028,21.33115,21.33115,0,0,0,6.62012,2.65259,12.28,12.28,0,0,0,9.5163-1.4707,11.94026,11.94026,0,0,0,5.03308-8.04566q1.60685-7.99144-8.90137-20.80664-1.23706-1.53882-1.85626-2.30688-6.72492-8.2467-8.805-14.56641a25.80905,25.80905,0,0,1-.66034-13.3789,24.17293,24.17293,0,0,1,9.93011-15.7312,21.80266,21.80266,0,0,1,17.47968-3.57642,32.6515,32.6515,0,0,1,15.03967,7.27759l-2.44281,12.14331a29.98611,29.98611,0,0,0-6.16669-5.07544,20.11662,20.11662,0,0,0-6.416-2.54785,12.93816,12.93816,0,0,0-9.91309,1.522,12.24678,12.24678,0,0,0-5.28241,8.31738q-1.56856,7.80469,9.60986,21.14112,1.0372,1.24144,1.621,1.87329,6.48687,7.8175,8.55,14.22631a27.13956,27.13956,0,0,1,.56965,13.84375q-2.09574,10.41065-10.07465,15.79932-7.98321,5.38989-18.3299,3.31006a28.49306,28.49306,0,0,1-7.45886-2.66113,39.55415,39.55415,0,0,1-7.36822-5.02735ZM575.571,167.01054l11.50006.19556,23.37427,64.48608,1.07971-64.07226,11.8175.19848L621.78392,260.074l-11.68994-.19531L586.85857,194.888l-1.09107,64.57959-11.75513-.19824Zm-26.9082,2.84253,12.06689,91.47632-12.3446,1.62964-12.064-91.47925Zm-94.64478,29.4021a21.80023,21.80023,0,0,1,13.19476-12.00732,32.61363,32.61363,0,0,1,16.64655-1.43408l4.10919,11.687a29.9408,29.9408,0,0,0-7.89532-1.21,20.08622,20.08622,0,0,0-6.81848,1.09106,12.91873,12.91873,0,0,0-7.73945,6.37354,12.23531,12.23531,0,0,0-.28906,9.8479q2.63984,7.51136,19.06671,13.26c1.01734.35693,1.80237.61767,2.34931.782q9.573,3.401,14.62024,7.85571a27.116,27.116,0,0,1,7.56659,11.60791q3.51974,10.01514-.58374,18.72925-4.10641,8.71033-14.062,12.21143a28.4784,28.4784,0,0,1-7.76776,1.52758,39.52868,39.52868,0,0,1-8.90423-.55542l-4.21405-11.98193a42.38306,42.38306,0,0,0,9.02038,1.07983,21.34013,21.34013,0,0,0,7.048-1.10522,12.25669,12.25669,0,0,0,7.42492-6.127,11.93028,11.93028,0,0,0,.2154-9.488q-2.70355-7.69007-18.28736-13.33081-1.84919-.68849-2.77441-1.03442-9.9939-3.65589-15.01135-8.02a25.83327,25.83327,0,0,1-7.41071-11.16285A24.18888,24.18888,0,0,1,454.01805,199.25517ZM400.11388,225.7581a21.81014,21.81014,0,0,1,11.11749-13.95434,32.68175,32.68175,0,0,1,16.20721-4.061l5.91443,10.885a29.92837,29.92837,0,0,0-7.986.05957,20.12494,20.12494,0,0,0-6.55768,2.16235,12.91551,12.91551,0,0,0-6.6286,7.52125,12.24447,12.24447,0,0,0,1.28094,9.77148q3.80036,6.99683,20.9314,10.05762c1.05994.19262,1.8761.323,2.44568.39941q9.98538,1.83656,15.683,5.42993a27.144,27.144,0,0,1,9.31513,10.25879q5.06708,9.33069,2.40039,18.582-2.6696,9.25856-11.93939,14.29444a28.4422,28.4422,0,0,1-7.43055,2.74316,39.536,39.536,0,0,1-8.87872.86719L429.924,289.615a42.34223,42.34223,0,0,0,9.07989-.36841,21.42378,21.42378,0,0,0,6.78162-2.21045,12.27711,12.27711,0,0,0,6.3565-7.22949,11.9446,11.9446,0,0,0-1.2951-9.40284q-3.89383-7.16271-20.17481-10.25317-1.93835-.38672-2.90478-.58105-10.44864-2.0193-16.09668-5.53174a25.79977,25.79977,0,0,1-9.08844-9.83936A24.18452,24.18452,0,0,1,400.11388,225.7581Zm-25.035,8.96094,6.78443,8.81348-19.37561,14.92065,16.73437,21.73047,17.72626-13.64819,6.70788,8.71142L385.93,288.898l19.04968,24.73462L424.35814,298.712l7.01678,9.11108-29.24048,22.51831-56.29888-73.104ZM312.10612,289.8416,370.726,345.40385l18.34686-19.35571,8.34876,7.91211-26.911,28.39331L303.542,298.8792ZM271.79631,341.303q8.3572-12.42955,16.51611-14.59765,8.15754-2.168,18.91083,5.05859,8.49334,5.71326,10.80859,12.52319,2.31675,6.81006-1.62664,14.59473l49.94519,7.15576L358.9113,377.104l-49.17151-7.626-.21252.31446,37.39367,25.14282L339.975,405.26787l-76.57281-51.48413Zm-20.55737,34.33033,10.1455,4.56543-10.04064,22.303,25.01226,11.25635,9.18195-20.39844,10.0293,4.51148-9.18476,20.40161,28.46967,12.81494,10.04059-22.303,10.4884,4.72119L320.231,447.16167l-84.1394-37.87256Zm-23.47913,56.2478,10.7406,2.89355-6.36218,23.615,26.48309,7.13306,5.82093-21.6001,10.6159,2.85938-5.81805,21.603,30.14734,8.11914,6.35937-23.61524,11.10614,2.99-9.59851,35.63941-89.09595-24.00049Zm-18.548,103.33642,1.39709-15.10205a55.46688,55.46688,0,0,1,2.4032-12.91406,21.37341,21.37341,0,0,1,4.71851-7.751,21.60865,21.60865,0,0,1,9.26409-5.458,31.38159,31.38159,0,0,1,12.22559-1.11939q12.58686,1.169,18.45172,9.10523,5.86624,7.93652,4.55982,22.03393c-.09357,1.00611-.17292,1.76-.24372,2.26148-.06518.50171-.13891.94092-.21539,1.312l40.46283,3.7522-1.14771,12.39575Zm57.34924,106.939a7.15345,7.15345,0,1,1,7.1535-7.15332A7.16152,7.16152,0,0,1,266.561,642.15654Zm7.39191,115.30371,72.39843-48.636,6.56336,9.76856-72.39844,48.636Zm45.19836,57.08936,29.77045-58.053L303.70067,797.512l-7.46454-8.22949L360.83842,730.688l7.30585,8.05127-29.33685,57.82056,44.86682-40.69531,7.50708,8.27514-64.60516,58.59449Zm62.73187-.87549q-10.23193,13.23267-11.90533,22.09326-1.67909,8.85864,5.08124,14.08447a16.1751,16.1751,0,0,0,4.41528,2.39478,29.177,29.177,0,0,0,5.818,1.363l-7.01684,9.07422a25.19528,25.19528,0,0,1-11.55109-5.08105q-10.589-8.183-9.14795-20.88892,1.44114-12.70166,14.92353-30.14453,13.73886-17.76892,26.38952-22.561,12.65067-4.79481,23.618,3.68432a26.40794,26.40794,0,0,1,4.17157,3.97876,25.26358,25.26358,0,0,1,3.004,4.51441l-6.83264,8.83618a24.94433,24.94433,0,0,0-2.66956-4.40674,17.32615,17.32615,0,0,0-3.06347-3.12012q-7.41778-5.7389-15.84735-1.86767Q392.84483,799.49576,381.88316,813.67412Zm77.406,47.00635q-11.10333,21.22887-21.0221,27.70166-9.91735,6.47826-21.54919.39111-11.68579-6.1084-12.04993-17.96436-.36557-11.85572,10.7378-33.08056,11.10333-21.22889,21.08728-27.76953,9.9896-6.538,21.67389-.428,11.63049,6.08313,11.95355,17.95019Q470.44777,839.34954,459.28917,860.68047Zm63.19665-1.39161q-2.79711,9.26734-8.30627,13.24878-5.50909,3.98731-13.63684,2.59009l7.42773,47.11133-12.06689-3.64453L489.11626,872.053l-.34571-.105L476.46,912.72563l-11.2649-3.40356,25.2107-83.49341,13.60852,4.10937q13.55611,4.08912,17.78289,10.85962Q526.02682,847.56487,522.48582,859.28886Zm57.1009,9.55054q-1.37312,11.86853-8.99775,17.24146-7.63036,5.37341-20.9201,3.83447c-.94934-.1106-1.66065-.20117-2.13391-.27783-.47327-.07373-.88422-.15015-1.2356-.23243l-4.41528,38.15625-11.68994-1.35205L540.2177,839.5706l14.24054,1.64649a52.44393,52.44393,0,0,1,12.15472,2.5476,19.26331,19.26331,0,0,1,12.18024,13.49805A29.64287,29.64287,0,0,1,579.58672,868.8394Zm-77.12189-98.89575c-42.5614-4.83667-69.64673-31.92139-69.64673-31.92139V391.72343l-25.14972-28.05224h370.4812l-25.14972,28.05224V738.02226S725.9146,765.107,683.35319,769.94365C610.85912,778.18144,592.909,813.473,592.909,813.473S574.95891,778.18144,502.46483,769.94365ZM638.609,919.33134q-5.0331,10.72523-18.123,11.66748-13.15229.94374-19.69867-8.94384-6.54217-9.8921-8.26373-33.78614-1.71735-23.89012,3.33551-34.70727,5.05434-10.81421,18.208-11.76074,13.08856-.94372,19.608,8.98071,6.51665,9.92139,8.2439,33.93359Q643.64065,908.60931,638.609,919.33134Zm64.87152-4.58789-30.238-36.0249-.34577.09058,10.956,41.15991-11.37256,3.02954-22.43909-84.28393,13.7417-3.6587q13.67944-3.64307,20.83508-.10473,7.1543,3.53247,10.3042,15.36841,2.491,9.35192-.10205,15.63769-2.593,6.28272-10.239,9.37158l31.07977,36.17237ZM766.646,889.13017l-11.06653-13.74438-18.00958,8.44507,3.60193,17.24731-10.76331,5.05005-18.53955-87.6394,10.00659-4.69288,55.5337,70.28711Zm33.74078-19.88281-42.73852-63.26172-13.41583,9.06275-6.08728-9.009,36.6314-24.74853,6.08729,9.01172-13.41584,9.06,42.73853,63.262Zm39.09406-28.89478-59.31415-63.94482,25.579-23.72559,7.15,7.70826L795.946,776.11308l17.62988,19.00733,15.50446-14.3794,7.07068,7.62036-15.50446,14.38208,20.06708,21.63428,16.9497-15.72266,7.39374,7.97193Zm52.8103-55.45434-9.35193,12.40137L813.30382,744.784l9.352-12.40137q10.71653-14.21044,22.88678-14.12695,12.17037.085,31.34332,14.54639,19.2225,14.49573,22.67145,26.1914Q903.00907,770.6873,892.29112,784.89824Zm27.02625-142.7417a7.15345,7.15345,0,1,1,7.1535-7.15332A7.16152,7.16152,0,0,1,919.31737,642.15654Zm46.25921-97.397-1.34326-17.07447-80.51764,6.33374-.9834-12.47216L963.25279,515.21l-1.34613-17.07447,11.46893-.90112,3.66993,46.62378Z"/>
    <path class="a" d="M444.42522,387.282V732.8333c7.96618,6.6372,29.44171,22.17822,59.34814,25.57617,49.8205,5.66211,76.28095,23.80786,89.09033,36.56641A93.72721,93.72721,0,0,1,604.12,785.40849c19.62213-14.269,45.84168-23.35156,77.92175-26.999,29.66846-3.37232,51.33387-18.97876,59.351-25.60742V387.282ZM631.35979,525.69658l25.50641,28.11816-99.50605,64.5022,24.66822,23.75293-104.47168,64.031,69.64666-66.38208-27.56848-24.30372L621.92845,549.3958l-21.87579-26.00806,102.074-85.72Z"/>
  </g>
</svg>
