<svg xmlns="http://www.w3.org/2000/svg" viewBox="0 0 742.52268 124">
  <title>building-outline</title>
  <polyline class="a" points="574.626 99.678 574.626 123.5 314.543 123.5 314.543 0.5 574.626 0.5 574.626 28.461"/>
  <path class="a" d="M579.53643,107.46746" transform="translate(-4.91055 -7.78913)"/>
  <path class="a" d="M579.53643,36.25014" transform="translate(-4.91055 -7.78913)"/>
  <polyline class="a" points="574.626 123.5 742.023 123.5 742.023 0.5 574.626 0.5"/>
  <polyline class="a" points="194.401 7.044 301.264 7.044 301.264 123.5 46.336 123.5 46.336 53.635"/>
  <polyline class="a" points="623.249 123.5 623.249 37.377 703.183 37.377 703.183 123.5"/>
  <line class="a" x1="574.62589" y1="7.04417" x2="742.02268" y2="7.04417"/>
  <polyline class="a" points="446.509 23.361 324.257 23.361 324.84 123.5"/>
  <line class="a" x1="565.59276" y1="23.36142" x2="452.5983" y2="23.36142"/>
  <path class="a" d="M570.50331,31.15055" transform="translate(-4.91055 -7.78913)"/>
  <path class="a" d="M576.59218,31.15055" transform="translate(-4.91055 -7.78913)"/>
  <line class="a" x1="742.02268" y1="23.36142" x2="571.68163" y2="23.36142"/>
  <line class="a" x1="580.6985" y1="62" x2="623.24944" y2="62"/>
  <path class="a" d="M587.8631,69.78913" transform="translate(-4.91055 -7.78913)"/>
  <path class="a" d="M578.06741,69.78913" transform="translate(-4.91055 -7.78913)"/>
  <line class="a" x1="452.5983" y1="62" x2="574.62589" y2="62"/>
  <line class="a" x1="324.48182" y1="62" x2="446.5094" y2="62"/>
  <line class="a" x1="623.24944" y1="46.94612" x2="703.18329" y2="46.94612"/>
  <line class="a" x1="623.08696" y1="56.51535" x2="703.02081" y2="56.51535"/>
  <line class="a" x1="623.08696" y1="66.08459" x2="703.02081" y2="66.08459"/>
  <line class="a" x1="623.08696" y1="75.65382" x2="703.02081" y2="75.65382"/>
  <line class="a" x1="623.08696" y1="85.22306" x2="703.02081" y2="85.22306"/>
  <line class="a" x1="623.08696" y1="94.79229" x2="703.02081" y2="94.79229"/>
  <line class="a" x1="623.08696" y1="104.36153" x2="703.02081" y2="104.36153"/>
  <line class="a" x1="623.08696" y1="113.93076" x2="703.02081" y2="113.93076"/>
  <polyline class="a" points="101.864 123.5 101.864 37.377 181.798 37.377 181.798 123.5"/>
  <line class="a" x1="101.86386" y1="46.94612" x2="181.79771" y2="46.94612"/>
  <line class="a" x1="101.70138" y1="56.51535" x2="181.63523" y2="56.51535"/>
  <line class="a" x1="181.63523" y1="66.08459" x2="101.70138" y2="66.08459"/>
  <line class="a" x1="101.70138" y1="75.65382" x2="181.63523" y2="75.65382"/>
  <line class="a" x1="101.70138" y1="85.22306" x2="181.63523" y2="85.22306"/>
  <line class="a" x1="101.70138" y1="94.79229" x2="181.63523" y2="94.79229"/>
  <line class="a" x1="101.70138" y1="104.36153" x2="181.63523" y2="104.36153"/>
  <line class="a" x1="101.70138" y1="113.93076" x2="181.63523" y2="113.93076"/>
  <g>
    <polyline class="a" points="353.698 123.5 353.698 83.246 374.834 83.246 374.834 123.5"/>
    <circle class="a" cx="356.93982" cy="103.37279" r="1.08773"/>
  </g>
  <g>
    <polyline class="a" points="589.905 123.5 589.905 83.246 611.041 83.246 611.041 123.5"/>
    <circle class="a" cx="593.14638" cy="103.37279" r="1.08773"/>
  </g>
  <polygon class="a" points="22.334 7.044 194.401 7.044 194.401 31.935 1.084 31.935 22.334 7.044"/>
  <line class="a" x1="101.86386" y1="62" x2="46.33594" y2="62"/>
  <polyline class="a" points="1.084 31.935 1.084 53.635 92.412 53.635 92.412 31.935"/>
  <circle class="a" cx="230.27412" cy="62" r="8.67587"/>
  <circle class="a" cx="722.60299" cy="62" r="8.67587"/>
  <polyline class="a" points="268.213 62 253.724 62 253.724 76.354 206.825 76.354 206.825 62"/>
  <line class="a" x1="301.26447" y1="62" x2="274.30193" y2="62"/>
  <path class="a" d="M232.88227,55.43528" transform="translate(-4.91055 -7.78913)"/>
  <path class="a" d="M229.99882,55.43528" transform="translate(-4.91055 -7.78913)"/>
  <line class="a" x1="206.82459" y1="62" x2="181.79771" y2="62"/>
  <path class="a" d="M708.09383,69.78913" transform="translate(-4.91055 -7.78913)"/>
  <polyline class="a" points="703.183 62 710.319 62 710.319 74.284 734.887 74.284 734.887 62 742.023 62"/>
  <path class="a" d="M536.45064,120.85941" transform="translate(-4.91055 -7.78913)"/>
  <path class="a" d="M579.52015,48.29236" transform="translate(-4.91055 -7.78913)"/>
  <path class="a" d="M583.35019,99.38713" transform="translate(-4.91055 -7.78913)"/>
  <path class="a" d="M585.60905,105.04153" transform="translate(-4.91055 -7.78913)"/>
  <polyline class="a" points="574.626 1.888 564.618 1.888 564.618 3.916 565.593 4.804 565.593 24.969 574.61 40.62 574.61 93.128 525.457 112.764 525.451 121.855 531.54 121.855 531.54 116.889 580.699 97.252 580.699 38.979 571.682 23.361 571.682 7.012 574.626 7.044"/>
  <path class="a" d="M532.90945,126.09432" transform="translate(-4.91055 -7.78913)"/>
  <path class="a" d="M530.65059,120.43992" transform="translate(-4.91055 -7.78913)"/>
  <g>
    <rect class="a" x="268.21304" y="19.49846" width="6.0889" height="97.45385"/>
    <polygon class="a" points="276.47 19.498 266.045 19.498 261.564 13.247 280.95 13.247 276.47 19.498"/>
  </g>
  <polyline class="a" points="446.509 13.67 446.509 116.952 452.598 116.952 452.598 13.67"/>
  <polygon class="a" points="454.767 13.67 444.341 13.67 439.861 7.044 459.247 7.044 454.767 13.67"/>
  <rect class="a" x="373.58251" y="8.82935" width="14" height="6.20271"/>
  <rect class="a" x="506.61209" y="8.82935" width="14" height="6.20271"/>
  <polyline class="a" points="8.834 53.635 8.834 123.5 16.834 123.5 16.834 53.635"/>
  <polyline class="a" points="8.834 104.461 5.584 104.461 5.584 53.635"/>
  <line class="a" x1="46.33594" y1="104.46052" x2="16.83428" y2="104.46052"/>
</svg>
