<svg xmlns="http://www.w3.org/2000/svg" viewBox="0 0 500 500">
  <g>
    <rect class="a" x="61.1312" y="421.43967" width="351.90873" height="51.7771"/>
    <polyline class="a" points="81.315 421.44 81.315 403.888 283.158 403.888 283.158 421.44"/>
    <path class="a" d="M307.73058,421.43967V405.41215a5.0074,5.0074,0,0,1,5.0074-5.0074h80.70147a5.00739,5.00739,0,0,1,5.00739,5.0074v16.02752"/>
    <rect class="a" x="318.58216" y="273.41397" width="69.01311" height="108.5674"/>
    <polyline class="a" points="318.582 146.674 318.582 196.915 387.595 196.915 387.595 110.704"/>
    <g>
      <line class="a" x1="327.5825" y1="400.40475" x2="327.5825" y2="381.98137"/>
      <line class="a" x1="378.59493" y1="400.40475" x2="378.59493" y2="381.98137"/>
    </g>
    <g>
      <line class="a" x1="328.63826" y1="273.41397" x2="328.63826" y2="196.91528"/>
      <line class="a" x1="377.53917" y1="273.41397" x2="377.53917" y2="196.91528"/>
    </g>
    <line class="a" x1="189.65657" y1="30.0846" x2="156.7147" y2="30.0846"/>
    <path class="a" d="M147.47489,30.0846H90.16772a5.04184,5.04184,0,0,0-5.04185,5.04184v70.53547a5.04184,5.04184,0,0,0,5.04185,5.04184H403.09811a5.04184,5.04184,0,0,0,5.04184-5.04184V35.12644a5.04184,5.04184,0,0,0-5.04184-5.04184H198.81861"/>
    <polyline class="a" points="360.064 110.704 360.064 146.674 318.582 146.674 206.985 146.674"/>
    <path class="a" d="M139.38579,111.52543v84.42644a5.11309,5.11309,0,0,0,5.1131,5.11309h57.37349a5.11309,5.11309,0,0,0,5.1131-5.11309V111.52543"/>
    <path class="a" d="M157.00833,201.065v25.57092a5.06735,5.06735,0,0,0,5.06734,5.06734H188.336a5.06735,5.06735,0,0,0,5.06735-5.06734V201.065"/>
    <polyline class="a" points="169.962 231.703 169.962 262.938 175.206 265.156 180.449 262.938 180.449 231.703"/>
    <path class="a" d="M318.58216,341.98439H108.57672a5.01792,5.01792,0,0,1-5.01791-5.01791V306.68059a5.01791,5.01791,0,0,1,5.01791-5.01791H318.58216"/>
    <path class="a" d="M139.38579,341.98439v12.19154a5.03821,5.03821,0,0,0,4.52548,5.012l174.67089,17.86885"/>
    <path class="a" d="M115.4378,301.66268v-11.9468a5.0164,5.0164,0,0,1,5.01639-5.01639H225.91708a5.0164,5.0164,0,0,1,5.01639,5.01639v11.9468"/>
    <polyline class="a" points="326.185 30.085 326.185 20.706 379.992 20.706 379.992 30.085"/>
    <g>
      <g>
        <circle class="a" cx="142.42493" cy="20.41473" r="6.84766"/>
        <circle class="a" cx="203.94634" cy="81.93614" r="6.84766"/>
      </g>
      <g>
        <polyline class="a" points="197.346 79.956 173.186 55.795 148.963 80.018"/>
        <polyline class="a" points="201.966 27.015 177.806 51.175 201.966 75.336"/>
        <polyline class="a" points="148.963 22.333 173.186 46.556 197.346 22.395"/>
        <polyline class="a" points="144.343 75.398 168.566 51.175 144.343 26.953"/>
        <circle class="a" cx="142.42493" cy="81.93614" r="6.84766"/>
        <circle class="a" cx="203.94634" cy="20.41473" r="6.84766"/>
      </g>
    </g>
    <polyline class="a" points="76 354.333 84.667 354.333 84.667 359.521 94 359.521 94 332.333 103.559 332.333"/>
    <polyline class="a" points="76 350 84.667 350 84.667 291.167 94 291.167 94 318.5 103.559 318.5"/>
    <circle class="a" cx="70.32235" cy="352.18299" r="6.125"/>
  </g>
</svg>
