<svg xmlns="http://www.w3.org/2000/svg" viewBox="0 0 500 500">
  <g>
    <polyline class="a" points="227.562 323.757 16.651 323.757 16.651 380.291 440.659 380.291 440.659 323.757 229.64 323.757"/>
    <polyline class="a" points="16.651 323.757 16.651 303.43 81.15 303.43 81.15 323.757"/>
    <g>
      <g>
        <line class="a" x1="29.98046" y1="303.43023" x2="29.98046" y2="276.36996"/>
        <line class="a" x1="67.82034" y1="303.43023" x2="67.82034" y2="276.36996"/>
      </g>
      <g>
        <line class="a" x1="67.82034" y1="242.07495" x2="67.82034" y2="189.27085"/>
        <line class="a" x1="29.98046" y1="242.07495" x2="29.98046" y2="189.27085"/>
      </g>
    </g>
    <path class="a" d="M47.02792,276.37H67.41965a5.07408,5.07408,0,0,0,5.07408-5.07407V247.149a5.07408,5.07408,0,0,0-5.07408-5.07408H30.38115a5.07407,5.07407,0,0,0-5.07407,5.07408v24.14686A5.07407,5.07407,0,0,0,30.38115,276.37Z"/>
    <rect class="a" x="24.60773" y="165.19813" width="48.58534" height="24.07271" rx="5.15382" ry="5.15382"/>
    <line class="a" x1="43.65923" y1="242.07495" x2="43.65923" y2="189.27085"/>
    <line class="a" x1="48.9004" y1="242.07495" x2="48.9004" y2="189.27085"/>
    <line class="a" x1="43.65923" y1="276.36996" x2="43.65923" y2="303.43023"/>
    <line class="a" x1="48.9004" y1="303.43023" x2="48.9004" y2="276.36996"/>
    <polyline class="a" points="25.307 256.011 21.6 256.011 21.6 239.119 16.067 239.119 16.067 269.991 12.28 269.991"/>
    <polyline class="a" points="12.28 274.942 16.067 274.942 16.067 277.398 21.6 277.398 21.6 263.01 25.307 263.01"/>
    <circle class="a" cx="9.07283" cy="272.47845" r="4.05586"/>
    <polyline class="a" points="151.138 323.757 151.138 296.125 269.69 296.125 269.69 300.599"/>
    <path class="a" d="M276.80121,308.53566v30.899a5.10721,5.10721,0,0,1-5.10721,5.10721H196.5993a5.10722,5.10722,0,0,1-5.10721-5.10721V305.70623a5.10721,5.10721,0,0,1,5.10721-5.10721H271.694a5.1072,5.1072,0,0,1,5.10721,5.10721v1.1013"/>
    <path class="a" d="M236.79561,272.7925h34.90795a5.09765,5.09765,0,0,1,5.09765,5.09765v13.13753a5.09765,5.09765,0,0,1-5.09765,5.09766H269.69"/>
    <path class="a" d="M151.13754,296.12534H149.3153a5.09766,5.09766,0,0,1-5.09766-5.09766V277.89015a5.09766,5.09766,0,0,1,5.09766-5.09765h34.81226"/>
    <polyline class="a" points="151.138 308.031 120.176 308.031 120.176 323.757"/>
    <polyline class="a" points="120.176 311.654 96.464 311.654 96.464 323.757"/>
    <line class="a" x1="96.4639" y1="315.89405" x2="81.14975" y2="315.89405"/>
    <polyline class="a" points="276.801 309.941 314.777 309.941 314.777 323.757"/>
    <path class="a" d="M358.41491,191.80832H340.26208a5.10177,5.10177,0,0,0-5.10177,5.10177v70.78063a5.10178,5.10178,0,0,0,5.10177,5.10178h18.15283"/>
    <path class="a" d="M367.40561,272.7925H437.305a5.10178,5.10178,0,0,0,5.10177-5.10178V196.91009a5.10177,5.10177,0,0,0-5.10177-5.10177H367.40561"/>
    <line class="a" x1="350.85174" y1="323.75663" x2="350.85174" y2="272.7925"/>
    <line class="a" x1="410.63667" y1="323.75663" x2="410.63667" y2="272.7925"/>
    <line class="a" x1="350.85174" y1="191.80832" x2="350.85174" y2="145.24528"/>
    <line class="a" x1="410.63667" y1="191.80832" x2="410.63667" y2="145.24528"/>
    <rect class="a" x="342.13937" y="119.70901" width="73.00371" height="25.53628" rx="5.09376" ry="5.09376"/>
    <line class="a" x1="358.41491" y1="323.75663" x2="358.41491" y2="145.24528"/>
    <line class="a" x1="367.40561" y1="323.75663" x2="367.40561" y2="145.24528"/>
    <line class="a" x1="314.77709" y1="316.84881" x2="350.85174" y2="316.84881"/>
    <polyline class="a" points="335.16 262.161 329.69 262.161 329.69 202.44 335.16 202.44"/>
    <path class="a" d="M329.6898,210.23881h-9.806a5.10669,5.10669,0,0,0-5.1067,5.10669v33.90981a5.10669,5.10669,0,0,0,5.1067,5.10669h9.806"/>
    <g>
      <line class="a" x1="442.4068" y1="212.87205" x2="469.36012" y2="212.87205"/>
      <line class="a" x1="442.4068" y1="251.72876" x2="469.36012" y2="251.72876"/>
    </g>
    <rect class="a" x="469.36012" y="203.18827" width="25.6229" height="58.22428" rx="5.03129" ry="5.03129"/>
    <line class="a" x1="304.90404" y1="219.39902" x2="314.77709" y2="219.39902"/>
    <path class="a" d="M295.9789,245.20179h-5.75063a3.058,3.058,0,0,1-2.13174-.86552l-7.27331-7.07193a3.058,3.058,0,0,1-.92622-2.19244v-5.543a3.058,3.058,0,0,1,.92622-2.19244l7.27331-7.07193a3.058,3.058,0,0,1,2.13174-.86552h5.56088"/>
    <line class="a" x1="314.77709" y1="245.20179" x2="304.90404" y2="245.20179"/>
    <polyline class="a" points="279.897 230.915 255.309 230.915 254.071 232.3 255.309 233.686 279.897 233.686"/>
    <rect class="a" x="389.72978" y="334.37898" width="39.58646" height="24.22964" rx="1.45798" ry="1.45798"/>
    <g>
      <circle class="a" cx="403.50274" cy="346.4938" r="5.08119"/>
      <circle class="a" cx="418.05342" cy="346.4938" r="2.57105"/>
    </g>
    <g>
      <g>
        <g>
          <line class="a" x1="379.70887" y1="237.21462" x2="374.80274" y2="232.30849"/>
          <line class="a" x1="387.37712" y1="244.88287" x2="381.03878" y2="238.54453"/>
          <line class="a" x1="397.96571" y1="255.47146" x2="391.62959" y2="249.13534"/>
          <line class="a" x1="404.1577" y1="261.66345" x2="399.25236" y2="256.75811"/>
          <line class="a" x1="397.88276" y1="258.1772" x2="402.76335" y2="263.05779"/>
          <line class="a" x1="390.23615" y1="250.53059" x2="396.54183" y2="256.83627"/>
          <line class="a" x1="379.64444" y1="239.93888" x2="385.93717" y2="246.23161"/>
          <line class="a" x1="373.42326" y1="233.7177" x2="378.31454" y2="238.60898"/>
        </g>
        <circle class="a" cx="372.12172" cy="231.02181" r="2.97496"/>
        <circle class="a" cx="405.44539" cy="264.34549" r="2.97496"/>
      </g>
      <g>
        <g>
          <line class="a" x1="378.31492" y1="256.75795" x2="373.42326" y2="261.6496"/>
          <line class="a" x1="385.89877" y1="249.17409" x2="379.64479" y2="255.42808"/>
          <line class="a" x1="396.54226" y1="238.5306" x2="390.23575" y2="244.83711"/>
          <line class="a" x1="402.76335" y1="232.30951" x2="397.88276" y2="237.1901"/>
          <line class="a" x1="399.2771" y1="238.58444" x2="404.1577" y2="233.70385"/>
          <line class="a" x1="391.62959" y1="246.23196" x2="397.93755" y2="239.924"/>
          <line class="a" x1="381.03913" y1="256.82242" x2="387.33187" y2="250.52968"/>
          <line class="a" x1="374.8176" y1="263.04395" x2="379.68435" y2="258.1772"/>
        </g>
        <circle class="a" cx="372.12172" cy="264.34549" r="2.97496"/>
        <circle class="a" cx="405.44539" cy="231.02181" r="2.97496"/>
      </g>
      <circle class="a" cx="388.78356" cy="247.68365" r="3.19567"/>
      <circle class="a" cx="388.7974" cy="247.68365" r="11.98979"/>
      <circle class="a" cx="388.78356" cy="247.68365" r="13.85417"/>
    </g>
    <g>
      <circle class="a" cx="389.85046" cy="218.98371" r="4.2752"/>
      <line class="a" x1="400.31773" y1="204.14378" x2="392.83244" y2="215.8172"/>
      <line class="a" x1="391.48386" y1="214.95246" x2="398.96914" y2="203.27903"/>
      <circle class="a" cx="400.52026" cy="202.34399" r="1.78378"/>
    </g>
    <g>
      <circle class="a" cx="218.35862" cy="312.75918" r="4.2752"/>
      <line class="a" x1="230.10157" y1="326.61162" x2="220.6767" y2="316.43959"/>
      <line class="a" x1="221.85184" y1="315.35077" x2="231.27671" y2="325.5228"/>
      <circle class="a" cx="231.79316" cy="327.25876" r="1.78378"/>
    </g>
    <g>
      <circle class="a" cx="262.82629" cy="313.32466" r="4.2752"/>
      <line class="a" x1="279.94512" y1="307.2639" x2="267.08989" y2="312.46404"/>
      <line class="a" x1="266.48914" y1="310.97892" x2="279.34437" y2="305.77879"/>
      <circle class="a" cx="281.1506" cy="305.9122" r="1.78378"/>
    </g>
    <g>
      <circle class="a" cx="420.7667" cy="222.02645" r="4.2752"/>
      <line class="a" x1="431.23396" y1="207.18653" x2="423.74867" y2="218.85995"/>
      <line class="a" x1="422.40009" y1="217.99521" x2="429.88538" y2="206.32178"/>
      <circle class="a" cx="431.43649" cy="205.38674" r="1.78378"/>
    </g>
    <path class="a" d="M296.954,217.39513h7.94048a.00958.00958,0,0,1,.00958.00958v29.79138a.00958.00958,0,0,1-.00958.00958H296.954a.97507.97507,0,0,1-.97507-.97507v-27.8604A.97507.97507,0,0,1,296.954,217.39513Z"/>
    <polygon class="a" points="236.796 282.145 236.796 268.423 246.734 268.423 246.734 256.758 223.545 256.758 223.545 247.684 197.378 247.684 197.378 256.758 174.189 256.758 174.189 268.423 184.128 268.423 184.128 282.145 236.796 282.145"/>
    <line class="a" x1="184.12756" y1="268.42259" x2="236.79561" y2="268.42259"/>
    <line class="a" x1="197.3784" y1="256.75795" x2="223.54477" y2="256.75795"/>
  </g>
</svg>
