<svg xmlns="http://www.w3.org/2000/svg" viewBox="0 0 500 500">
  <g>
    <g>
      <g>
        <g>
          <polyline class="a" points="392.326 190.713 406.978 190.713 406.978 231.703 392.326 231.703"/>
          <path class="a" d="M406.97786,190.71305l24.58937-24.58937v-8.39637h38.38341v16.49287l3.35587.04843,6.54279-16.5413,13.49123-13.794s-4.26226-38.692-24.24982-39.52233c-9.93342-.5746-11.74838-.95327-27.22017-.95326-2.60591.0651-12.38036-.22806-14.85412,0-9.30619.85794-10.63468,3.45052-20.03856,8.06775-13.73148,6.74205-30.82722,30.39219-31.78627,60.91263"/>
          <path class="a" d="M493.34053,143.93327H434.26606s.89961-32.40784-27.2882-32.40784"/>
          <path class="a" d="M399.42158,116.68981c28.18781,0,27.51874,32.40784,27.51874,32.40784l.0761,4.05768"/>
          <path class="a" d="M456.2071,157.72731s13.23391,10.06119,13.21161,44.88032c.12206,10.48033.11356,42.08184-10.46926,55.06809"/>
          <path class="a" d="M438.61962,157.72731s13.23392,10.06119,13.21161,44.88032c.12206,10.48033.11356,42.08184-10.46926,55.06809"/>
          <path class="a" d="M396.44705,231.70322l18.69136,25.9725h67.777s1.5568-17.97308-15.90912-17.97308"/>
          <polyline class="a" points="385.408 239.703 419.5 284.011 496.779 284.011 480.504 267.736 479.641 257.676"/>
          <polyline class="a" points="462.845 284.011 476.332 309.225 462.845 329.068 399.652 329.068 362.765 268.993 362.765 239.703"/>
          <line class="a" x1="313.06902" y1="273.41397" x2="362.76525" y2="268.99253"/>
          <polyline class="a" points="456.207 284.385 465.431 301.663 419.76 301.663 406.978 267.736"/>
          <path class="a" d="M297.09767,138.56864s7.18022,26.52423,7.18022,67.42267-7.18022,67.42266-7.18022,67.42266"/>
          <line class="a" x1="399.65212" y1="329.06763" x2="419.75957" y2="301.66268"/>
          <path class="a" d="M406.97786,196.673h12.78171s3.66273,4.798,3.66273,13.89883-3.66273,13.89883-3.66273,13.89883H406.97786"/>
          <polyline class="a" points="423.422 174.269 423.422 157.727 434.266 143.933"/>
          <path class="a" d="M473.30651,174.26861a191.08218,191.08218,0,0,1,3.02523,31.7227c0,16.05236-3.02523,34.69226-3.02523,34.69226"/>
          <polyline class="a" points="465.431 301.663 467.695 305.514 462.845 329.068"/>
        </g>
        <g>
          <path class="a" d="M107.67362,205.99131V172.43806h34.585c20.1746,0,44.67233-33.86942,44.67233-33.86942H313.069s24.49773,33.86942,44.67233,33.86942h34.585v33.55325"/>
          <path class="a" d="M107.67362,205.99131v33.55324h34.585c20.1746,0,44.67233,33.86942,44.67233,33.86942H313.069s24.49773-33.86942,44.67233-33.86942h34.585V205.99131"/>
          <polyline class="a" points="107.674 190.713 93.022 190.713 93.022 231.703 107.674 231.703"/>
          <path class="a" d="M93.02214,190.71305,68.43277,166.12368v-8.39637H30.04936v16.49287l-3.35587.04843-6.54279-16.5413-13.49123-13.794s4.26226-38.692,24.24982-39.52233c9.93342-.5746,11.74838-.95327,27.22017-.95326,2.58925.06468,12.39552.19916,14.85412.42459,9.32449.855,10.6187,3.01809,20.03856,7.64316,13.73148,6.74205,30.82722,30.39219,31.78627,60.91263"/>
          <path class="a" d="M6.65947,143.93327H65.73394s-.89961-32.40784,27.2882-32.40784"/>
          <path class="a" d="M100.57842,116.68981c-28.18781,0-27.51874,32.40784-27.51874,32.40784l-.0761,4.05768"/>
          <path class="a" d="M43.7929,157.72731S30.559,167.7885,30.58129,202.60763c-.12206,10.48033-.11356,42.08184,10.46926,55.06809"/>
          <path class="a" d="M61.38038,157.72731S48.14646,167.7885,48.16877,202.60763c-.12206,10.48033-.11356,42.08184,10.46926,55.06809"/>
          <path class="a" d="M103.553,231.70322l-18.69136,25.9725h-67.777s-1.5568-17.97308,15.90912-17.97308"/>
          <polyline class="a" points="114.592 239.703 80.5 284.011 3.221 284.011 19.496 267.736 20.359 257.676"/>
          <polyline class="a" points="37.155 284.011 23.668 309.225 37.155 329.068 100.348 329.068 137.235 268.993 137.235 239.703"/>
          <line class="a" x1="186.93098" y1="273.41397" x2="137.23475" y2="268.99253"/>
          <polyline class="a" points="43.793 284.385 34.569 301.663 80.24 301.663 93.022 267.736"/>
          <path class="a" d="M202.90233,138.56864s-7.18022,26.52423-7.18022,67.42267,7.18022,67.42266,7.18022,67.42266"/>
          <line class="a" x1="100.34788" y1="329.06763" x2="80.24043" y2="301.66268"/>
          <path class="a" d="M93.02214,196.673H80.24043s-3.66273,4.798-3.66273,13.89883,3.66273,13.89883,3.66273,13.89883H93.02214"/>
          <polyline class="a" points="76.578 174.269 76.578 157.727 65.734 143.933"/>
          <path class="a" d="M26.69349,174.26861a191.08218,191.08218,0,0,0-3.02523,31.7227c0,16.05236,3.02523,34.69226,3.02523,34.69226"/>
          <polyline class="a" points="34.569 301.663 32.305 305.514 37.155 329.068"/>
        </g>
      </g>
      <g>
        <line class="a" x1="290.20221" y1="273.41397" x2="290.20221" y2="282.01162"/>
        <line class="a" x1="209.79779" y1="273.41397" x2="209.79779" y2="282.01162"/>
      </g>
      <g>
        <line class="a" x1="297.57993" y1="282.01162" x2="304.76015" y2="396.63068"/>
        <g>
          <path class="a" d="M198.83,396.63068c-16.63011,0-37.22935-16.67964-37.22935-16.67964L198.83,282.01162H301.17L338.39939,379.951S317.80015,396.63068,301.17,396.63068Z"/>
          <line class="a" x1="202.42007" y1="282.01162" x2="195.23985" y2="396.63068"/>
          <path class="a" d="M217.7662,396.63068V294.04543a6.70733,6.70733,0,0,1,6.70734-6.70733h51.05292a6.70733,6.70733,0,0,1,6.70734,6.70733V396.63068"/>
        </g>
      </g>
    </g>
    <line class="a" x1="80.49956" y1="283.9673" x2="84.86159" y2="257.63154"/>
    <line class="a" x1="419.50044" y1="283.9673" x2="415.13841" y2="257.63154"/>
    <line class="a" x1="480.50379" y1="267.69216" x2="417.31942" y2="267.69216"/>
    <line class="a" x1="19.49621" y1="267.69216" x2="83.19524" y2="267.69216"/>
  </g>
</svg>
