<svg xmlns="http://www.w3.org/2000/svg" viewBox="0 0 500 500">
  <g>
    <polyline class="a" points="215.731 22.116 302.008 17.977 396.212 69.226 396.212 84.886 262.266 100.096 262.266 91.755 302.008 17.977"/>
    <polyline class="a" points="262.266 100.096 117.526 90.283 117.526 78.998 134.702 55.025"/>
    <line class="a" x1="117.52634" y1="84.39555" x2="262.26608" y2="91.7552"/>
    <path class="a" d="M181.4976,94.6203v46.43991s25.30954,17.09536,70.94749,17.09536,61.33852-17.09536,61.33852-17.09536V113.99769"/>
    <path class="a" d="M312.28882,142.42744c49.39141,25.84054,46.96106,101.42714,46.96106,101.42714V390.72044L233.97232,417.21517l-47.42884,52.33527v19.62573l227.00424-37.28888V84.39555l-17.336.49064"/>
    <polyline class="a" points="359.25 390.72 329.484 379.272 215.731 404.131 169.139 459.073"/>
    <line class="a" x1="215.73118" y1="404.13135" x2="233.97232" y2="417.21517"/>
    <polyline class="a" points="186.543 489.176 86.452 427.028 88.742 410.673 186.543 469.55"/>
    <polyline class="a" points="134.655 371.707 150.236 379.272 105.322 420.655 165.282 393.337 201.59 390.72"/>
    <line class="a" x1="165.28228" y1="393.3372" x2="207.94658" y2="413.31094"/>
    <path class="a" d="M150.23589,379.2721l51.354-2.28967V366.51538s1.96258-5.88772,6.869-7.1961L138.46045,368.478,88.74194,410.67326"/>
    <path class="a" d="M201.58987,376.98243v11.12125s8.72562,13.44151,25.29692,13.58976"/>
    <path class="a" d="M208.45888,359.31928s10.14-8.17739,41.54112-5.88772S289.43545,370.093,289.43545,370.093,277.80311,386.4682,243.131,384.99627s-41.54113-18.48089-41.54113-18.48089"/>
    <line class="a" x1="289.43545" y1="370.09298" x2="289.43545" y2="388.02424"/>
    <path class="a" d="M191.52994,146.2997l3.00636,21.01455s54.08688,21.88893,90.26515-12.60641"/>
    <path class="a" d="M194.5363,167.31425s-5.8667.736-4.14945,8.09561,1.71726,13.49269,7.35965,13.49269,86.3532,6.42647,116.03711-45.66482"/>
    <path class="a" d="M208.29533,189.15426v33.158s14.44536,18.1111,17.5771,20.69384l14.56.16889c3.20964-.878,14.474-17.87289,15.45526-20.86273s0-38.81841,0-38.81841l25.51344,24.07594s21.17387,2.83859,24.57026,1.65322l7.81219-9.14681c1.47193-4.79529,2.94386-18.04266,0-20.98652S296.25428,163.906,296.25428,163.906"/>
    <path class="a" d="M208.29533,222.31226s12.70221,4.85174,24.01426,4.85174,23.57813-4.85174,23.57813-4.85174"/>
    <path class="a" d="M208.29533,201.8423s8.46518,5.72749,23.79619,5.72749,23.7962-7.49359,23.7962-7.49359"/>
    <path class="a" d="M281.40116,207.56979s13.24737-2.96666,20.607-10.4794c5.13924-5.24615,12.561-16.74424,12.561-16.74424"/>
    <path class="a" d="M270.29606,197.09039s12.27038-2.72716,19.13939-10.33851,11.72981-18.69833,11.72981-18.69833"/>
    <path class="a" d="M251.6157,229.81616s38.8112-4.52889,44.18783,11.60456c.99145,2.975.88935,16.51089.88935,16.51089s-10.8747,16.5064-52.58,15.36156-52.58295-16.63874-52.58295-16.63874V240.15706s4.937-5.074,22.70839-7.55724"/>
    <path class="a" d="M191.52994,240.15706s15.457,15.473,53.56363,15.473,50.71-14.2093,50.71-14.2093"/>
    <path class="a" d="M191.52994,246.14425s-24.93928.98129-24.28509,19.62573v21.01588s9.99686,16.60009,78.26781,16.60009,74.81286-21.91539,74.81286-21.91539V255.63s1.85928-10.14-24.09316-11.77544"/>
    <path class="a" d="M167.2322,261.51774s5.24618,25.26812,71.97365,25.26812,81.11967-23.95974,81.11967-23.95974"/>
    <path class="a" d="M197.69151,299.64606v26.63658s11.93265,14.0651,47.82115,14.0651,45.37427-14.0651,45.37427-14.0651V299.64606"/>
    <line class="a" x1="210.51909" y1="301.58567" x2="210.51909" y2="334.35946"/>
    <line class="a" x1="229.72008" y1="303.38595" x2="229.72008" y2="339.33257"/>
    <line class="a" x1="252.6227" y1="303.30134" x2="252.6227" y2="339.92018"/>
    <line class="a" x1="270.55805" y1="302.23196" x2="270.55805" y2="337.46442"/>
    <line class="a" x1="282.05535" y1="301.58567" x2="282.05535" y2="333.10311"/>
    <line class="a" x1="245.51266" y1="353.16721" x2="245.51266" y2="340.34774"/>
    <path class="a" d="M289.90564,100.09613s-4.73481,0-4.73481,5.80595,4.73481,5.80594,4.73481,5.80594h20.27992V100.09613Z"/>
    <path class="a" d="M310.18556,100.09613l5.29769-3.76159h19.23447s-6.21481,9.48576,1.96257,17.66315H313.78361l-3.59805-2.28967"/>
    <path class="a" d="M334.71772,96.33454S340,97.54135,340,105.16611c0,6.54191-2.47843,8.9986-2.47843,8.9986"/>
    <line class="a" x1="313.78361" y1="97.54135" x2="313.78361" y2="94.24616"/>
    <g>
      <path class="a" d="M228.90234,78.99848l-56.9146-32.8731s-6.12836-32.87309,26.00408-32.87309c2.23915,0,51.02689,26.98538,51.02689,26.98538S264.7193,71.14819,228.90234,78.99848Z"/>
      <path class="a" d="M211.98279,69.226s18.39148-.531,24.2792-11.8158a33.57511,33.57511,0,0,0,2.567-22.7773"/>
      <path class="a" d="M171.98774,46.12538s17.63863,4.78376,26.24941-9.56754c8.83157-14.71929-.188-23.42372-.24533-23.30555"/>
      <path class="a" d="M181.849,46.72658s-2.07892-12.13131,3.87677-19.00032,15.83653-7.95071,15.83653-7.95071"/>
    </g>
    <g>
      <path class="a" d="M194.5363,59.6116c-2.16353,7.03836-8.25509,13.83068-22.53082,16.9596L115.09087,43.69811S108.96251,10.825,141.095,10.825c1.30526,0,18.428,9.16976,32.4837,16.81866"/>
      <path class="a" d="M155.08593,66.7987s18.39148-.531,24.2792-11.8158a29.70881,29.70881,0,0,0,1.58987-3.61755"/>
      <path class="a" d="M115.09087,43.69811s17.63863,4.78375,26.24941-9.56754c8.83158-14.7193-.188-23.42372-.24532-23.30555"/>
      <path class="a" d="M124.98821,44.32636s-.12691-.72063-.22422-1.9089c-.29191-3.56483-.31741-11.33846,4.14936-16.49022,5.95569-6.869,15.83653-7.95071,15.83653-7.95071"/>
    </g>
  </g>
</svg>
