<svg xmlns="http://www.w3.org/2000/svg" viewBox="0 0 500 500">
  <g>
    <path class="a" d="M40.32462,400.03557v72.74452H166.55776v-12.819a5.36708,5.36708,0,0,1,5.36708-5.36709H343.052a5.36709,5.36709,0,0,1,5.36709,5.36709v12.819H459.67538V400.03557"/>
    <rect class="a" x="8.23145" y="121.35987" width="483.53711" height="279.21059" rx="5.40157" ry="5.40157"/>
    <rect class="a" x="143.55765" y="137.40646" width="235.34992" height="193.6288" rx="5.54137" ry="5.54137"/>
    <line class="a" x1="378.90757" y1="121.35987" x2="378.90757" y2="142.94783"/>
    <polyline class="a" points="378.908 326.345 378.908 331.035 418.364 331.035"/>
    <line class="a" x1="491.76855" y1="331.03526" x2="459.67538" y2="331.03526"/>
    <line class="a" x1="143.55765" y1="158.62212" x2="8.23145" y2="158.62212"/>
    <line class="a" x1="143.55765" y1="213.56968" x2="8.23145" y2="213.56968"/>
    <line class="a" x1="143.55765" y1="238.88594" x2="8.23145" y2="238.88594"/>
    <line class="a" x1="143.55765" y1="314.12912" x2="8.23145" y2="314.12912"/>
    <rect class="a" x="169.23219" y="188.75553" width="175.44267" height="88.79111"/>
    <path class="a" d="M253.902,188.75553V220.236a5.42673,5.42673,0,0,0,5.42673,5.42672h28.03546a5.42672,5.42672,0,0,0,5.42672-5.42672V188.75553"/>
    <polyline class="a" points="270.415 225.663 270.415 260.43 276.278 260.43 276.278 225.663"/>
    <path class="a" d="M305.08255,121.35987v-58.253a5.39842,5.39842,0,0,0-5.39842-5.39842H247.00875a5.39842,5.39842,0,0,0-5.39842,5.39842v58.253"/>
    <path class="a" d="M229.6745,121.35987V64.4541s-.212-28.91253,18.98837-28.91253c18.7764,0,18.98837,22.70173,18.98837,22.70173"/>
    <path class="a" d="M220.75638,121.35987V57.17353s0-29.95362,28.70873-29.95362c25.68619,0,25.68041,30.48851,25.68041,30.48851"/>
    <rect class="a" x="426.17559" y="57.70842" width="19.21706" height="48.57832"/>
    <g>
      <line class="a" x1="430.97986" y1="121.35987" x2="430.97986" y2="106.28674"/>
      <line class="a" x1="440.58838" y1="121.35987" x2="440.58838" y2="106.28674"/>
    </g>
    <polyline class="a" points="418.364 265.462 418.364 369.141 459.675 369.141 459.675 265.462"/>
    <rect class="a" x="394.53803" y="234.22086" width="88.96375" height="31.24099"/>
    <polyline class="a" points="399.22 234.221 399.22 177.167 478.819 177.167 478.819 234.221"/>
    <rect class="a" x="406.86051" y="185.77204" width="48.3666" height="33.37295" rx="5.3509" ry="5.3509"/>
    <line class="a" x1="394.53803" y1="246.71395" x2="483.50178" y2="246.71395"/>
  </g>
</svg>
