<svg xmlns="http://www.w3.org/2000/svg" viewBox="0 0 500 500">
  <g>
    <path class="a" d="M289.2122,453.76077a207.253,207.253,0,0,0,117.61726-67.94451l.0165.0143,25.27209,14.59085a6.24563,6.24563,0,0,0,8.53169-2.28606l32.96411-57.09551a6.24562,6.24562,0,0,0-2.28606-8.53168l-25.24241-14.58058a208.49206,208.49206,0,0,0,0-135.85508l25.24239-14.58066a6.24562,6.24562,0,0,0,2.28606-8.53168l-32.96411-57.09551a6.24563,6.24563,0,0,0-8.53169-2.28606L406.846,114.16944l-.01651.01428a207.25305,207.25305,0,0,0-117.61726-67.9445l-.00245-29.16879a6.24563,6.24563,0,0,0-6.24563-6.24562H217.03589a6.24563,6.24563,0,0,0-6.24563,6.24562V46.25214h0a208.74054,208.74054,0,0,0-117.61972,67.9316l-.0165-.0143L67.882,99.57859a6.24563,6.24563,0,0,0-8.53169,2.28606L26.38615,158.96016a6.24562,6.24562,0,0,0,2.28606,8.53168l25.24241,14.58058a208.49213,208.49213,0,0,0,0,135.85522L28.67221,332.50816a6.24562,6.24562,0,0,0-2.28606,8.53168l32.96411,57.09551a6.24563,6.24563,0,0,0,8.53169,2.28606L93.154,385.83056l.01649-.01431a207.25306,207.25306,0,0,0,117.61728,67.94453l.00245,29.16879a6.24563,6.24563,0,0,0,6.24563,6.24562h65.92822a6.24563,6.24563,0,0,0,6.24563-6.24562V453.74786"/>
    <circle class="a" cx="250" cy="250" r="44.63052"/>
    <circle class="a" cx="250" cy="250" r="144.2234"/>
  </g>
</svg>
