<svg xmlns="http://www.w3.org/2000/svg" viewBox="0 0 500 500">
  <g>
    <rect class="a" x="5.27519" y="292.75694" width="214.6875" height="86.21758"/>
    <rect class="a" x="389.7371" y="228.9751" width="84.24444" height="149.99942"/>
    <polyline class="a" points="62.008 246.508 136.6 246.508 136.6 147.729 5.275 147.729 5.275 246.508 58.429 246.508"/>
    <line class="a" x1="95.06124" y1="292.75694" x2="95.06124" y2="246.50777"/>
    <line class="a" x1="19.92822" y1="292.75694" x2="19.92822" y2="246.50777"/>
    <polyline class="a" points="215.337 226.4 215.337 288.922 286.57 288.922"/>
    <line class="a" x1="95.06124" y1="277.34055" x2="215.33678" y2="277.34055"/>
    <line class="a" x1="95.06124" y1="269.63236" x2="215.33678" y2="269.63236"/>
    <line class="a" x1="5.27519" y1="292.75694" x2="5.27519" y2="246.50777"/>
    <line class="a" x1="19.92822" y1="269.63236" x2="5.27519" y2="269.63236"/>
    <line class="a" x1="19.92822" y1="277.34055" x2="5.27519" y2="277.34055"/>
    <line class="a" x1="95.06124" y1="262.17466" x2="215.33678" y2="262.17466"/>
    <polyline class="a" points="215.337 251.347 133.952 251.347 133.952 246.508"/>
    <line class="a" x1="19.92822" y1="262.17466" x2="5.27519" y2="262.17466"/>
    <polyline class="a" points="305.396 243.264 305.396 220.716 287.103 220.716"/>
    <polygon class="a" points="287.103 204.976 208.826 204.976 208.826 226.4 287.103 226.4 287.103 220.716 287.103 204.976"/>
    <line class="a" x1="215.33678" y1="228.9751" x2="136.59999" y2="228.9751"/>
    <line class="a" x1="305.39597" y1="228.9751" x2="389.7371" y2="228.9751"/>
    <polygon class="a" points="172.709 147.729 146.106 147.729 146.106 162.938 146.106 210.912 172.709 210.912 172.709 147.729"/>
    <polyline class="a" points="136.6 162.502 146.106 162.502 146.106 156.832 136.6 156.832"/>
    <line class="a" x1="136.59999" y1="202.1896" x2="146.10564" y2="202.1896"/>
    <line class="a" x1="146.10564" y1="197.11823" x2="136.59999" y2="197.11823"/>
    <circle class="a" cx="292.20452" cy="264.62004" r="24.94401"/>
    <circle class="a" cx="292.20452" cy="264.62004" r="7.46478"/>
    <line class="a" x1="292.20452" y1="239.67603" x2="292.20452" y2="257.15527"/>
    <line class="a" x1="292.20452" y1="272.08482" x2="292.20452" y2="289.56406"/>
    <line class="a" x1="299.6693" y1="264.62004" x2="317.14854" y2="264.62004"/>
    <line class="a" x1="284.73975" y1="264.62004" x2="267.26051" y2="264.62004"/>
    <line class="a" x1="317.02878" y1="262.17466" x2="389.7371" y2="262.17466"/>
    <line class="a" x1="312.50245" y1="250.13074" x2="389.7371" y2="250.13074"/>
    <polyline class="a" points="305.396 285.789 305.396 288.922 297.849 288.922"/>
    <line class="a" x1="316.64462" y1="269.63236" x2="389.7371" y2="269.63236"/>
    <line class="a" x1="313.66055" y1="277.34055" x2="389.7371" y2="277.34055"/>
    <polyline class="a" points="386.443 228.975 386.443 197.747 461.33 197.747 461.33 228.975"/>
    <polyline class="a" points="387.27 197.747 374.751 197.603 374.751 169.499 378.098 166.152 464.686 166.152 467.879 169.346 467.879 197.747 461.33 197.747"/>
    <polyline class="a" points="374.751 189.696 353.383 189.696 346.706 183.019 352.641 177.084 374.751 177.084"/>
    <line class="a" x1="467.87938" y1="177.08395" x2="470.83792" y2="177.08395"/>
    <line class="a" x1="467.87938" y1="189.69573" x2="470.83792" y2="189.69573"/>
    <polygon class="a" points="470.838 204.894 470.838 160.172 476.694 160.172 476.694 199.231 482.502 199.231 482.502 196.182 491.504 196.182 491.504 204.894 482.494 204.894 482.494 202.021 476.682 202.021 476.682 204.894 470.838 204.894"/>
    <rect class="a" x="485.51196" y="192.96339" width="3.22034" height="3.22034"/>
    <rect class="a" x="491.50446" y="198.9039" width="3.22034" height="3.22034"/>
    <rect class="a" x="485.51196" y="204.89373" width="3.22034" height="3.22034"/>
    <polyline class="a" points="221.538 204.976 221.538 179.32 221.538 159.667 260.621 159.667 260.621 204.976"/>
    <line class="a" x1="260.62101" y1="179.32041" x2="221.53839" y2="179.32041"/>
    <polyline class="a" points="229.949 159.667 229.949 145.357 245.425 145.357 247.964 147.904 247.964 159.667"/>
    <g>
      <rect class="a" x="254.93691" y="122.37588" width="3.62548" height="28.40658" transform="translate(171.77629 -141.54631) rotate(45)"/>
      <circle class="a" cx="269.04417" cy="124.28466" r="3.25918"/>
    </g>
    <g>
      <circle class="a" cx="106.04628" cy="225.53879" r="6.45101"/>
      <circle class="a" cx="88.17083" cy="196.38886" r="2.91083"/>
      <line class="a" x1="88.17083" y1="199.30015" x2="101.10056" y2="221.39702"/>
      <line class="a" x1="90.75116" y1="197.7288" x2="103.74628" y2="219.5112"/>
    </g>
    <g>
      <circle class="a" cx="73.16616" cy="267.38338" r="6.45101"/>
      <circle class="a" cx="55.29071" cy="238.23345" r="2.91083"/>
      <line class="a" x1="55.29071" y1="241.14473" x2="68.22044" y2="263.2416"/>
      <line class="a" x1="57.87103" y1="239.57338" x2="70.86616" y2="261.35578"/>
    </g>
    <g>
      <circle class="a" cx="244.25988" cy="264.99827" r="6.45101"/>
      <circle class="a" cx="226.38442" cy="235.84834" r="2.91083"/>
      <line class="a" x1="226.38442" y1="238.75962" x2="239.31415" y2="260.85649"/>
      <line class="a" x1="228.96475" y1="237.18828" x2="241.95987" y2="258.97068"/>
    </g>
  </g>
</svg>
